G04 EAGLE Gerber RS-274X export*
G75*
%MOMM*%
%FSLAX34Y34*%
%LPD*%
%INSilkscreen Bottom*%
%IPPOS*%
%AMOC8*
5,1,8,0,0,1.08239X$1,22.5*%
G01*
%ADD10C,0.101600*%
%ADD11C,0.127000*%
%ADD12C,0.200000*%
%ADD13C,0.076200*%


D10*
X359242Y138586D02*
X359242Y150270D01*
X355996Y150270D01*
X355996Y150271D02*
X355883Y150269D01*
X355770Y150263D01*
X355657Y150253D01*
X355544Y150239D01*
X355432Y150222D01*
X355321Y150200D01*
X355211Y150175D01*
X355101Y150145D01*
X354993Y150112D01*
X354886Y150075D01*
X354780Y150035D01*
X354676Y149990D01*
X354573Y149942D01*
X354472Y149891D01*
X354373Y149836D01*
X354276Y149778D01*
X354181Y149716D01*
X354088Y149651D01*
X353998Y149583D01*
X353910Y149512D01*
X353824Y149437D01*
X353741Y149360D01*
X353661Y149280D01*
X353584Y149197D01*
X353509Y149111D01*
X353438Y149023D01*
X353370Y148933D01*
X353305Y148840D01*
X353243Y148745D01*
X353185Y148648D01*
X353130Y148549D01*
X353079Y148448D01*
X353031Y148345D01*
X352986Y148241D01*
X352946Y148135D01*
X352909Y148028D01*
X352876Y147920D01*
X352846Y147810D01*
X352821Y147700D01*
X352799Y147589D01*
X352782Y147477D01*
X352768Y147364D01*
X352758Y147251D01*
X352752Y147138D01*
X352750Y147025D01*
X352752Y146912D01*
X352758Y146799D01*
X352768Y146686D01*
X352782Y146573D01*
X352799Y146461D01*
X352821Y146350D01*
X352846Y146240D01*
X352876Y146130D01*
X352909Y146022D01*
X352946Y145915D01*
X352986Y145809D01*
X353031Y145705D01*
X353079Y145602D01*
X353130Y145501D01*
X353185Y145402D01*
X353243Y145305D01*
X353305Y145210D01*
X353370Y145117D01*
X353438Y145027D01*
X353509Y144939D01*
X353584Y144853D01*
X353661Y144770D01*
X353741Y144690D01*
X353824Y144613D01*
X353910Y144538D01*
X353998Y144467D01*
X354088Y144399D01*
X354181Y144334D01*
X354276Y144272D01*
X354373Y144214D01*
X354472Y144159D01*
X354573Y144108D01*
X354676Y144060D01*
X354780Y144015D01*
X354886Y143975D01*
X354993Y143938D01*
X355101Y143905D01*
X355211Y143875D01*
X355321Y143850D01*
X355432Y143828D01*
X355544Y143811D01*
X355657Y143797D01*
X355770Y143787D01*
X355883Y143781D01*
X355996Y143779D01*
X359242Y143779D01*
X355347Y143779D02*
X352751Y138586D01*
X341395Y147349D02*
X341397Y147456D01*
X341403Y147562D01*
X341413Y147668D01*
X341426Y147774D01*
X341444Y147880D01*
X341465Y147984D01*
X341490Y148088D01*
X341519Y148191D01*
X341551Y148292D01*
X341588Y148392D01*
X341628Y148491D01*
X341671Y148589D01*
X341718Y148685D01*
X341769Y148779D01*
X341823Y148871D01*
X341880Y148961D01*
X341940Y149049D01*
X342004Y149134D01*
X342071Y149217D01*
X342141Y149298D01*
X342213Y149376D01*
X342289Y149452D01*
X342367Y149524D01*
X342448Y149594D01*
X342531Y149661D01*
X342616Y149725D01*
X342704Y149785D01*
X342794Y149842D01*
X342886Y149896D01*
X342980Y149947D01*
X343076Y149994D01*
X343174Y150037D01*
X343273Y150077D01*
X343373Y150114D01*
X343474Y150146D01*
X343577Y150175D01*
X343681Y150200D01*
X343785Y150221D01*
X343891Y150239D01*
X343997Y150252D01*
X344103Y150262D01*
X344209Y150268D01*
X344316Y150270D01*
X344316Y150271D02*
X344437Y150269D01*
X344558Y150263D01*
X344678Y150253D01*
X344799Y150240D01*
X344918Y150222D01*
X345038Y150201D01*
X345156Y150176D01*
X345273Y150147D01*
X345390Y150114D01*
X345505Y150078D01*
X345619Y150037D01*
X345732Y149994D01*
X345844Y149946D01*
X345953Y149895D01*
X346061Y149840D01*
X346168Y149782D01*
X346272Y149721D01*
X346374Y149656D01*
X346474Y149588D01*
X346572Y149517D01*
X346668Y149443D01*
X346761Y149366D01*
X346851Y149285D01*
X346939Y149202D01*
X347024Y149116D01*
X347107Y149027D01*
X347186Y148936D01*
X347263Y148842D01*
X347336Y148746D01*
X347406Y148648D01*
X347473Y148547D01*
X347537Y148444D01*
X347598Y148339D01*
X347655Y148232D01*
X347708Y148124D01*
X347758Y148014D01*
X347804Y147902D01*
X347847Y147789D01*
X347886Y147674D01*
X342369Y145077D02*
X342290Y145155D01*
X342214Y145235D01*
X342141Y145318D01*
X342071Y145404D01*
X342004Y145491D01*
X341940Y145582D01*
X341880Y145674D01*
X341822Y145768D01*
X341768Y145865D01*
X341718Y145963D01*
X341671Y146063D01*
X341627Y146164D01*
X341587Y146267D01*
X341551Y146372D01*
X341519Y146477D01*
X341490Y146584D01*
X341465Y146691D01*
X341443Y146800D01*
X341426Y146909D01*
X341412Y147018D01*
X341403Y147128D01*
X341397Y147239D01*
X341395Y147349D01*
X342368Y145077D02*
X347886Y138586D01*
X341395Y138586D01*
X251156Y138986D02*
X251156Y150670D01*
X247911Y150670D01*
X247911Y150671D02*
X247798Y150669D01*
X247685Y150663D01*
X247572Y150653D01*
X247459Y150639D01*
X247347Y150622D01*
X247236Y150600D01*
X247126Y150575D01*
X247016Y150545D01*
X246908Y150512D01*
X246801Y150475D01*
X246695Y150435D01*
X246591Y150390D01*
X246488Y150342D01*
X246387Y150291D01*
X246288Y150236D01*
X246191Y150178D01*
X246096Y150116D01*
X246003Y150051D01*
X245913Y149983D01*
X245825Y149912D01*
X245739Y149837D01*
X245656Y149760D01*
X245576Y149680D01*
X245499Y149597D01*
X245424Y149511D01*
X245353Y149423D01*
X245285Y149333D01*
X245220Y149240D01*
X245158Y149145D01*
X245100Y149048D01*
X245045Y148949D01*
X244994Y148848D01*
X244946Y148745D01*
X244901Y148641D01*
X244861Y148535D01*
X244824Y148428D01*
X244791Y148320D01*
X244761Y148210D01*
X244736Y148100D01*
X244714Y147989D01*
X244697Y147877D01*
X244683Y147764D01*
X244673Y147651D01*
X244667Y147538D01*
X244665Y147425D01*
X244667Y147312D01*
X244673Y147199D01*
X244683Y147086D01*
X244697Y146973D01*
X244714Y146861D01*
X244736Y146750D01*
X244761Y146640D01*
X244791Y146530D01*
X244824Y146422D01*
X244861Y146315D01*
X244901Y146209D01*
X244946Y146105D01*
X244994Y146002D01*
X245045Y145901D01*
X245100Y145802D01*
X245158Y145705D01*
X245220Y145610D01*
X245285Y145517D01*
X245353Y145427D01*
X245424Y145339D01*
X245499Y145253D01*
X245576Y145170D01*
X245656Y145090D01*
X245739Y145013D01*
X245825Y144938D01*
X245913Y144867D01*
X246003Y144799D01*
X246096Y144734D01*
X246191Y144672D01*
X246288Y144614D01*
X246387Y144559D01*
X246488Y144508D01*
X246591Y144460D01*
X246695Y144415D01*
X246801Y144375D01*
X246908Y144338D01*
X247016Y144305D01*
X247126Y144275D01*
X247236Y144250D01*
X247347Y144228D01*
X247459Y144211D01*
X247572Y144197D01*
X247685Y144187D01*
X247798Y144181D01*
X247911Y144179D01*
X251156Y144179D01*
X247262Y144179D02*
X244665Y138986D01*
X239800Y138986D02*
X236555Y138986D01*
X236442Y138988D01*
X236329Y138994D01*
X236216Y139004D01*
X236103Y139018D01*
X235991Y139035D01*
X235880Y139057D01*
X235770Y139082D01*
X235660Y139112D01*
X235552Y139145D01*
X235445Y139182D01*
X235339Y139222D01*
X235235Y139267D01*
X235132Y139315D01*
X235031Y139366D01*
X234932Y139421D01*
X234835Y139479D01*
X234740Y139541D01*
X234647Y139606D01*
X234557Y139674D01*
X234469Y139745D01*
X234383Y139820D01*
X234300Y139897D01*
X234220Y139977D01*
X234143Y140060D01*
X234068Y140146D01*
X233997Y140234D01*
X233929Y140324D01*
X233864Y140417D01*
X233802Y140512D01*
X233744Y140609D01*
X233689Y140708D01*
X233638Y140809D01*
X233590Y140912D01*
X233545Y141016D01*
X233505Y141122D01*
X233468Y141229D01*
X233435Y141337D01*
X233405Y141447D01*
X233380Y141557D01*
X233358Y141668D01*
X233341Y141780D01*
X233327Y141893D01*
X233317Y142006D01*
X233311Y142119D01*
X233309Y142232D01*
X233311Y142345D01*
X233317Y142458D01*
X233327Y142571D01*
X233341Y142684D01*
X233358Y142796D01*
X233380Y142907D01*
X233405Y143017D01*
X233435Y143127D01*
X233468Y143235D01*
X233505Y143342D01*
X233545Y143448D01*
X233590Y143552D01*
X233638Y143655D01*
X233689Y143756D01*
X233744Y143855D01*
X233802Y143952D01*
X233864Y144047D01*
X233929Y144140D01*
X233997Y144230D01*
X234068Y144318D01*
X234143Y144404D01*
X234220Y144487D01*
X234300Y144567D01*
X234383Y144644D01*
X234469Y144719D01*
X234557Y144790D01*
X234647Y144858D01*
X234740Y144923D01*
X234835Y144985D01*
X234932Y145043D01*
X235031Y145098D01*
X235132Y145149D01*
X235235Y145197D01*
X235339Y145242D01*
X235445Y145282D01*
X235552Y145319D01*
X235660Y145352D01*
X235770Y145382D01*
X235880Y145407D01*
X235991Y145429D01*
X236103Y145446D01*
X236216Y145460D01*
X236329Y145470D01*
X236442Y145476D01*
X236555Y145478D01*
X235905Y150670D02*
X239800Y150670D01*
X235905Y150670D02*
X235804Y150668D01*
X235704Y150662D01*
X235604Y150652D01*
X235504Y150639D01*
X235405Y150621D01*
X235306Y150600D01*
X235209Y150575D01*
X235112Y150546D01*
X235017Y150513D01*
X234923Y150477D01*
X234831Y150437D01*
X234740Y150394D01*
X234651Y150347D01*
X234564Y150297D01*
X234478Y150243D01*
X234395Y150186D01*
X234315Y150126D01*
X234236Y150063D01*
X234160Y149996D01*
X234087Y149927D01*
X234017Y149855D01*
X233949Y149781D01*
X233884Y149704D01*
X233823Y149624D01*
X233764Y149542D01*
X233709Y149458D01*
X233657Y149372D01*
X233608Y149284D01*
X233563Y149194D01*
X233521Y149102D01*
X233483Y149009D01*
X233449Y148914D01*
X233418Y148819D01*
X233391Y148722D01*
X233368Y148624D01*
X233348Y148525D01*
X233333Y148425D01*
X233321Y148325D01*
X233313Y148225D01*
X233309Y148124D01*
X233309Y148024D01*
X233313Y147923D01*
X233321Y147823D01*
X233333Y147723D01*
X233348Y147623D01*
X233368Y147524D01*
X233391Y147426D01*
X233418Y147329D01*
X233449Y147234D01*
X233483Y147139D01*
X233521Y147046D01*
X233563Y146954D01*
X233608Y146864D01*
X233657Y146776D01*
X233709Y146690D01*
X233764Y146606D01*
X233823Y146524D01*
X233884Y146444D01*
X233949Y146367D01*
X234017Y146293D01*
X234087Y146221D01*
X234160Y146152D01*
X234236Y146085D01*
X234315Y146022D01*
X234395Y145962D01*
X234478Y145905D01*
X234564Y145851D01*
X234651Y145801D01*
X234740Y145754D01*
X234831Y145711D01*
X234923Y145671D01*
X235017Y145635D01*
X235112Y145602D01*
X235209Y145573D01*
X235306Y145548D01*
X235405Y145527D01*
X235504Y145509D01*
X235604Y145496D01*
X235704Y145486D01*
X235804Y145480D01*
X235905Y145478D01*
X235905Y145477D02*
X238502Y145477D01*
X124799Y110780D02*
X113115Y110780D01*
X124799Y110780D02*
X124799Y114025D01*
X124800Y114025D02*
X124798Y114138D01*
X124792Y114251D01*
X124782Y114364D01*
X124768Y114477D01*
X124751Y114589D01*
X124729Y114700D01*
X124704Y114810D01*
X124674Y114920D01*
X124641Y115028D01*
X124604Y115135D01*
X124564Y115241D01*
X124519Y115345D01*
X124471Y115448D01*
X124420Y115549D01*
X124365Y115648D01*
X124307Y115745D01*
X124245Y115840D01*
X124180Y115933D01*
X124112Y116023D01*
X124041Y116111D01*
X123966Y116197D01*
X123889Y116280D01*
X123809Y116360D01*
X123726Y116437D01*
X123640Y116512D01*
X123552Y116583D01*
X123462Y116651D01*
X123369Y116716D01*
X123274Y116778D01*
X123177Y116836D01*
X123078Y116891D01*
X122977Y116942D01*
X122874Y116990D01*
X122770Y117035D01*
X122664Y117075D01*
X122557Y117112D01*
X122449Y117145D01*
X122339Y117175D01*
X122229Y117200D01*
X122118Y117222D01*
X122006Y117239D01*
X121893Y117253D01*
X121780Y117263D01*
X121667Y117269D01*
X121554Y117271D01*
X121441Y117269D01*
X121328Y117263D01*
X121215Y117253D01*
X121102Y117239D01*
X120990Y117222D01*
X120879Y117200D01*
X120769Y117175D01*
X120659Y117145D01*
X120551Y117112D01*
X120444Y117075D01*
X120338Y117035D01*
X120234Y116990D01*
X120131Y116942D01*
X120030Y116891D01*
X119931Y116836D01*
X119834Y116778D01*
X119739Y116716D01*
X119646Y116651D01*
X119556Y116583D01*
X119468Y116512D01*
X119382Y116437D01*
X119299Y116360D01*
X119219Y116280D01*
X119142Y116197D01*
X119067Y116111D01*
X118996Y116023D01*
X118928Y115933D01*
X118863Y115840D01*
X118801Y115745D01*
X118743Y115648D01*
X118688Y115549D01*
X118637Y115448D01*
X118589Y115345D01*
X118544Y115241D01*
X118504Y115135D01*
X118467Y115028D01*
X118434Y114920D01*
X118404Y114810D01*
X118379Y114700D01*
X118357Y114589D01*
X118340Y114477D01*
X118326Y114364D01*
X118316Y114251D01*
X118310Y114138D01*
X118308Y114025D01*
X118308Y110780D01*
X118308Y114675D02*
X113115Y117271D01*
X115712Y122136D02*
X124799Y124733D01*
X115712Y122136D02*
X115712Y128627D01*
X118308Y126680D02*
X113115Y126680D01*
X19799Y110780D02*
X8115Y110780D01*
X19799Y110780D02*
X19799Y114025D01*
X19800Y114025D02*
X19798Y114138D01*
X19792Y114251D01*
X19782Y114364D01*
X19768Y114477D01*
X19751Y114589D01*
X19729Y114700D01*
X19704Y114810D01*
X19674Y114920D01*
X19641Y115028D01*
X19604Y115135D01*
X19564Y115241D01*
X19519Y115345D01*
X19471Y115448D01*
X19420Y115549D01*
X19365Y115648D01*
X19307Y115745D01*
X19245Y115840D01*
X19180Y115933D01*
X19112Y116023D01*
X19041Y116111D01*
X18966Y116197D01*
X18889Y116280D01*
X18809Y116360D01*
X18726Y116437D01*
X18640Y116512D01*
X18552Y116583D01*
X18462Y116651D01*
X18369Y116716D01*
X18274Y116778D01*
X18177Y116836D01*
X18078Y116891D01*
X17977Y116942D01*
X17874Y116990D01*
X17770Y117035D01*
X17664Y117075D01*
X17557Y117112D01*
X17449Y117145D01*
X17339Y117175D01*
X17229Y117200D01*
X17118Y117222D01*
X17006Y117239D01*
X16893Y117253D01*
X16780Y117263D01*
X16667Y117269D01*
X16554Y117271D01*
X16441Y117269D01*
X16328Y117263D01*
X16215Y117253D01*
X16102Y117239D01*
X15990Y117222D01*
X15879Y117200D01*
X15769Y117175D01*
X15659Y117145D01*
X15551Y117112D01*
X15444Y117075D01*
X15338Y117035D01*
X15234Y116990D01*
X15131Y116942D01*
X15030Y116891D01*
X14931Y116836D01*
X14834Y116778D01*
X14739Y116716D01*
X14646Y116651D01*
X14556Y116583D01*
X14468Y116512D01*
X14382Y116437D01*
X14299Y116360D01*
X14219Y116280D01*
X14142Y116197D01*
X14067Y116111D01*
X13996Y116023D01*
X13928Y115933D01*
X13863Y115840D01*
X13801Y115745D01*
X13743Y115648D01*
X13688Y115549D01*
X13637Y115448D01*
X13589Y115345D01*
X13544Y115241D01*
X13504Y115135D01*
X13467Y115028D01*
X13434Y114920D01*
X13404Y114810D01*
X13379Y114700D01*
X13357Y114589D01*
X13340Y114477D01*
X13326Y114364D01*
X13316Y114251D01*
X13310Y114138D01*
X13308Y114025D01*
X13308Y110780D01*
X13308Y114675D02*
X8115Y117271D01*
X8115Y122136D02*
X8115Y126031D01*
X8116Y126031D02*
X8118Y126130D01*
X8124Y126230D01*
X8133Y126329D01*
X8146Y126427D01*
X8163Y126525D01*
X8184Y126623D01*
X8209Y126719D01*
X8237Y126814D01*
X8269Y126908D01*
X8304Y127001D01*
X8343Y127093D01*
X8386Y127183D01*
X8431Y127271D01*
X8481Y127358D01*
X8533Y127442D01*
X8589Y127525D01*
X8647Y127605D01*
X8709Y127683D01*
X8774Y127758D01*
X8842Y127831D01*
X8912Y127901D01*
X8985Y127969D01*
X9060Y128034D01*
X9138Y128096D01*
X9218Y128154D01*
X9301Y128210D01*
X9385Y128262D01*
X9472Y128312D01*
X9560Y128357D01*
X9650Y128400D01*
X9742Y128439D01*
X9835Y128474D01*
X9929Y128506D01*
X10024Y128534D01*
X10120Y128559D01*
X10218Y128580D01*
X10316Y128597D01*
X10414Y128610D01*
X10513Y128619D01*
X10613Y128625D01*
X10712Y128627D01*
X12010Y128627D01*
X12109Y128625D01*
X12209Y128619D01*
X12308Y128610D01*
X12406Y128597D01*
X12504Y128580D01*
X12602Y128559D01*
X12698Y128534D01*
X12793Y128506D01*
X12887Y128474D01*
X12980Y128439D01*
X13072Y128400D01*
X13162Y128357D01*
X13250Y128312D01*
X13337Y128262D01*
X13421Y128210D01*
X13504Y128154D01*
X13584Y128096D01*
X13662Y128034D01*
X13737Y127969D01*
X13810Y127901D01*
X13880Y127831D01*
X13948Y127758D01*
X14013Y127683D01*
X14075Y127605D01*
X14133Y127525D01*
X14189Y127442D01*
X14241Y127358D01*
X14291Y127271D01*
X14336Y127183D01*
X14379Y127093D01*
X14418Y127001D01*
X14453Y126908D01*
X14485Y126814D01*
X14513Y126719D01*
X14538Y126623D01*
X14559Y126525D01*
X14576Y126427D01*
X14589Y126329D01*
X14598Y126230D01*
X14604Y126130D01*
X14606Y126031D01*
X14606Y122136D01*
X19799Y122136D01*
X19799Y128627D01*
X450701Y110780D02*
X462385Y110780D01*
X462385Y114025D01*
X462383Y114138D01*
X462377Y114251D01*
X462367Y114364D01*
X462353Y114477D01*
X462336Y114589D01*
X462314Y114700D01*
X462289Y114810D01*
X462259Y114920D01*
X462226Y115028D01*
X462189Y115135D01*
X462149Y115241D01*
X462104Y115345D01*
X462056Y115448D01*
X462005Y115549D01*
X461950Y115648D01*
X461892Y115745D01*
X461830Y115840D01*
X461765Y115933D01*
X461697Y116023D01*
X461626Y116111D01*
X461551Y116197D01*
X461474Y116280D01*
X461394Y116360D01*
X461311Y116437D01*
X461225Y116512D01*
X461137Y116583D01*
X461047Y116651D01*
X460954Y116716D01*
X460859Y116778D01*
X460762Y116836D01*
X460663Y116891D01*
X460562Y116942D01*
X460459Y116990D01*
X460355Y117035D01*
X460249Y117075D01*
X460142Y117112D01*
X460034Y117145D01*
X459924Y117175D01*
X459814Y117200D01*
X459703Y117222D01*
X459591Y117239D01*
X459478Y117253D01*
X459365Y117263D01*
X459252Y117269D01*
X459139Y117271D01*
X459026Y117269D01*
X458913Y117263D01*
X458800Y117253D01*
X458687Y117239D01*
X458575Y117222D01*
X458464Y117200D01*
X458354Y117175D01*
X458244Y117145D01*
X458136Y117112D01*
X458029Y117075D01*
X457923Y117035D01*
X457819Y116990D01*
X457716Y116942D01*
X457615Y116891D01*
X457516Y116836D01*
X457419Y116778D01*
X457324Y116716D01*
X457231Y116651D01*
X457141Y116583D01*
X457053Y116512D01*
X456967Y116437D01*
X456884Y116360D01*
X456804Y116280D01*
X456727Y116197D01*
X456652Y116111D01*
X456581Y116023D01*
X456513Y115933D01*
X456448Y115840D01*
X456386Y115745D01*
X456328Y115648D01*
X456273Y115549D01*
X456222Y115448D01*
X456174Y115345D01*
X456129Y115241D01*
X456089Y115135D01*
X456052Y115028D01*
X456019Y114920D01*
X455989Y114810D01*
X455964Y114700D01*
X455942Y114589D01*
X455925Y114477D01*
X455911Y114364D01*
X455901Y114251D01*
X455895Y114138D01*
X455893Y114025D01*
X455894Y114025D02*
X455894Y110780D01*
X455894Y114675D02*
X450701Y117271D01*
X457192Y122136D02*
X457192Y126031D01*
X457191Y126031D02*
X457189Y126130D01*
X457183Y126230D01*
X457174Y126329D01*
X457161Y126427D01*
X457144Y126525D01*
X457123Y126623D01*
X457098Y126719D01*
X457070Y126814D01*
X457038Y126908D01*
X457003Y127001D01*
X456964Y127093D01*
X456921Y127183D01*
X456876Y127271D01*
X456826Y127358D01*
X456774Y127442D01*
X456718Y127525D01*
X456660Y127605D01*
X456598Y127683D01*
X456533Y127758D01*
X456465Y127831D01*
X456395Y127901D01*
X456322Y127969D01*
X456247Y128034D01*
X456169Y128096D01*
X456089Y128154D01*
X456006Y128210D01*
X455922Y128262D01*
X455835Y128312D01*
X455747Y128357D01*
X455657Y128400D01*
X455565Y128439D01*
X455472Y128474D01*
X455378Y128506D01*
X455283Y128534D01*
X455187Y128559D01*
X455089Y128580D01*
X454991Y128597D01*
X454893Y128610D01*
X454794Y128619D01*
X454694Y128625D01*
X454595Y128627D01*
X453946Y128627D01*
X453946Y128628D02*
X453833Y128626D01*
X453720Y128620D01*
X453607Y128610D01*
X453494Y128596D01*
X453382Y128579D01*
X453271Y128557D01*
X453161Y128532D01*
X453051Y128502D01*
X452943Y128469D01*
X452836Y128432D01*
X452730Y128392D01*
X452626Y128347D01*
X452523Y128299D01*
X452422Y128248D01*
X452323Y128193D01*
X452226Y128135D01*
X452131Y128073D01*
X452038Y128008D01*
X451948Y127940D01*
X451860Y127869D01*
X451774Y127794D01*
X451691Y127717D01*
X451611Y127637D01*
X451534Y127554D01*
X451459Y127468D01*
X451388Y127380D01*
X451320Y127290D01*
X451255Y127197D01*
X451193Y127102D01*
X451135Y127005D01*
X451080Y126906D01*
X451029Y126805D01*
X450981Y126702D01*
X450936Y126598D01*
X450896Y126492D01*
X450859Y126385D01*
X450826Y126277D01*
X450796Y126167D01*
X450771Y126057D01*
X450749Y125946D01*
X450732Y125834D01*
X450718Y125721D01*
X450708Y125608D01*
X450702Y125495D01*
X450700Y125382D01*
X450702Y125269D01*
X450708Y125156D01*
X450718Y125043D01*
X450732Y124930D01*
X450749Y124818D01*
X450771Y124707D01*
X450796Y124597D01*
X450826Y124487D01*
X450859Y124379D01*
X450896Y124272D01*
X450936Y124166D01*
X450981Y124062D01*
X451029Y123959D01*
X451080Y123858D01*
X451135Y123759D01*
X451193Y123662D01*
X451255Y123567D01*
X451320Y123474D01*
X451388Y123384D01*
X451459Y123296D01*
X451534Y123210D01*
X451611Y123127D01*
X451691Y123047D01*
X451774Y122970D01*
X451860Y122895D01*
X451948Y122824D01*
X452038Y122756D01*
X452131Y122691D01*
X452226Y122629D01*
X452323Y122571D01*
X452422Y122516D01*
X452523Y122465D01*
X452626Y122417D01*
X452730Y122372D01*
X452836Y122332D01*
X452943Y122295D01*
X453051Y122262D01*
X453161Y122232D01*
X453271Y122207D01*
X453382Y122185D01*
X453494Y122168D01*
X453607Y122154D01*
X453720Y122144D01*
X453833Y122138D01*
X453946Y122136D01*
X457192Y122136D01*
X457335Y122138D01*
X457478Y122144D01*
X457621Y122154D01*
X457763Y122168D01*
X457905Y122185D01*
X458047Y122207D01*
X458188Y122232D01*
X458328Y122262D01*
X458467Y122295D01*
X458605Y122332D01*
X458742Y122373D01*
X458878Y122417D01*
X459013Y122466D01*
X459146Y122518D01*
X459278Y122573D01*
X459408Y122633D01*
X459537Y122696D01*
X459664Y122762D01*
X459788Y122832D01*
X459911Y122905D01*
X460032Y122982D01*
X460151Y123062D01*
X460267Y123145D01*
X460382Y123231D01*
X460493Y123320D01*
X460603Y123413D01*
X460709Y123508D01*
X460813Y123607D01*
X460914Y123708D01*
X461013Y123812D01*
X461108Y123918D01*
X461201Y124028D01*
X461290Y124139D01*
X461376Y124254D01*
X461459Y124370D01*
X461539Y124489D01*
X461616Y124610D01*
X461689Y124732D01*
X461759Y124857D01*
X461825Y124984D01*
X461888Y125113D01*
X461948Y125243D01*
X462003Y125375D01*
X462055Y125508D01*
X462104Y125643D01*
X462148Y125779D01*
X462189Y125916D01*
X462226Y126054D01*
X462259Y126193D01*
X462289Y126333D01*
X462314Y126474D01*
X462336Y126616D01*
X462353Y126758D01*
X462367Y126900D01*
X462377Y127043D01*
X462383Y127186D01*
X462385Y127329D01*
X34192Y208895D02*
X22508Y208895D01*
X34192Y208895D02*
X34192Y212140D01*
X34190Y212253D01*
X34184Y212366D01*
X34174Y212479D01*
X34160Y212592D01*
X34143Y212704D01*
X34121Y212815D01*
X34096Y212925D01*
X34066Y213035D01*
X34033Y213143D01*
X33996Y213250D01*
X33956Y213356D01*
X33911Y213460D01*
X33863Y213563D01*
X33812Y213664D01*
X33757Y213763D01*
X33699Y213860D01*
X33637Y213955D01*
X33572Y214048D01*
X33504Y214138D01*
X33433Y214226D01*
X33358Y214312D01*
X33281Y214395D01*
X33201Y214475D01*
X33118Y214552D01*
X33032Y214627D01*
X32944Y214698D01*
X32854Y214766D01*
X32761Y214831D01*
X32666Y214893D01*
X32569Y214951D01*
X32470Y215006D01*
X32369Y215057D01*
X32266Y215105D01*
X32162Y215150D01*
X32056Y215190D01*
X31949Y215227D01*
X31841Y215260D01*
X31731Y215290D01*
X31621Y215315D01*
X31510Y215337D01*
X31398Y215354D01*
X31285Y215368D01*
X31172Y215378D01*
X31059Y215384D01*
X30946Y215386D01*
X30833Y215384D01*
X30720Y215378D01*
X30607Y215368D01*
X30494Y215354D01*
X30382Y215337D01*
X30271Y215315D01*
X30161Y215290D01*
X30051Y215260D01*
X29943Y215227D01*
X29836Y215190D01*
X29730Y215150D01*
X29626Y215105D01*
X29523Y215057D01*
X29422Y215006D01*
X29323Y214951D01*
X29226Y214893D01*
X29131Y214831D01*
X29038Y214766D01*
X28948Y214698D01*
X28860Y214627D01*
X28774Y214552D01*
X28691Y214475D01*
X28611Y214395D01*
X28534Y214312D01*
X28459Y214226D01*
X28388Y214138D01*
X28320Y214048D01*
X28255Y213955D01*
X28193Y213860D01*
X28135Y213763D01*
X28080Y213664D01*
X28029Y213563D01*
X27981Y213460D01*
X27936Y213356D01*
X27896Y213250D01*
X27859Y213143D01*
X27826Y213035D01*
X27796Y212925D01*
X27771Y212815D01*
X27749Y212704D01*
X27732Y212592D01*
X27718Y212479D01*
X27708Y212366D01*
X27702Y212253D01*
X27700Y212140D01*
X27701Y212140D02*
X27701Y208895D01*
X27701Y212789D02*
X22508Y215386D01*
X32894Y220251D02*
X34192Y220251D01*
X34192Y226742D01*
X22508Y223496D01*
X901208Y216158D02*
X912892Y216158D01*
X912892Y219404D01*
X912890Y219517D01*
X912884Y219630D01*
X912874Y219743D01*
X912860Y219856D01*
X912843Y219968D01*
X912821Y220079D01*
X912796Y220189D01*
X912766Y220299D01*
X912733Y220407D01*
X912696Y220514D01*
X912656Y220620D01*
X912611Y220724D01*
X912563Y220827D01*
X912512Y220928D01*
X912457Y221027D01*
X912399Y221124D01*
X912337Y221219D01*
X912272Y221312D01*
X912204Y221402D01*
X912133Y221490D01*
X912058Y221576D01*
X911981Y221659D01*
X911901Y221739D01*
X911818Y221816D01*
X911732Y221891D01*
X911644Y221962D01*
X911554Y222030D01*
X911461Y222095D01*
X911366Y222157D01*
X911269Y222215D01*
X911170Y222270D01*
X911069Y222321D01*
X910966Y222369D01*
X910862Y222414D01*
X910756Y222454D01*
X910649Y222491D01*
X910541Y222524D01*
X910431Y222554D01*
X910321Y222579D01*
X910210Y222601D01*
X910098Y222618D01*
X909985Y222632D01*
X909872Y222642D01*
X909759Y222648D01*
X909646Y222650D01*
X909533Y222648D01*
X909420Y222642D01*
X909307Y222632D01*
X909194Y222618D01*
X909082Y222601D01*
X908971Y222579D01*
X908861Y222554D01*
X908751Y222524D01*
X908643Y222491D01*
X908536Y222454D01*
X908430Y222414D01*
X908326Y222369D01*
X908223Y222321D01*
X908122Y222270D01*
X908023Y222215D01*
X907926Y222157D01*
X907831Y222095D01*
X907738Y222030D01*
X907648Y221962D01*
X907560Y221891D01*
X907474Y221816D01*
X907391Y221739D01*
X907311Y221659D01*
X907234Y221576D01*
X907159Y221490D01*
X907088Y221402D01*
X907020Y221312D01*
X906955Y221219D01*
X906893Y221124D01*
X906835Y221027D01*
X906780Y220928D01*
X906729Y220827D01*
X906681Y220724D01*
X906636Y220620D01*
X906596Y220514D01*
X906559Y220407D01*
X906526Y220299D01*
X906496Y220189D01*
X906471Y220079D01*
X906449Y219968D01*
X906432Y219856D01*
X906418Y219743D01*
X906408Y219630D01*
X906402Y219517D01*
X906400Y219404D01*
X906401Y219404D02*
X906401Y216158D01*
X906401Y220053D02*
X901208Y222649D01*
X904454Y227514D02*
X904567Y227516D01*
X904680Y227522D01*
X904793Y227532D01*
X904906Y227546D01*
X905018Y227563D01*
X905129Y227585D01*
X905239Y227610D01*
X905349Y227640D01*
X905457Y227673D01*
X905564Y227710D01*
X905670Y227750D01*
X905774Y227795D01*
X905877Y227843D01*
X905978Y227894D01*
X906077Y227949D01*
X906174Y228007D01*
X906269Y228069D01*
X906362Y228134D01*
X906452Y228202D01*
X906540Y228273D01*
X906626Y228348D01*
X906709Y228425D01*
X906789Y228505D01*
X906866Y228588D01*
X906941Y228674D01*
X907012Y228762D01*
X907080Y228852D01*
X907145Y228945D01*
X907207Y229040D01*
X907265Y229137D01*
X907320Y229236D01*
X907371Y229337D01*
X907419Y229440D01*
X907464Y229544D01*
X907504Y229650D01*
X907541Y229757D01*
X907574Y229865D01*
X907604Y229975D01*
X907629Y230085D01*
X907651Y230196D01*
X907668Y230308D01*
X907682Y230421D01*
X907692Y230534D01*
X907698Y230647D01*
X907700Y230760D01*
X907698Y230873D01*
X907692Y230986D01*
X907682Y231099D01*
X907668Y231212D01*
X907651Y231324D01*
X907629Y231435D01*
X907604Y231545D01*
X907574Y231655D01*
X907541Y231763D01*
X907504Y231870D01*
X907464Y231976D01*
X907419Y232080D01*
X907371Y232183D01*
X907320Y232284D01*
X907265Y232383D01*
X907207Y232480D01*
X907145Y232575D01*
X907080Y232668D01*
X907012Y232758D01*
X906941Y232846D01*
X906866Y232932D01*
X906789Y233015D01*
X906709Y233095D01*
X906626Y233172D01*
X906540Y233247D01*
X906452Y233318D01*
X906362Y233386D01*
X906269Y233451D01*
X906174Y233513D01*
X906077Y233571D01*
X905978Y233626D01*
X905877Y233677D01*
X905774Y233725D01*
X905670Y233770D01*
X905564Y233810D01*
X905457Y233847D01*
X905349Y233880D01*
X905239Y233910D01*
X905129Y233935D01*
X905018Y233957D01*
X904906Y233974D01*
X904793Y233988D01*
X904680Y233998D01*
X904567Y234004D01*
X904454Y234006D01*
X904341Y234004D01*
X904228Y233998D01*
X904115Y233988D01*
X904002Y233974D01*
X903890Y233957D01*
X903779Y233935D01*
X903669Y233910D01*
X903559Y233880D01*
X903451Y233847D01*
X903344Y233810D01*
X903238Y233770D01*
X903134Y233725D01*
X903031Y233677D01*
X902930Y233626D01*
X902831Y233571D01*
X902734Y233513D01*
X902639Y233451D01*
X902546Y233386D01*
X902456Y233318D01*
X902368Y233247D01*
X902282Y233172D01*
X902199Y233095D01*
X902119Y233015D01*
X902042Y232932D01*
X901967Y232846D01*
X901896Y232758D01*
X901828Y232668D01*
X901763Y232575D01*
X901701Y232480D01*
X901643Y232383D01*
X901588Y232284D01*
X901537Y232183D01*
X901489Y232080D01*
X901444Y231976D01*
X901404Y231870D01*
X901367Y231763D01*
X901334Y231655D01*
X901304Y231545D01*
X901279Y231435D01*
X901257Y231324D01*
X901240Y231212D01*
X901226Y231099D01*
X901216Y230986D01*
X901210Y230873D01*
X901208Y230760D01*
X901210Y230647D01*
X901216Y230534D01*
X901226Y230421D01*
X901240Y230308D01*
X901257Y230196D01*
X901279Y230085D01*
X901304Y229975D01*
X901334Y229865D01*
X901367Y229757D01*
X901404Y229650D01*
X901444Y229544D01*
X901489Y229440D01*
X901537Y229337D01*
X901588Y229236D01*
X901643Y229137D01*
X901701Y229040D01*
X901763Y228945D01*
X901828Y228852D01*
X901896Y228762D01*
X901967Y228674D01*
X902042Y228588D01*
X902119Y228505D01*
X902199Y228425D01*
X902282Y228348D01*
X902368Y228273D01*
X902456Y228202D01*
X902546Y228134D01*
X902639Y228069D01*
X902734Y228007D01*
X902831Y227949D01*
X902930Y227894D01*
X903031Y227843D01*
X903134Y227795D01*
X903238Y227750D01*
X903344Y227710D01*
X903451Y227673D01*
X903559Y227640D01*
X903669Y227610D01*
X903779Y227585D01*
X903890Y227563D01*
X904002Y227546D01*
X904115Y227532D01*
X904228Y227522D01*
X904341Y227516D01*
X904454Y227514D01*
X910296Y228164D02*
X910397Y228166D01*
X910497Y228172D01*
X910597Y228182D01*
X910697Y228195D01*
X910796Y228213D01*
X910895Y228234D01*
X910992Y228259D01*
X911089Y228288D01*
X911184Y228321D01*
X911278Y228357D01*
X911370Y228397D01*
X911461Y228440D01*
X911550Y228487D01*
X911637Y228537D01*
X911723Y228591D01*
X911806Y228648D01*
X911886Y228708D01*
X911965Y228771D01*
X912041Y228838D01*
X912114Y228907D01*
X912184Y228979D01*
X912252Y229053D01*
X912317Y229130D01*
X912378Y229210D01*
X912437Y229292D01*
X912492Y229376D01*
X912544Y229462D01*
X912593Y229550D01*
X912638Y229640D01*
X912680Y229732D01*
X912718Y229825D01*
X912752Y229920D01*
X912783Y230015D01*
X912810Y230112D01*
X912833Y230210D01*
X912853Y230309D01*
X912868Y230409D01*
X912880Y230509D01*
X912888Y230609D01*
X912892Y230710D01*
X912892Y230810D01*
X912888Y230911D01*
X912880Y231011D01*
X912868Y231111D01*
X912853Y231211D01*
X912833Y231310D01*
X912810Y231408D01*
X912783Y231505D01*
X912752Y231600D01*
X912718Y231695D01*
X912680Y231788D01*
X912638Y231880D01*
X912593Y231970D01*
X912544Y232058D01*
X912492Y232144D01*
X912437Y232228D01*
X912378Y232310D01*
X912317Y232390D01*
X912252Y232467D01*
X912184Y232541D01*
X912114Y232613D01*
X912041Y232682D01*
X911965Y232749D01*
X911886Y232812D01*
X911806Y232872D01*
X911723Y232929D01*
X911637Y232983D01*
X911550Y233033D01*
X911461Y233080D01*
X911370Y233123D01*
X911278Y233163D01*
X911184Y233199D01*
X911089Y233232D01*
X910992Y233261D01*
X910895Y233286D01*
X910796Y233307D01*
X910697Y233325D01*
X910597Y233338D01*
X910497Y233348D01*
X910397Y233354D01*
X910296Y233356D01*
X910195Y233354D01*
X910095Y233348D01*
X909995Y233338D01*
X909895Y233325D01*
X909796Y233307D01*
X909697Y233286D01*
X909600Y233261D01*
X909503Y233232D01*
X909408Y233199D01*
X909314Y233163D01*
X909222Y233123D01*
X909131Y233080D01*
X909042Y233033D01*
X908955Y232983D01*
X908869Y232929D01*
X908786Y232872D01*
X908706Y232812D01*
X908627Y232749D01*
X908551Y232682D01*
X908478Y232613D01*
X908408Y232541D01*
X908340Y232467D01*
X908275Y232390D01*
X908214Y232310D01*
X908155Y232228D01*
X908100Y232144D01*
X908048Y232058D01*
X907999Y231970D01*
X907954Y231880D01*
X907912Y231788D01*
X907874Y231695D01*
X907840Y231600D01*
X907809Y231505D01*
X907782Y231408D01*
X907759Y231310D01*
X907739Y231211D01*
X907724Y231111D01*
X907712Y231011D01*
X907704Y230911D01*
X907700Y230810D01*
X907700Y230710D01*
X907704Y230609D01*
X907712Y230509D01*
X907724Y230409D01*
X907739Y230309D01*
X907759Y230210D01*
X907782Y230112D01*
X907809Y230015D01*
X907840Y229920D01*
X907874Y229825D01*
X907912Y229732D01*
X907954Y229640D01*
X907999Y229550D01*
X908048Y229462D01*
X908100Y229376D01*
X908155Y229292D01*
X908214Y229210D01*
X908275Y229130D01*
X908340Y229053D01*
X908408Y228979D01*
X908478Y228907D01*
X908551Y228838D01*
X908627Y228771D01*
X908706Y228708D01*
X908786Y228648D01*
X908869Y228591D01*
X908955Y228537D01*
X909042Y228487D01*
X909131Y228440D01*
X909222Y228397D01*
X909314Y228357D01*
X909408Y228321D01*
X909503Y228288D01*
X909600Y228259D01*
X909697Y228234D01*
X909796Y228213D01*
X909895Y228195D01*
X909995Y228182D01*
X910095Y228172D01*
X910195Y228166D01*
X910296Y228164D01*
X640892Y216158D02*
X629208Y216158D01*
X640892Y216158D02*
X640892Y219404D01*
X640890Y219517D01*
X640884Y219630D01*
X640874Y219743D01*
X640860Y219856D01*
X640843Y219968D01*
X640821Y220079D01*
X640796Y220189D01*
X640766Y220299D01*
X640733Y220407D01*
X640696Y220514D01*
X640656Y220620D01*
X640611Y220724D01*
X640563Y220827D01*
X640512Y220928D01*
X640457Y221027D01*
X640399Y221124D01*
X640337Y221219D01*
X640272Y221312D01*
X640204Y221402D01*
X640133Y221490D01*
X640058Y221576D01*
X639981Y221659D01*
X639901Y221739D01*
X639818Y221816D01*
X639732Y221891D01*
X639644Y221962D01*
X639554Y222030D01*
X639461Y222095D01*
X639366Y222157D01*
X639269Y222215D01*
X639170Y222270D01*
X639069Y222321D01*
X638966Y222369D01*
X638862Y222414D01*
X638756Y222454D01*
X638649Y222491D01*
X638541Y222524D01*
X638431Y222554D01*
X638321Y222579D01*
X638210Y222601D01*
X638098Y222618D01*
X637985Y222632D01*
X637872Y222642D01*
X637759Y222648D01*
X637646Y222650D01*
X637533Y222648D01*
X637420Y222642D01*
X637307Y222632D01*
X637194Y222618D01*
X637082Y222601D01*
X636971Y222579D01*
X636861Y222554D01*
X636751Y222524D01*
X636643Y222491D01*
X636536Y222454D01*
X636430Y222414D01*
X636326Y222369D01*
X636223Y222321D01*
X636122Y222270D01*
X636023Y222215D01*
X635926Y222157D01*
X635831Y222095D01*
X635738Y222030D01*
X635648Y221962D01*
X635560Y221891D01*
X635474Y221816D01*
X635391Y221739D01*
X635311Y221659D01*
X635234Y221576D01*
X635159Y221490D01*
X635088Y221402D01*
X635020Y221312D01*
X634955Y221219D01*
X634893Y221124D01*
X634835Y221027D01*
X634780Y220928D01*
X634729Y220827D01*
X634681Y220724D01*
X634636Y220620D01*
X634596Y220514D01*
X634559Y220407D01*
X634526Y220299D01*
X634496Y220189D01*
X634471Y220079D01*
X634449Y219968D01*
X634432Y219856D01*
X634418Y219743D01*
X634408Y219630D01*
X634402Y219517D01*
X634400Y219404D01*
X634401Y219404D02*
X634401Y216158D01*
X634401Y220053D02*
X629208Y222649D01*
X634401Y230111D02*
X634401Y234005D01*
X634401Y230111D02*
X634403Y230012D01*
X634409Y229912D01*
X634418Y229813D01*
X634431Y229715D01*
X634448Y229617D01*
X634469Y229519D01*
X634494Y229423D01*
X634522Y229328D01*
X634554Y229234D01*
X634589Y229141D01*
X634628Y229049D01*
X634671Y228959D01*
X634716Y228871D01*
X634766Y228784D01*
X634818Y228700D01*
X634874Y228617D01*
X634932Y228537D01*
X634994Y228459D01*
X635059Y228384D01*
X635127Y228311D01*
X635197Y228241D01*
X635270Y228173D01*
X635345Y228108D01*
X635423Y228046D01*
X635503Y227988D01*
X635586Y227932D01*
X635670Y227880D01*
X635757Y227830D01*
X635845Y227785D01*
X635935Y227742D01*
X636027Y227703D01*
X636120Y227668D01*
X636214Y227636D01*
X636309Y227608D01*
X636405Y227583D01*
X636503Y227562D01*
X636601Y227545D01*
X636699Y227532D01*
X636798Y227523D01*
X636898Y227517D01*
X636997Y227515D01*
X636997Y227514D02*
X637646Y227514D01*
X637759Y227516D01*
X637872Y227522D01*
X637985Y227532D01*
X638098Y227546D01*
X638210Y227563D01*
X638321Y227585D01*
X638431Y227610D01*
X638541Y227640D01*
X638649Y227673D01*
X638756Y227710D01*
X638862Y227750D01*
X638966Y227795D01*
X639069Y227843D01*
X639170Y227894D01*
X639269Y227949D01*
X639366Y228007D01*
X639461Y228069D01*
X639554Y228134D01*
X639644Y228202D01*
X639732Y228273D01*
X639818Y228348D01*
X639901Y228425D01*
X639981Y228505D01*
X640058Y228588D01*
X640133Y228674D01*
X640204Y228762D01*
X640272Y228852D01*
X640337Y228945D01*
X640399Y229040D01*
X640457Y229137D01*
X640512Y229236D01*
X640563Y229337D01*
X640611Y229440D01*
X640656Y229544D01*
X640696Y229650D01*
X640733Y229757D01*
X640766Y229865D01*
X640796Y229975D01*
X640821Y230085D01*
X640843Y230196D01*
X640860Y230308D01*
X640874Y230421D01*
X640884Y230534D01*
X640890Y230647D01*
X640892Y230760D01*
X640890Y230873D01*
X640884Y230986D01*
X640874Y231099D01*
X640860Y231212D01*
X640843Y231324D01*
X640821Y231435D01*
X640796Y231545D01*
X640766Y231655D01*
X640733Y231763D01*
X640696Y231870D01*
X640656Y231976D01*
X640611Y232080D01*
X640563Y232183D01*
X640512Y232284D01*
X640457Y232383D01*
X640399Y232480D01*
X640337Y232575D01*
X640272Y232668D01*
X640204Y232758D01*
X640133Y232846D01*
X640058Y232932D01*
X639981Y233015D01*
X639901Y233095D01*
X639818Y233172D01*
X639732Y233247D01*
X639644Y233318D01*
X639554Y233386D01*
X639461Y233451D01*
X639366Y233513D01*
X639269Y233571D01*
X639170Y233626D01*
X639069Y233677D01*
X638966Y233725D01*
X638862Y233770D01*
X638756Y233810D01*
X638649Y233847D01*
X638541Y233880D01*
X638431Y233910D01*
X638321Y233935D01*
X638210Y233957D01*
X638098Y233974D01*
X637985Y233988D01*
X637872Y233998D01*
X637759Y234004D01*
X637646Y234006D01*
X637646Y234005D02*
X634401Y234005D01*
X634401Y234006D02*
X634258Y234004D01*
X634115Y233998D01*
X633972Y233988D01*
X633830Y233974D01*
X633688Y233957D01*
X633546Y233935D01*
X633405Y233910D01*
X633265Y233880D01*
X633126Y233847D01*
X632988Y233810D01*
X632851Y233769D01*
X632715Y233725D01*
X632580Y233676D01*
X632447Y233624D01*
X632315Y233569D01*
X632185Y233509D01*
X632056Y233446D01*
X631929Y233380D01*
X631805Y233310D01*
X631682Y233237D01*
X631561Y233160D01*
X631442Y233080D01*
X631326Y232997D01*
X631211Y232911D01*
X631100Y232822D01*
X630990Y232729D01*
X630884Y232634D01*
X630780Y232535D01*
X630679Y232434D01*
X630580Y232330D01*
X630485Y232224D01*
X630392Y232114D01*
X630303Y232003D01*
X630217Y231888D01*
X630134Y231772D01*
X630054Y231653D01*
X629977Y231532D01*
X629904Y231410D01*
X629834Y231285D01*
X629768Y231158D01*
X629705Y231029D01*
X629645Y230899D01*
X629590Y230767D01*
X629538Y230634D01*
X629489Y230499D01*
X629445Y230363D01*
X629404Y230226D01*
X629367Y230088D01*
X629334Y229949D01*
X629304Y229809D01*
X629279Y229668D01*
X629257Y229526D01*
X629240Y229384D01*
X629226Y229242D01*
X629216Y229099D01*
X629210Y228956D01*
X629208Y228813D01*
X85792Y187465D02*
X74108Y187465D01*
X85792Y187465D02*
X85792Y190710D01*
X85790Y190823D01*
X85784Y190936D01*
X85774Y191049D01*
X85760Y191162D01*
X85743Y191274D01*
X85721Y191385D01*
X85696Y191495D01*
X85666Y191605D01*
X85633Y191713D01*
X85596Y191820D01*
X85556Y191926D01*
X85511Y192030D01*
X85463Y192133D01*
X85412Y192234D01*
X85357Y192333D01*
X85299Y192430D01*
X85237Y192525D01*
X85172Y192618D01*
X85104Y192708D01*
X85033Y192796D01*
X84958Y192882D01*
X84881Y192965D01*
X84801Y193045D01*
X84718Y193122D01*
X84632Y193197D01*
X84544Y193268D01*
X84454Y193336D01*
X84361Y193401D01*
X84266Y193463D01*
X84169Y193521D01*
X84070Y193576D01*
X83969Y193627D01*
X83866Y193675D01*
X83762Y193720D01*
X83656Y193760D01*
X83549Y193797D01*
X83441Y193830D01*
X83331Y193860D01*
X83221Y193885D01*
X83110Y193907D01*
X82998Y193924D01*
X82885Y193938D01*
X82772Y193948D01*
X82659Y193954D01*
X82546Y193956D01*
X82433Y193954D01*
X82320Y193948D01*
X82207Y193938D01*
X82094Y193924D01*
X81982Y193907D01*
X81871Y193885D01*
X81761Y193860D01*
X81651Y193830D01*
X81543Y193797D01*
X81436Y193760D01*
X81330Y193720D01*
X81226Y193675D01*
X81123Y193627D01*
X81022Y193576D01*
X80923Y193521D01*
X80826Y193463D01*
X80731Y193401D01*
X80638Y193336D01*
X80548Y193268D01*
X80460Y193197D01*
X80374Y193122D01*
X80291Y193045D01*
X80211Y192965D01*
X80134Y192882D01*
X80059Y192796D01*
X79988Y192708D01*
X79920Y192618D01*
X79855Y192525D01*
X79793Y192430D01*
X79735Y192333D01*
X79680Y192234D01*
X79629Y192133D01*
X79581Y192030D01*
X79536Y191926D01*
X79496Y191820D01*
X79459Y191713D01*
X79426Y191605D01*
X79396Y191495D01*
X79371Y191385D01*
X79349Y191274D01*
X79332Y191162D01*
X79318Y191049D01*
X79308Y190936D01*
X79302Y190823D01*
X79300Y190710D01*
X79301Y190710D02*
X79301Y187465D01*
X79301Y191359D02*
X74108Y193956D01*
X83196Y198821D02*
X85792Y202066D01*
X74108Y202066D01*
X74108Y198821D02*
X74108Y205312D01*
X79950Y210251D02*
X80180Y210254D01*
X80410Y210262D01*
X80639Y210276D01*
X80868Y210295D01*
X81097Y210320D01*
X81324Y210350D01*
X81552Y210385D01*
X81778Y210426D01*
X82003Y210472D01*
X82227Y210524D01*
X82449Y210581D01*
X82671Y210643D01*
X82890Y210711D01*
X83108Y210784D01*
X83325Y210862D01*
X83539Y210945D01*
X83751Y211033D01*
X83961Y211126D01*
X84169Y211225D01*
X84169Y211224D02*
X84259Y211257D01*
X84348Y211293D01*
X84436Y211333D01*
X84521Y211377D01*
X84605Y211424D01*
X84687Y211474D01*
X84767Y211528D01*
X84844Y211584D01*
X84920Y211644D01*
X84993Y211707D01*
X85063Y211772D01*
X85131Y211841D01*
X85195Y211912D01*
X85257Y211985D01*
X85316Y212061D01*
X85372Y212139D01*
X85425Y212220D01*
X85474Y212302D01*
X85520Y212386D01*
X85563Y212473D01*
X85602Y212560D01*
X85638Y212650D01*
X85670Y212740D01*
X85698Y212832D01*
X85723Y212925D01*
X85744Y213019D01*
X85761Y213113D01*
X85775Y213208D01*
X85784Y213304D01*
X85790Y213400D01*
X85792Y213496D01*
X85790Y213592D01*
X85784Y213688D01*
X85775Y213784D01*
X85761Y213879D01*
X85744Y213973D01*
X85723Y214067D01*
X85698Y214160D01*
X85670Y214252D01*
X85638Y214342D01*
X85602Y214432D01*
X85563Y214519D01*
X85520Y214606D01*
X85474Y214690D01*
X85425Y214772D01*
X85372Y214853D01*
X85316Y214931D01*
X85257Y215007D01*
X85195Y215080D01*
X85131Y215151D01*
X85063Y215220D01*
X84993Y215285D01*
X84920Y215348D01*
X84844Y215408D01*
X84767Y215464D01*
X84687Y215518D01*
X84605Y215568D01*
X84521Y215615D01*
X84436Y215659D01*
X84348Y215699D01*
X84259Y215735D01*
X84169Y215768D01*
X84169Y215769D02*
X83962Y215868D01*
X83752Y215961D01*
X83539Y216049D01*
X83325Y216132D01*
X83109Y216210D01*
X82891Y216283D01*
X82671Y216351D01*
X82450Y216413D01*
X82227Y216470D01*
X82003Y216522D01*
X81778Y216568D01*
X81552Y216609D01*
X81325Y216644D01*
X81097Y216674D01*
X80868Y216699D01*
X80639Y216718D01*
X80410Y216732D01*
X80180Y216740D01*
X79950Y216743D01*
X79950Y210251D02*
X79720Y210254D01*
X79490Y210262D01*
X79261Y210276D01*
X79032Y210295D01*
X78803Y210320D01*
X78575Y210350D01*
X78348Y210385D01*
X78122Y210426D01*
X77897Y210472D01*
X77673Y210524D01*
X77450Y210581D01*
X77229Y210643D01*
X77009Y210711D01*
X76791Y210784D01*
X76575Y210862D01*
X76361Y210945D01*
X76149Y211033D01*
X75938Y211126D01*
X75731Y211225D01*
X75731Y211224D02*
X75641Y211257D01*
X75552Y211293D01*
X75464Y211334D01*
X75379Y211377D01*
X75295Y211424D01*
X75213Y211474D01*
X75133Y211528D01*
X75056Y211584D01*
X74980Y211644D01*
X74907Y211707D01*
X74837Y211772D01*
X74769Y211841D01*
X74705Y211912D01*
X74643Y211985D01*
X74584Y212061D01*
X74528Y212139D01*
X74475Y212220D01*
X74426Y212302D01*
X74380Y212386D01*
X74337Y212473D01*
X74298Y212560D01*
X74262Y212650D01*
X74230Y212740D01*
X74202Y212832D01*
X74177Y212925D01*
X74156Y213019D01*
X74139Y213113D01*
X74125Y213208D01*
X74116Y213304D01*
X74110Y213400D01*
X74108Y213496D01*
X75731Y215768D02*
X75938Y215867D01*
X76149Y215960D01*
X76361Y216048D01*
X76575Y216131D01*
X76791Y216209D01*
X77009Y216282D01*
X77229Y216350D01*
X77450Y216412D01*
X77673Y216469D01*
X77897Y216521D01*
X78122Y216567D01*
X78348Y216608D01*
X78575Y216643D01*
X78803Y216673D01*
X79032Y216698D01*
X79261Y216717D01*
X79490Y216731D01*
X79720Y216739D01*
X79950Y216742D01*
X75731Y215768D02*
X75641Y215735D01*
X75552Y215699D01*
X75464Y215659D01*
X75379Y215615D01*
X75295Y215568D01*
X75213Y215518D01*
X75133Y215464D01*
X75056Y215408D01*
X74980Y215348D01*
X74907Y215285D01*
X74837Y215220D01*
X74769Y215151D01*
X74705Y215080D01*
X74643Y215007D01*
X74584Y214931D01*
X74528Y214853D01*
X74475Y214772D01*
X74426Y214690D01*
X74380Y214606D01*
X74337Y214519D01*
X74298Y214432D01*
X74262Y214342D01*
X74230Y214252D01*
X74202Y214160D01*
X74177Y214067D01*
X74156Y213973D01*
X74139Y213879D01*
X74125Y213784D01*
X74116Y213688D01*
X74110Y213592D01*
X74108Y213496D01*
X76704Y210900D02*
X83196Y216093D01*
D11*
X1104500Y51800D02*
X1104500Y42200D01*
X1121500Y42200D02*
X1121500Y51800D01*
D12*
X1112000Y74500D02*
X1112002Y74563D01*
X1112008Y74625D01*
X1112018Y74687D01*
X1112031Y74749D01*
X1112049Y74809D01*
X1112070Y74868D01*
X1112095Y74926D01*
X1112124Y74982D01*
X1112156Y75036D01*
X1112191Y75088D01*
X1112229Y75137D01*
X1112271Y75185D01*
X1112315Y75229D01*
X1112363Y75271D01*
X1112412Y75309D01*
X1112464Y75344D01*
X1112518Y75376D01*
X1112574Y75405D01*
X1112632Y75430D01*
X1112691Y75451D01*
X1112751Y75469D01*
X1112813Y75482D01*
X1112875Y75492D01*
X1112937Y75498D01*
X1113000Y75500D01*
X1113063Y75498D01*
X1113125Y75492D01*
X1113187Y75482D01*
X1113249Y75469D01*
X1113309Y75451D01*
X1113368Y75430D01*
X1113426Y75405D01*
X1113482Y75376D01*
X1113536Y75344D01*
X1113588Y75309D01*
X1113637Y75271D01*
X1113685Y75229D01*
X1113729Y75185D01*
X1113771Y75137D01*
X1113809Y75088D01*
X1113844Y75036D01*
X1113876Y74982D01*
X1113905Y74926D01*
X1113930Y74868D01*
X1113951Y74809D01*
X1113969Y74749D01*
X1113982Y74687D01*
X1113992Y74625D01*
X1113998Y74563D01*
X1114000Y74500D01*
X1113998Y74437D01*
X1113992Y74375D01*
X1113982Y74313D01*
X1113969Y74251D01*
X1113951Y74191D01*
X1113930Y74132D01*
X1113905Y74074D01*
X1113876Y74018D01*
X1113844Y73964D01*
X1113809Y73912D01*
X1113771Y73863D01*
X1113729Y73815D01*
X1113685Y73771D01*
X1113637Y73729D01*
X1113588Y73691D01*
X1113536Y73656D01*
X1113482Y73624D01*
X1113426Y73595D01*
X1113368Y73570D01*
X1113309Y73549D01*
X1113249Y73531D01*
X1113187Y73518D01*
X1113125Y73508D01*
X1113063Y73502D01*
X1113000Y73500D01*
X1112937Y73502D01*
X1112875Y73508D01*
X1112813Y73518D01*
X1112751Y73531D01*
X1112691Y73549D01*
X1112632Y73570D01*
X1112574Y73595D01*
X1112518Y73624D01*
X1112464Y73656D01*
X1112412Y73691D01*
X1112363Y73729D01*
X1112315Y73771D01*
X1112271Y73815D01*
X1112229Y73863D01*
X1112191Y73912D01*
X1112156Y73964D01*
X1112124Y74018D01*
X1112095Y74074D01*
X1112070Y74132D01*
X1112049Y74191D01*
X1112031Y74251D01*
X1112018Y74313D01*
X1112008Y74375D01*
X1112002Y74437D01*
X1112000Y74500D01*
D13*
X1099119Y54449D02*
X1089721Y54449D01*
X1099119Y54449D02*
X1099119Y57060D01*
X1099117Y57160D01*
X1099111Y57260D01*
X1099102Y57359D01*
X1099088Y57459D01*
X1099071Y57557D01*
X1099050Y57655D01*
X1099026Y57752D01*
X1098997Y57848D01*
X1098965Y57943D01*
X1098930Y58036D01*
X1098891Y58128D01*
X1098848Y58219D01*
X1098802Y58307D01*
X1098752Y58394D01*
X1098700Y58479D01*
X1098644Y58562D01*
X1098585Y58643D01*
X1098522Y58721D01*
X1098457Y58797D01*
X1098389Y58871D01*
X1098319Y58941D01*
X1098245Y59009D01*
X1098169Y59074D01*
X1098091Y59137D01*
X1098010Y59196D01*
X1097927Y59252D01*
X1097842Y59304D01*
X1097755Y59354D01*
X1097667Y59400D01*
X1097576Y59443D01*
X1097484Y59482D01*
X1097391Y59517D01*
X1097296Y59549D01*
X1097200Y59578D01*
X1097103Y59602D01*
X1097005Y59623D01*
X1096907Y59640D01*
X1096807Y59654D01*
X1096708Y59663D01*
X1096608Y59669D01*
X1096508Y59671D01*
X1096508Y59670D02*
X1092332Y59670D01*
X1092332Y59671D02*
X1092232Y59669D01*
X1092132Y59663D01*
X1092033Y59654D01*
X1091933Y59640D01*
X1091835Y59623D01*
X1091737Y59602D01*
X1091640Y59578D01*
X1091544Y59549D01*
X1091449Y59517D01*
X1091356Y59482D01*
X1091264Y59443D01*
X1091173Y59400D01*
X1091085Y59354D01*
X1090998Y59304D01*
X1090913Y59252D01*
X1090830Y59196D01*
X1090749Y59137D01*
X1090671Y59074D01*
X1090595Y59009D01*
X1090521Y58941D01*
X1090451Y58871D01*
X1090383Y58797D01*
X1090318Y58721D01*
X1090255Y58643D01*
X1090196Y58562D01*
X1090140Y58479D01*
X1090088Y58394D01*
X1090038Y58307D01*
X1089992Y58219D01*
X1089949Y58128D01*
X1089910Y58036D01*
X1089875Y57943D01*
X1089843Y57848D01*
X1089814Y57752D01*
X1089790Y57655D01*
X1089769Y57557D01*
X1089752Y57459D01*
X1089738Y57359D01*
X1089729Y57260D01*
X1089723Y57160D01*
X1089721Y57060D01*
X1089721Y54449D01*
X1097031Y63898D02*
X1099119Y66508D01*
X1089721Y66508D01*
X1089721Y63898D02*
X1089721Y69119D01*
D11*
X834500Y51800D02*
X834500Y42200D01*
X851500Y42200D02*
X851500Y51800D01*
D12*
X842000Y74500D02*
X842002Y74563D01*
X842008Y74625D01*
X842018Y74687D01*
X842031Y74749D01*
X842049Y74809D01*
X842070Y74868D01*
X842095Y74926D01*
X842124Y74982D01*
X842156Y75036D01*
X842191Y75088D01*
X842229Y75137D01*
X842271Y75185D01*
X842315Y75229D01*
X842363Y75271D01*
X842412Y75309D01*
X842464Y75344D01*
X842518Y75376D01*
X842574Y75405D01*
X842632Y75430D01*
X842691Y75451D01*
X842751Y75469D01*
X842813Y75482D01*
X842875Y75492D01*
X842937Y75498D01*
X843000Y75500D01*
X843063Y75498D01*
X843125Y75492D01*
X843187Y75482D01*
X843249Y75469D01*
X843309Y75451D01*
X843368Y75430D01*
X843426Y75405D01*
X843482Y75376D01*
X843536Y75344D01*
X843588Y75309D01*
X843637Y75271D01*
X843685Y75229D01*
X843729Y75185D01*
X843771Y75137D01*
X843809Y75088D01*
X843844Y75036D01*
X843876Y74982D01*
X843905Y74926D01*
X843930Y74868D01*
X843951Y74809D01*
X843969Y74749D01*
X843982Y74687D01*
X843992Y74625D01*
X843998Y74563D01*
X844000Y74500D01*
X843998Y74437D01*
X843992Y74375D01*
X843982Y74313D01*
X843969Y74251D01*
X843951Y74191D01*
X843930Y74132D01*
X843905Y74074D01*
X843876Y74018D01*
X843844Y73964D01*
X843809Y73912D01*
X843771Y73863D01*
X843729Y73815D01*
X843685Y73771D01*
X843637Y73729D01*
X843588Y73691D01*
X843536Y73656D01*
X843482Y73624D01*
X843426Y73595D01*
X843368Y73570D01*
X843309Y73549D01*
X843249Y73531D01*
X843187Y73518D01*
X843125Y73508D01*
X843063Y73502D01*
X843000Y73500D01*
X842937Y73502D01*
X842875Y73508D01*
X842813Y73518D01*
X842751Y73531D01*
X842691Y73549D01*
X842632Y73570D01*
X842574Y73595D01*
X842518Y73624D01*
X842464Y73656D01*
X842412Y73691D01*
X842363Y73729D01*
X842315Y73771D01*
X842271Y73815D01*
X842229Y73863D01*
X842191Y73912D01*
X842156Y73964D01*
X842124Y74018D01*
X842095Y74074D01*
X842070Y74132D01*
X842049Y74191D01*
X842031Y74251D01*
X842018Y74313D01*
X842008Y74375D01*
X842002Y74437D01*
X842000Y74500D01*
D13*
X829119Y54449D02*
X819721Y54449D01*
X829119Y54449D02*
X829119Y57060D01*
X829117Y57160D01*
X829111Y57260D01*
X829102Y57359D01*
X829088Y57459D01*
X829071Y57557D01*
X829050Y57655D01*
X829026Y57752D01*
X828997Y57848D01*
X828965Y57943D01*
X828930Y58036D01*
X828891Y58128D01*
X828848Y58219D01*
X828802Y58307D01*
X828752Y58394D01*
X828700Y58479D01*
X828644Y58562D01*
X828585Y58643D01*
X828522Y58721D01*
X828457Y58797D01*
X828389Y58871D01*
X828319Y58941D01*
X828245Y59009D01*
X828169Y59074D01*
X828091Y59137D01*
X828010Y59196D01*
X827927Y59252D01*
X827842Y59304D01*
X827755Y59354D01*
X827667Y59400D01*
X827576Y59443D01*
X827484Y59482D01*
X827391Y59517D01*
X827296Y59549D01*
X827200Y59578D01*
X827103Y59602D01*
X827005Y59623D01*
X826907Y59640D01*
X826807Y59654D01*
X826708Y59663D01*
X826608Y59669D01*
X826508Y59671D01*
X826508Y59670D02*
X822332Y59670D01*
X822332Y59671D02*
X822232Y59669D01*
X822132Y59663D01*
X822033Y59654D01*
X821933Y59640D01*
X821835Y59623D01*
X821737Y59602D01*
X821640Y59578D01*
X821544Y59549D01*
X821449Y59517D01*
X821356Y59482D01*
X821264Y59443D01*
X821173Y59400D01*
X821085Y59354D01*
X820998Y59304D01*
X820913Y59252D01*
X820830Y59196D01*
X820749Y59137D01*
X820671Y59074D01*
X820595Y59009D01*
X820521Y58941D01*
X820451Y58871D01*
X820383Y58797D01*
X820318Y58721D01*
X820255Y58643D01*
X820196Y58562D01*
X820140Y58479D01*
X820088Y58394D01*
X820038Y58307D01*
X819992Y58219D01*
X819949Y58128D01*
X819910Y58036D01*
X819875Y57943D01*
X819843Y57848D01*
X819814Y57752D01*
X819790Y57655D01*
X819769Y57557D01*
X819752Y57459D01*
X819738Y57359D01*
X819729Y57260D01*
X819723Y57160D01*
X819721Y57060D01*
X819721Y54449D01*
X829120Y66770D02*
X829118Y66865D01*
X829112Y66959D01*
X829103Y67053D01*
X829090Y67147D01*
X829073Y67240D01*
X829052Y67332D01*
X829027Y67424D01*
X828999Y67514D01*
X828967Y67603D01*
X828932Y67691D01*
X828893Y67777D01*
X828851Y67862D01*
X828805Y67945D01*
X828756Y68026D01*
X828704Y68105D01*
X828649Y68182D01*
X828590Y68256D01*
X828529Y68328D01*
X828465Y68398D01*
X828398Y68465D01*
X828328Y68529D01*
X828256Y68590D01*
X828182Y68649D01*
X828105Y68704D01*
X828026Y68756D01*
X827945Y68805D01*
X827862Y68851D01*
X827777Y68893D01*
X827691Y68932D01*
X827603Y68967D01*
X827514Y68999D01*
X827424Y69027D01*
X827332Y69052D01*
X827240Y69073D01*
X827147Y69090D01*
X827053Y69103D01*
X826959Y69112D01*
X826865Y69118D01*
X826770Y69120D01*
X829119Y66770D02*
X829117Y66662D01*
X829111Y66553D01*
X829101Y66445D01*
X829088Y66338D01*
X829070Y66231D01*
X829049Y66124D01*
X829024Y66019D01*
X828995Y65914D01*
X828963Y65811D01*
X828926Y65709D01*
X828886Y65608D01*
X828843Y65509D01*
X828796Y65411D01*
X828745Y65315D01*
X828691Y65221D01*
X828634Y65129D01*
X828573Y65039D01*
X828509Y64951D01*
X828443Y64866D01*
X828373Y64783D01*
X828300Y64703D01*
X828224Y64625D01*
X828146Y64550D01*
X828065Y64478D01*
X827981Y64409D01*
X827895Y64343D01*
X827807Y64280D01*
X827716Y64221D01*
X827624Y64164D01*
X827529Y64111D01*
X827433Y64062D01*
X827334Y64016D01*
X827235Y63973D01*
X827133Y63934D01*
X827031Y63899D01*
X824942Y68336D02*
X825011Y68405D01*
X825082Y68471D01*
X825155Y68535D01*
X825231Y68596D01*
X825310Y68654D01*
X825390Y68708D01*
X825473Y68760D01*
X825557Y68808D01*
X825643Y68854D01*
X825731Y68895D01*
X825821Y68934D01*
X825912Y68969D01*
X826004Y69000D01*
X826097Y69028D01*
X826191Y69052D01*
X826286Y69072D01*
X826382Y69089D01*
X826479Y69102D01*
X826576Y69111D01*
X826673Y69117D01*
X826770Y69119D01*
X824942Y68336D02*
X819721Y63898D01*
X819721Y69119D01*
D10*
X1006842Y63892D02*
X1006842Y52208D01*
X1006842Y63892D02*
X1003596Y63892D01*
X1003483Y63890D01*
X1003370Y63884D01*
X1003257Y63874D01*
X1003144Y63860D01*
X1003032Y63843D01*
X1002921Y63821D01*
X1002811Y63796D01*
X1002701Y63766D01*
X1002593Y63733D01*
X1002486Y63696D01*
X1002380Y63656D01*
X1002276Y63611D01*
X1002173Y63563D01*
X1002072Y63512D01*
X1001973Y63457D01*
X1001876Y63399D01*
X1001781Y63337D01*
X1001688Y63272D01*
X1001598Y63204D01*
X1001510Y63133D01*
X1001424Y63058D01*
X1001341Y62981D01*
X1001261Y62901D01*
X1001184Y62818D01*
X1001109Y62732D01*
X1001038Y62644D01*
X1000970Y62554D01*
X1000905Y62461D01*
X1000843Y62366D01*
X1000785Y62269D01*
X1000730Y62170D01*
X1000679Y62069D01*
X1000631Y61966D01*
X1000586Y61862D01*
X1000546Y61756D01*
X1000509Y61649D01*
X1000476Y61541D01*
X1000446Y61431D01*
X1000421Y61321D01*
X1000399Y61210D01*
X1000382Y61098D01*
X1000368Y60985D01*
X1000358Y60872D01*
X1000352Y60759D01*
X1000350Y60646D01*
X1000352Y60533D01*
X1000358Y60420D01*
X1000368Y60307D01*
X1000382Y60194D01*
X1000399Y60082D01*
X1000421Y59971D01*
X1000446Y59861D01*
X1000476Y59751D01*
X1000509Y59643D01*
X1000546Y59536D01*
X1000586Y59430D01*
X1000631Y59326D01*
X1000679Y59223D01*
X1000730Y59122D01*
X1000785Y59023D01*
X1000843Y58926D01*
X1000905Y58831D01*
X1000970Y58738D01*
X1001038Y58648D01*
X1001109Y58560D01*
X1001184Y58474D01*
X1001261Y58391D01*
X1001341Y58311D01*
X1001424Y58234D01*
X1001510Y58159D01*
X1001598Y58088D01*
X1001688Y58020D01*
X1001781Y57955D01*
X1001876Y57893D01*
X1001973Y57835D01*
X1002072Y57780D01*
X1002173Y57729D01*
X1002276Y57681D01*
X1002380Y57636D01*
X1002486Y57596D01*
X1002593Y57559D01*
X1002701Y57526D01*
X1002811Y57496D01*
X1002921Y57471D01*
X1003032Y57449D01*
X1003144Y57432D01*
X1003257Y57418D01*
X1003370Y57408D01*
X1003483Y57402D01*
X1003596Y57400D01*
X1003596Y57401D02*
X1006842Y57401D01*
X1002947Y57401D02*
X1000351Y52208D01*
X995486Y61296D02*
X992240Y63892D01*
X992240Y52208D01*
X988995Y52208D02*
X995486Y52208D01*
X984056Y61296D02*
X980810Y63892D01*
X980810Y52208D01*
X977565Y52208D02*
X984056Y52208D01*
M02*
