G04 EAGLE Gerber RS-274X export*
G75*
%MOMM*%
%FSLAX34Y34*%
%LPD*%
%INBottom Copper*%
%IPPOS*%
%AMOC8*
5,1,8,0,0,1.08239X$1,22.5*%
G01*
%ADD10C,1.980000*%
%ADD11R,1.368000X1.368000*%
%ADD12C,1.368000*%
%ADD13R,1.208000X1.208000*%
%ADD14C,1.208000*%
%ADD15C,1.508000*%
%ADD16R,1.508000X1.508000*%
%ADD17R,1.500000X1.300000*%
%ADD18R,1.200000X1.200000*%
%ADD19R,1.300000X1.500000*%
%ADD20C,0.756400*%
%ADD21C,0.508000*%


D10*
X1159900Y131000D03*
X1384900Y131000D03*
X616900Y131000D03*
X841900Y131000D03*
D11*
X523086Y94150D03*
D12*
X523086Y74150D03*
D13*
X1386100Y519500D03*
D14*
X1366100Y519500D03*
X1346100Y519500D03*
X1326100Y519500D03*
D15*
X1445000Y310500D03*
X1419600Y310500D03*
X1394200Y310500D03*
X1368800Y310500D03*
X1343400Y310500D03*
X1318000Y310500D03*
X1292600Y310500D03*
X1267200Y310500D03*
D16*
X1445000Y437500D03*
D15*
X1419600Y437500D03*
X1394200Y437500D03*
X1368800Y437500D03*
X1343400Y437500D03*
X1318000Y437500D03*
X1292600Y437500D03*
X1267200Y437500D03*
X1267200Y335900D03*
X1267200Y361300D03*
X1135933Y310500D03*
X1110533Y310500D03*
X1085133Y310500D03*
X1059733Y310500D03*
X1034333Y310500D03*
X1008933Y310500D03*
X983533Y310500D03*
X958133Y310500D03*
D16*
X1135933Y437500D03*
D15*
X1110533Y437500D03*
X1085133Y437500D03*
X1059733Y437500D03*
X1034333Y437500D03*
X1008933Y437500D03*
X983533Y437500D03*
X958133Y437500D03*
X958133Y335900D03*
X958133Y361300D03*
X826867Y310500D03*
X801467Y310500D03*
X776067Y310500D03*
X750667Y310500D03*
X725267Y310500D03*
X699867Y310500D03*
X674467Y310500D03*
X649067Y310500D03*
D16*
X826867Y437500D03*
D15*
X801467Y437500D03*
X776067Y437500D03*
X750667Y437500D03*
X725267Y437500D03*
X699867Y437500D03*
X674467Y437500D03*
X649067Y437500D03*
X649067Y335900D03*
X649067Y361300D03*
X517800Y310500D03*
X492400Y310500D03*
X467000Y310500D03*
X441600Y310500D03*
X416200Y310500D03*
X390800Y310500D03*
X365400Y310500D03*
X340000Y310500D03*
D16*
X517800Y437500D03*
D15*
X492400Y437500D03*
X467000Y437500D03*
X441600Y437500D03*
X416200Y437500D03*
X390800Y437500D03*
X365400Y437500D03*
X340000Y437500D03*
X340000Y335900D03*
X340000Y361300D03*
D13*
X1457000Y194900D03*
D14*
X1457000Y174900D03*
X1457000Y154900D03*
X1457000Y134900D03*
D17*
X349207Y105985D03*
X349207Y124985D03*
X241207Y105985D03*
X241207Y124985D03*
X137207Y105985D03*
X137207Y124985D03*
X32207Y105985D03*
X32207Y124985D03*
X474793Y105985D03*
X474793Y124985D03*
X47400Y220400D03*
X47400Y201400D03*
D11*
X389671Y74850D03*
D12*
X389671Y94850D03*
D11*
X290679Y74850D03*
D12*
X290679Y94850D03*
D11*
X180757Y74850D03*
D12*
X180757Y94850D03*
D11*
X73836Y74850D03*
D12*
X73836Y94850D03*
D13*
X55900Y594900D03*
D14*
X75900Y594900D03*
X95900Y594900D03*
X115900Y594900D03*
D11*
X197000Y594900D03*
D12*
X217000Y594900D03*
D15*
X48100Y443900D03*
X73500Y443900D03*
X98900Y443900D03*
X124300Y443900D03*
X149700Y443900D03*
X175100Y443900D03*
X200500Y443900D03*
X225900Y443900D03*
X225900Y392500D03*
X225900Y367100D03*
X225900Y341700D03*
X48100Y290300D03*
X73500Y290300D03*
X98900Y290300D03*
X124300Y290300D03*
X149700Y290300D03*
X175100Y290300D03*
X200500Y290300D03*
X225900Y290300D03*
D10*
X888400Y131000D03*
X1113400Y131000D03*
D17*
X888000Y212500D03*
X888000Y231500D03*
X616000Y212500D03*
X616000Y231500D03*
X99000Y220400D03*
X99000Y201400D03*
D18*
X1113000Y61000D03*
X1113000Y33000D03*
X843000Y61000D03*
X843000Y33000D03*
D13*
X1077033Y519500D03*
D14*
X1057033Y519500D03*
X1037033Y519500D03*
X1017033Y519500D03*
D13*
X767967Y519500D03*
D14*
X747967Y519500D03*
X727967Y519500D03*
X707967Y519500D03*
D13*
X458900Y519500D03*
D14*
X438900Y519500D03*
X418900Y519500D03*
X398900Y519500D03*
D19*
X978500Y35000D03*
X997500Y35000D03*
D20*
X889000Y32500D03*
X1162000Y32500D03*
X1414000Y46000D03*
X310000Y595000D03*
X574000Y596000D03*
X889000Y593000D03*
X1195000Y594000D03*
X1471000Y592000D03*
D21*
X888500Y33000D02*
X843000Y33000D01*
X888500Y33000D02*
X889000Y32500D01*
X1113000Y33000D02*
X1161500Y33000D01*
X1162000Y32500D01*
X252343Y94850D02*
X241207Y105985D01*
X252343Y94850D02*
X290679Y94850D01*
X148343Y94850D02*
X137207Y105985D01*
X148343Y94850D02*
X180757Y94850D01*
X349207Y105985D02*
X360343Y94850D01*
X389671Y94850D01*
X137207Y124985D02*
X32207Y124985D01*
X241207Y124985D02*
X349207Y124985D01*
X47198Y199972D02*
X47400Y201400D01*
X47198Y199972D02*
X42511Y166927D01*
X41221Y157827D01*
X37283Y130062D01*
X32207Y124985D01*
X349207Y124985D02*
X474793Y124985D01*
X365400Y310500D02*
X459900Y405000D01*
X485300Y405000D01*
X606000Y405000D01*
X768967Y405000D01*
X794367Y405000D01*
X1078033Y405000D01*
X1387000Y405000D01*
X1419500Y437500D02*
X1419600Y437500D01*
X1419500Y437500D02*
X1387000Y405000D01*
X1110533Y437500D02*
X1078033Y405000D01*
X801467Y437500D02*
X768967Y405000D01*
X492400Y437500D02*
X459900Y405000D01*
X485300Y405000D02*
X390800Y310500D01*
X699867Y310500D02*
X794367Y405000D01*
X983533Y310500D02*
X1078033Y405000D01*
X543000Y124985D02*
X474793Y124985D01*
X561000Y211193D01*
X561000Y360000D01*
X606000Y405000D01*
X99000Y201400D02*
X97572Y199972D01*
X47198Y199972D01*
X843000Y129900D02*
X843000Y61000D01*
X843000Y129900D02*
X841900Y131000D01*
X843000Y61000D02*
X952500Y61000D01*
X978500Y35000D01*
X843000Y61000D02*
X606985Y61000D01*
X543000Y124985D01*
X241207Y124985D02*
X137207Y124985D01*
D20*
X1358000Y67000D03*
D21*
X486628Y94150D02*
X474793Y105985D01*
X486628Y94150D02*
X523086Y94150D01*
X43343Y94850D02*
X32207Y105985D01*
X43343Y94850D02*
X73836Y94850D01*
X47400Y220400D02*
X47400Y286400D01*
X48100Y290300D01*
X1413450Y218450D02*
X1457000Y174900D01*
X888000Y231500D02*
X616000Y231500D01*
X888000Y231500D02*
X1400400Y231500D01*
X1413450Y218450D01*
X616000Y212500D02*
X616000Y131900D01*
X616900Y131000D01*
X888000Y131400D02*
X888000Y212500D01*
X888000Y131400D02*
X888400Y131000D01*
X99000Y220400D02*
X99000Y287000D01*
X98900Y290300D01*
X1113000Y130600D02*
X1113000Y61000D01*
X1113000Y130600D02*
X1113400Y131000D01*
X1113000Y61000D02*
X1023500Y61000D01*
X997500Y35000D01*
M02*
