G04 EAGLE Gerber RS-274X export*
G75*
%MOMM*%
%FSLAX34Y34*%
%LPD*%
%INTop Copper*%
%IPPOS*%
%AMOC8*
5,1,8,0,0,1.08239X$1,22.5*%
G01*
%ADD10C,1.980000*%
%ADD11R,1.368000X1.368000*%
%ADD12C,1.368000*%
%ADD13R,1.208000X1.208000*%
%ADD14C,1.208000*%
%ADD15C,1.508000*%
%ADD16R,1.508000X1.508000*%
%ADD17R,1.300000X1.500000*%
%ADD18R,1.200000X1.200000*%
%ADD19C,0.756400*%
%ADD20C,0.508000*%
%ADD21C,0.152400*%


D10*
X1159900Y131000D03*
X1384900Y131000D03*
X616900Y131000D03*
X841900Y131000D03*
D11*
X523086Y94150D03*
D12*
X523086Y74150D03*
D13*
X1386100Y519500D03*
D14*
X1366100Y519500D03*
X1346100Y519500D03*
X1326100Y519500D03*
D15*
X1445000Y310500D03*
X1419600Y310500D03*
X1394200Y310500D03*
X1368800Y310500D03*
X1343400Y310500D03*
X1318000Y310500D03*
X1292600Y310500D03*
X1267200Y310500D03*
D16*
X1445000Y437500D03*
D15*
X1419600Y437500D03*
X1394200Y437500D03*
X1368800Y437500D03*
X1343400Y437500D03*
X1318000Y437500D03*
X1292600Y437500D03*
X1267200Y437500D03*
X1267200Y335900D03*
X1267200Y361300D03*
X1135933Y310500D03*
X1110533Y310500D03*
X1085133Y310500D03*
X1059733Y310500D03*
X1034333Y310500D03*
X1008933Y310500D03*
X983533Y310500D03*
X958133Y310500D03*
D16*
X1135933Y437500D03*
D15*
X1110533Y437500D03*
X1085133Y437500D03*
X1059733Y437500D03*
X1034333Y437500D03*
X1008933Y437500D03*
X983533Y437500D03*
X958133Y437500D03*
X958133Y335900D03*
X958133Y361300D03*
X826867Y310500D03*
X801467Y310500D03*
X776067Y310500D03*
X750667Y310500D03*
X725267Y310500D03*
X699867Y310500D03*
X674467Y310500D03*
X649067Y310500D03*
D16*
X826867Y437500D03*
D15*
X801467Y437500D03*
X776067Y437500D03*
X750667Y437500D03*
X725267Y437500D03*
X699867Y437500D03*
X674467Y437500D03*
X649067Y437500D03*
X649067Y335900D03*
X649067Y361300D03*
X517800Y310500D03*
X492400Y310500D03*
X467000Y310500D03*
X441600Y310500D03*
X416200Y310500D03*
X390800Y310500D03*
X365400Y310500D03*
X340000Y310500D03*
D16*
X517800Y437500D03*
D15*
X492400Y437500D03*
X467000Y437500D03*
X441600Y437500D03*
X416200Y437500D03*
X390800Y437500D03*
X365400Y437500D03*
X340000Y437500D03*
X340000Y335900D03*
X340000Y361300D03*
D13*
X1457000Y194900D03*
D14*
X1457000Y174900D03*
X1457000Y154900D03*
X1457000Y134900D03*
D17*
X194625Y497900D03*
X213625Y497900D03*
D11*
X389671Y74850D03*
D12*
X389671Y94850D03*
D11*
X290679Y74850D03*
D12*
X290679Y94850D03*
D11*
X180757Y74850D03*
D12*
X180757Y94850D03*
D11*
X73836Y74850D03*
D12*
X73836Y94850D03*
D13*
X55900Y594900D03*
D14*
X75900Y594900D03*
X95900Y594900D03*
X115900Y594900D03*
D11*
X197000Y594900D03*
D12*
X217000Y594900D03*
D15*
X48100Y443900D03*
X73500Y443900D03*
X98900Y443900D03*
X124300Y443900D03*
X149700Y443900D03*
X175100Y443900D03*
X200500Y443900D03*
X225900Y443900D03*
X225900Y392500D03*
X225900Y367100D03*
X225900Y341700D03*
X48100Y290300D03*
X73500Y290300D03*
X98900Y290300D03*
X124300Y290300D03*
X149700Y290300D03*
X175100Y290300D03*
X200500Y290300D03*
X225900Y290300D03*
D10*
X888400Y131000D03*
X1113400Y131000D03*
D18*
X1386000Y67000D03*
X1386000Y39000D03*
D13*
X1077033Y519500D03*
D14*
X1057033Y519500D03*
X1037033Y519500D03*
X1017033Y519500D03*
D13*
X767967Y519500D03*
D14*
X747967Y519500D03*
X727967Y519500D03*
X707967Y519500D03*
D13*
X458900Y519500D03*
D14*
X438900Y519500D03*
X418900Y519500D03*
X398900Y519500D03*
D18*
X1383000Y580000D03*
X1383000Y608000D03*
X1328000Y580000D03*
X1328000Y608000D03*
X1438000Y580000D03*
X1438000Y608000D03*
X1273000Y580000D03*
X1273000Y608000D03*
X1077000Y580000D03*
X1077000Y608000D03*
X1023000Y580000D03*
X1023000Y608000D03*
X1131000Y580000D03*
X1131000Y608000D03*
X969000Y580000D03*
X969000Y608000D03*
X764000Y580000D03*
X764000Y608000D03*
X711000Y580000D03*
X711000Y608000D03*
X817000Y580000D03*
X817000Y608000D03*
X658000Y580000D03*
X658000Y608000D03*
X454556Y580000D03*
X454556Y608000D03*
X402778Y580000D03*
X402778Y608000D03*
X506333Y580000D03*
X506333Y608000D03*
X351000Y580000D03*
X351000Y608000D03*
D19*
X889000Y32500D03*
X1162000Y32500D03*
X1414000Y46000D03*
D20*
X1407000Y39000D01*
X1386000Y39000D01*
D19*
X310000Y595000D03*
X574000Y596000D03*
X889000Y593000D03*
X1195000Y594000D03*
X1471000Y592000D03*
D20*
X323000Y608000D02*
X310000Y595000D01*
X323000Y608000D02*
X351000Y608000D01*
X402778Y608000D01*
X454556Y608000D01*
X506333Y608000D01*
X562000Y608000D01*
X574000Y596000D01*
X586000Y608000D01*
X658000Y608000D01*
X711000Y608000D01*
X764000Y608000D01*
X817000Y608000D01*
X969000Y608000D02*
X1023000Y608000D01*
X1077000Y608000D01*
X1131000Y608000D01*
X1181000Y608000D01*
X1195000Y594000D01*
X1210000Y609000D01*
X1272000Y609000D02*
X1273000Y608000D01*
X1272000Y609000D02*
X1210000Y609000D01*
X1273000Y608000D02*
X1328000Y608000D01*
X1383000Y608000D01*
X1438000Y608000D01*
X1455000Y608000D02*
X1471000Y592000D01*
X1455000Y608000D02*
X1438000Y608000D01*
X874000Y608000D02*
X817000Y608000D01*
X874000Y608000D02*
X889000Y593000D01*
X904000Y608000D02*
X969000Y608000D01*
X904000Y608000D02*
X889000Y593000D01*
D21*
X290679Y94850D02*
X175100Y210429D01*
X175100Y290300D01*
X149700Y125907D02*
X180757Y94850D01*
X149700Y125907D02*
X149700Y290300D01*
X200500Y284021D02*
X389671Y94850D01*
X200500Y284021D02*
X200500Y290300D01*
D19*
X1358000Y67000D03*
D20*
X1386000Y67000D01*
D21*
X1368800Y310500D02*
X1279300Y400000D01*
X840167Y400000D02*
X531100Y400000D01*
X840167Y400000D02*
X1149233Y400000D01*
X1279300Y400000D01*
X1149233Y400000D02*
X1059733Y310500D01*
X840167Y400000D02*
X750667Y310500D01*
X531100Y400000D02*
X441600Y310500D01*
X249000Y484000D02*
X246100Y486900D01*
X249000Y484000D02*
X333000Y400000D01*
X531100Y400000D01*
X213625Y497900D02*
X175100Y459375D01*
X175100Y443900D01*
X217000Y501275D02*
X217000Y594900D01*
X217000Y501275D02*
X213625Y497900D01*
X235100Y497900D01*
X246100Y486900D01*
X55900Y454900D02*
X55900Y594900D01*
X55900Y454900D02*
X48100Y443900D01*
X75900Y449500D02*
X75900Y594900D01*
X75900Y449500D02*
X73500Y443900D01*
X95900Y450100D02*
X95900Y594900D01*
X95900Y450100D02*
X98900Y443900D01*
X115900Y455500D02*
X115900Y594900D01*
X115900Y455500D02*
X124300Y443900D01*
X149700Y452975D02*
X194625Y497900D01*
X149700Y452975D02*
X149700Y443900D01*
X197000Y500275D02*
X197000Y594900D01*
X197000Y500275D02*
X194625Y497900D01*
X124300Y145314D02*
X73836Y94850D01*
X124300Y145314D02*
X124300Y290300D01*
D20*
X1366100Y563100D02*
X1383000Y580000D01*
X1366100Y563100D02*
X1366100Y519500D01*
X1326100Y526900D02*
X1273000Y580000D01*
X1326100Y526900D02*
X1326100Y519500D01*
X1346100Y561900D02*
X1328000Y580000D01*
X1346100Y561900D02*
X1346100Y519500D01*
X1386100Y528100D02*
X1438000Y580000D01*
X1386100Y528100D02*
X1386100Y519500D01*
X1077000Y580000D02*
X1057033Y560033D01*
X1057033Y519500D01*
X1017033Y531967D02*
X969000Y580000D01*
X1017033Y531967D02*
X1017033Y519500D01*
X1037033Y565967D02*
X1023000Y580000D01*
X1037033Y565967D02*
X1037033Y519500D01*
X1077033Y526033D02*
X1131000Y580000D01*
X1077033Y526033D02*
X1077033Y519500D01*
X764000Y580000D02*
X747967Y563967D01*
X747967Y519500D01*
X707967Y530033D02*
X658000Y580000D01*
X707967Y530033D02*
X707967Y519500D01*
X727967Y563033D02*
X711000Y580000D01*
X727967Y563033D02*
X727967Y519500D01*
X767967Y530967D02*
X817000Y580000D01*
X767967Y530967D02*
X767967Y519500D01*
X454556Y580000D02*
X438900Y564345D01*
X438900Y519500D01*
X398900Y532100D02*
X351000Y580000D01*
X398900Y532100D02*
X398900Y519500D01*
X418900Y563878D02*
X402778Y580000D01*
X418900Y563878D02*
X418900Y519500D01*
X458900Y532567D02*
X506333Y580000D01*
X458900Y532567D02*
X458900Y519500D01*
D21*
X276000Y397000D02*
X225900Y443900D01*
X276000Y323000D02*
X327000Y272000D01*
X378500Y272000D01*
X390000Y272000D02*
X610567Y272000D01*
X919633Y272000D01*
X1228700Y272000D01*
X1267200Y310500D01*
X276000Y323000D02*
X276000Y397000D01*
X919633Y272000D02*
X958133Y310500D01*
X649067Y310500D02*
X610567Y272000D01*
X378500Y272000D02*
X340000Y310500D01*
X378500Y272000D02*
X390000Y272000D01*
M02*
