G04 EAGLE Gerber RS-274X export*
G75*
%MOMM*%
%FSLAX34Y34*%
%LPD*%
%INInner Copper Layer 1*%
%IPPOS*%
%AMOC8*
5,1,8,0,0,1.08239X$1,22.5*%
G01*
%ADD10C,1.980000*%
%ADD11C,1.368000*%
%ADD12C,1.208000*%
%ADD13C,1.508000*%
%ADD14C,0.756400*%
%ADD15C,0.508000*%


D10*
X1159900Y131000D03*
X1384900Y131000D03*
X616900Y131000D03*
X841900Y131000D03*
D11*
X523086Y94150D03*
X523086Y74150D03*
D12*
X1386100Y519500D03*
X1366100Y519500D03*
X1346100Y519500D03*
X1326100Y519500D03*
D13*
X1445000Y310500D03*
X1419600Y310500D03*
X1394200Y310500D03*
X1368800Y310500D03*
X1343400Y310500D03*
X1318000Y310500D03*
X1292600Y310500D03*
X1267200Y310500D03*
X1445000Y437500D03*
X1419600Y437500D03*
X1394200Y437500D03*
X1368800Y437500D03*
X1343400Y437500D03*
X1318000Y437500D03*
X1292600Y437500D03*
X1267200Y437500D03*
X1267200Y335900D03*
X1267200Y361300D03*
X1135933Y310500D03*
X1110533Y310500D03*
X1085133Y310500D03*
X1059733Y310500D03*
X1034333Y310500D03*
X1008933Y310500D03*
X983533Y310500D03*
X958133Y310500D03*
X1135933Y437500D03*
X1110533Y437500D03*
X1085133Y437500D03*
X1059733Y437500D03*
X1034333Y437500D03*
X1008933Y437500D03*
X983533Y437500D03*
X958133Y437500D03*
X958133Y335900D03*
X958133Y361300D03*
X826867Y310500D03*
X801467Y310500D03*
X776067Y310500D03*
X750667Y310500D03*
X725267Y310500D03*
X699867Y310500D03*
X674467Y310500D03*
X649067Y310500D03*
X826867Y437500D03*
X801467Y437500D03*
X776067Y437500D03*
X750667Y437500D03*
X725267Y437500D03*
X699867Y437500D03*
X674467Y437500D03*
X649067Y437500D03*
X649067Y335900D03*
X649067Y361300D03*
X517800Y310500D03*
X492400Y310500D03*
X467000Y310500D03*
X441600Y310500D03*
X416200Y310500D03*
X390800Y310500D03*
X365400Y310500D03*
X340000Y310500D03*
X517800Y437500D03*
X492400Y437500D03*
X467000Y437500D03*
X441600Y437500D03*
X416200Y437500D03*
X390800Y437500D03*
X365400Y437500D03*
X340000Y437500D03*
X340000Y335900D03*
X340000Y361300D03*
D12*
X1457000Y194900D03*
X1457000Y174900D03*
X1457000Y154900D03*
X1457000Y134900D03*
D11*
X389671Y74850D03*
X389671Y94850D03*
X290679Y74850D03*
X290679Y94850D03*
X180757Y74850D03*
X180757Y94850D03*
X73836Y74850D03*
X73836Y94850D03*
D12*
X55900Y594900D03*
X75900Y594900D03*
X95900Y594900D03*
X115900Y594900D03*
D11*
X197000Y594900D03*
X217000Y594900D03*
D13*
X48100Y443900D03*
X73500Y443900D03*
X98900Y443900D03*
X124300Y443900D03*
X149700Y443900D03*
X175100Y443900D03*
X200500Y443900D03*
X225900Y443900D03*
X225900Y392500D03*
X225900Y367100D03*
X225900Y341700D03*
X48100Y290300D03*
X73500Y290300D03*
X98900Y290300D03*
X124300Y290300D03*
X149700Y290300D03*
X175100Y290300D03*
X200500Y290300D03*
X225900Y290300D03*
D10*
X888400Y131000D03*
X1113400Y131000D03*
D12*
X1077033Y519500D03*
X1057033Y519500D03*
X1037033Y519500D03*
X1017033Y519500D03*
X767967Y519500D03*
X747967Y519500D03*
X727967Y519500D03*
X707967Y519500D03*
X458900Y519500D03*
X438900Y519500D03*
X418900Y519500D03*
X398900Y519500D03*
D14*
X889000Y32500D03*
X1162000Y32500D03*
X1414000Y46000D03*
X310000Y595000D03*
X574000Y596000D03*
X889000Y593000D03*
X1195000Y594000D03*
X1471000Y592000D03*
X1358000Y67000D03*
D15*
X1358000Y104100D02*
X1384900Y131000D01*
X1358000Y104100D02*
X1358000Y67000D01*
X388500Y389000D02*
X340000Y437500D01*
X388500Y389000D02*
X697567Y389000D01*
X1006633Y389000D01*
X1218700Y389000D01*
X697567Y389000D02*
X649067Y437500D01*
X958133Y437500D02*
X1006633Y389000D01*
X1165000Y67000D02*
X1358000Y67000D01*
X1165000Y67000D02*
X1134000Y98000D01*
X1134000Y249000D01*
X1218500Y333500D01*
X1218700Y389000D02*
X1267200Y437500D01*
X1218700Y389000D02*
X1217700Y388000D01*
X1218700Y389000D02*
X1218700Y333700D01*
X1218500Y333500D01*
X1368800Y437500D02*
X1368800Y516800D01*
X1366100Y519500D01*
X1318000Y511400D02*
X1318000Y437500D01*
X1318000Y511400D02*
X1326100Y519500D01*
X1343400Y516800D02*
X1343400Y437500D01*
X1343400Y516800D02*
X1346100Y519500D01*
X1394200Y511400D02*
X1394200Y437500D01*
X1394200Y511400D02*
X1386100Y519500D01*
X1059733Y516800D02*
X1059733Y437500D01*
X1059733Y516800D02*
X1057033Y519500D01*
X1008933Y511400D02*
X1008933Y437500D01*
X1008933Y511400D02*
X1017033Y519500D01*
X1034333Y516800D02*
X1034333Y437500D01*
X1034333Y516800D02*
X1037033Y519500D01*
X1085133Y511400D02*
X1085133Y437500D01*
X1085133Y511400D02*
X1077033Y519500D01*
X750667Y516800D02*
X750667Y437500D01*
X750667Y516800D02*
X747967Y519500D01*
X699867Y511400D02*
X699867Y437500D01*
X699867Y511400D02*
X707967Y519500D01*
X725267Y516800D02*
X725267Y437500D01*
X725267Y516800D02*
X727967Y519500D01*
X776067Y511400D02*
X776067Y437500D01*
X776067Y511400D02*
X767967Y519500D01*
X441600Y516800D02*
X441600Y437500D01*
X441600Y516800D02*
X438900Y519500D01*
X390800Y511400D02*
X390800Y437500D01*
X390800Y511400D02*
X398900Y519500D01*
X416200Y516800D02*
X416200Y437500D01*
X416200Y516800D02*
X418900Y519500D01*
X467000Y511400D02*
X467000Y437500D01*
X467000Y511400D02*
X458900Y519500D01*
X1183800Y154900D02*
X1457000Y154900D01*
X1183800Y154900D02*
X1159900Y131000D01*
M02*
