G04 EAGLE Gerber RS-274X export*
G75*
%MOMM*%
%FSLAX34Y34*%
%LPD*%
%INInner Copper Layer 2*%
%IPPOS*%
%AMOC8*
5,1,8,0,0,1.08239X$1,22.5*%
G01*
%ADD10C,1.980000*%
%ADD11C,1.368000*%
%ADD12C,1.208000*%
%ADD13C,1.508000*%
%ADD14C,0.756400*%

G36*
X1489098Y10164D02*
X1489098Y10164D01*
X1489117Y10162D01*
X1489219Y10184D01*
X1489321Y10200D01*
X1489338Y10210D01*
X1489358Y10214D01*
X1489447Y10267D01*
X1489538Y10316D01*
X1489552Y10330D01*
X1489569Y10340D01*
X1489636Y10419D01*
X1489708Y10494D01*
X1489716Y10512D01*
X1489729Y10527D01*
X1489768Y10623D01*
X1489811Y10717D01*
X1489813Y10737D01*
X1489821Y10755D01*
X1489839Y10922D01*
X1489839Y649078D01*
X1489836Y649098D01*
X1489838Y649117D01*
X1489816Y649219D01*
X1489800Y649321D01*
X1489790Y649338D01*
X1489786Y649358D01*
X1489733Y649447D01*
X1489684Y649538D01*
X1489670Y649552D01*
X1489660Y649569D01*
X1489581Y649636D01*
X1489506Y649708D01*
X1489488Y649716D01*
X1489473Y649729D01*
X1489377Y649768D01*
X1489283Y649811D01*
X1489263Y649813D01*
X1489245Y649821D01*
X1489078Y649839D01*
X10922Y649839D01*
X10902Y649836D01*
X10883Y649838D01*
X10781Y649816D01*
X10679Y649800D01*
X10662Y649790D01*
X10642Y649786D01*
X10553Y649733D01*
X10462Y649684D01*
X10448Y649670D01*
X10431Y649660D01*
X10364Y649581D01*
X10292Y649506D01*
X10284Y649488D01*
X10271Y649473D01*
X10232Y649377D01*
X10189Y649283D01*
X10187Y649263D01*
X10179Y649245D01*
X10161Y649078D01*
X10161Y10922D01*
X10164Y10902D01*
X10162Y10883D01*
X10184Y10781D01*
X10200Y10679D01*
X10210Y10662D01*
X10214Y10642D01*
X10267Y10553D01*
X10316Y10462D01*
X10330Y10448D01*
X10340Y10431D01*
X10419Y10364D01*
X10494Y10292D01*
X10512Y10284D01*
X10527Y10271D01*
X10623Y10232D01*
X10717Y10189D01*
X10737Y10187D01*
X10755Y10179D01*
X10922Y10161D01*
X1489078Y10161D01*
X1489098Y10164D01*
G37*
%LPC*%
G36*
X614627Y119575D02*
X614627Y119575D01*
X610428Y121315D01*
X607215Y124528D01*
X605475Y128727D01*
X605475Y133273D01*
X607215Y137472D01*
X610428Y140685D01*
X614627Y142425D01*
X619173Y142425D01*
X623372Y140685D01*
X626585Y137472D01*
X628325Y133273D01*
X628325Y128727D01*
X626585Y124528D01*
X623372Y121315D01*
X619173Y119575D01*
X614627Y119575D01*
G37*
%LPD*%
%LPC*%
G36*
X839627Y119575D02*
X839627Y119575D01*
X835428Y121315D01*
X832215Y124528D01*
X830475Y128727D01*
X830475Y133273D01*
X832215Y137472D01*
X835428Y140685D01*
X839627Y142425D01*
X844173Y142425D01*
X848372Y140685D01*
X851585Y137472D01*
X853325Y133273D01*
X853325Y128727D01*
X851585Y124528D01*
X848372Y121315D01*
X844173Y119575D01*
X839627Y119575D01*
G37*
%LPD*%
%LPC*%
G36*
X886127Y119575D02*
X886127Y119575D01*
X881928Y121315D01*
X878715Y124528D01*
X876975Y128727D01*
X876975Y133273D01*
X878715Y137472D01*
X881928Y140685D01*
X886127Y142425D01*
X890673Y142425D01*
X894872Y140685D01*
X898085Y137472D01*
X899825Y133273D01*
X899825Y128727D01*
X898085Y124528D01*
X894872Y121315D01*
X890673Y119575D01*
X886127Y119575D01*
G37*
%LPD*%
%LPC*%
G36*
X1111127Y119575D02*
X1111127Y119575D01*
X1106928Y121315D01*
X1103715Y124528D01*
X1101975Y128727D01*
X1101975Y133273D01*
X1103715Y137472D01*
X1106928Y140685D01*
X1111127Y142425D01*
X1115673Y142425D01*
X1119872Y140685D01*
X1123085Y137472D01*
X1124825Y133273D01*
X1124825Y128727D01*
X1123085Y124528D01*
X1119872Y121315D01*
X1115673Y119575D01*
X1111127Y119575D01*
G37*
%LPD*%
%LPC*%
G36*
X1157627Y119575D02*
X1157627Y119575D01*
X1153428Y121315D01*
X1150215Y124528D01*
X1148475Y128727D01*
X1148475Y133273D01*
X1150215Y137472D01*
X1153428Y140685D01*
X1157627Y142425D01*
X1162173Y142425D01*
X1166372Y140685D01*
X1169585Y137472D01*
X1171325Y133273D01*
X1171325Y128727D01*
X1169585Y124528D01*
X1166372Y121315D01*
X1162173Y119575D01*
X1157627Y119575D01*
G37*
%LPD*%
%LPC*%
G36*
X1382627Y119575D02*
X1382627Y119575D01*
X1378428Y121315D01*
X1375215Y124528D01*
X1373475Y128727D01*
X1373475Y133273D01*
X1375215Y137472D01*
X1378428Y140685D01*
X1382627Y142425D01*
X1387173Y142425D01*
X1391372Y140685D01*
X1394585Y137472D01*
X1396325Y133273D01*
X1396325Y128727D01*
X1394585Y124528D01*
X1391372Y121315D01*
X1387173Y119575D01*
X1382627Y119575D01*
G37*
%LPD*%
%LPC*%
G36*
X465197Y301435D02*
X465197Y301435D01*
X461865Y302815D01*
X459315Y305365D01*
X457935Y308697D01*
X457935Y312303D01*
X459315Y315635D01*
X461865Y318185D01*
X465197Y319565D01*
X468803Y319565D01*
X472135Y318185D01*
X474685Y315635D01*
X476065Y312303D01*
X476065Y308697D01*
X474685Y305365D01*
X472135Y302815D01*
X468803Y301435D01*
X465197Y301435D01*
G37*
%LPD*%
%LPC*%
G36*
X774264Y301435D02*
X774264Y301435D01*
X770932Y302815D01*
X768382Y305365D01*
X767002Y308697D01*
X767002Y312303D01*
X768382Y315635D01*
X770932Y318185D01*
X774264Y319565D01*
X777870Y319565D01*
X781201Y318185D01*
X783751Y315635D01*
X785131Y312303D01*
X785131Y308697D01*
X783751Y305365D01*
X781201Y302815D01*
X777870Y301435D01*
X774264Y301435D01*
G37*
%LPD*%
%LPC*%
G36*
X748864Y301435D02*
X748864Y301435D01*
X745532Y302815D01*
X742982Y305365D01*
X741602Y308697D01*
X741602Y312303D01*
X742982Y315635D01*
X745532Y318185D01*
X748864Y319565D01*
X752470Y319565D01*
X755801Y318185D01*
X758351Y315635D01*
X759731Y312303D01*
X759731Y308697D01*
X758351Y305365D01*
X755801Y302815D01*
X752470Y301435D01*
X748864Y301435D01*
G37*
%LPD*%
%LPC*%
G36*
X723464Y301435D02*
X723464Y301435D01*
X720132Y302815D01*
X717582Y305365D01*
X716202Y308697D01*
X716202Y312303D01*
X717582Y315635D01*
X720132Y318185D01*
X723464Y319565D01*
X727070Y319565D01*
X730401Y318185D01*
X732951Y315635D01*
X734331Y312303D01*
X734331Y308697D01*
X732951Y305365D01*
X730401Y302815D01*
X727070Y301435D01*
X723464Y301435D01*
G37*
%LPD*%
%LPC*%
G36*
X698064Y301435D02*
X698064Y301435D01*
X694732Y302815D01*
X692182Y305365D01*
X690802Y308697D01*
X690802Y312303D01*
X692182Y315635D01*
X694732Y318185D01*
X698064Y319565D01*
X701670Y319565D01*
X705001Y318185D01*
X707551Y315635D01*
X708931Y312303D01*
X708931Y308697D01*
X707551Y305365D01*
X705001Y302815D01*
X701670Y301435D01*
X698064Y301435D01*
G37*
%LPD*%
%LPC*%
G36*
X647264Y301435D02*
X647264Y301435D01*
X643932Y302815D01*
X641382Y305365D01*
X640002Y308697D01*
X640002Y312303D01*
X641382Y315635D01*
X643932Y318185D01*
X647264Y319565D01*
X650870Y319565D01*
X654201Y318185D01*
X656751Y315635D01*
X658131Y312303D01*
X658131Y308697D01*
X656751Y305365D01*
X654201Y302815D01*
X650870Y301435D01*
X647264Y301435D01*
G37*
%LPD*%
%LPC*%
G36*
X515997Y301435D02*
X515997Y301435D01*
X512665Y302815D01*
X510115Y305365D01*
X508735Y308697D01*
X508735Y312303D01*
X510115Y315635D01*
X512665Y318185D01*
X515997Y319565D01*
X519603Y319565D01*
X522935Y318185D01*
X525485Y315635D01*
X526865Y312303D01*
X526865Y308697D01*
X525485Y305365D01*
X522935Y302815D01*
X519603Y301435D01*
X515997Y301435D01*
G37*
%LPD*%
%LPC*%
G36*
X490597Y301435D02*
X490597Y301435D01*
X487265Y302815D01*
X484715Y305365D01*
X483335Y308697D01*
X483335Y312303D01*
X484715Y315635D01*
X487265Y318185D01*
X490597Y319565D01*
X494203Y319565D01*
X497535Y318185D01*
X500085Y315635D01*
X501465Y312303D01*
X501465Y308697D01*
X500085Y305365D01*
X497535Y302815D01*
X494203Y301435D01*
X490597Y301435D01*
G37*
%LPD*%
%LPC*%
G36*
X439797Y301435D02*
X439797Y301435D01*
X436465Y302815D01*
X433915Y305365D01*
X432535Y308697D01*
X432535Y312303D01*
X433915Y315635D01*
X436465Y318185D01*
X439797Y319565D01*
X443403Y319565D01*
X446735Y318185D01*
X449285Y315635D01*
X450665Y312303D01*
X450665Y308697D01*
X449285Y305365D01*
X446735Y302815D01*
X443403Y301435D01*
X439797Y301435D01*
G37*
%LPD*%
%LPC*%
G36*
X414397Y301435D02*
X414397Y301435D01*
X411065Y302815D01*
X408515Y305365D01*
X407135Y308697D01*
X407135Y312303D01*
X408515Y315635D01*
X411065Y318185D01*
X414397Y319565D01*
X418003Y319565D01*
X421335Y318185D01*
X423885Y315635D01*
X425265Y312303D01*
X425265Y308697D01*
X423885Y305365D01*
X421335Y302815D01*
X418003Y301435D01*
X414397Y301435D01*
G37*
%LPD*%
%LPC*%
G36*
X388997Y301435D02*
X388997Y301435D01*
X385665Y302815D01*
X383115Y305365D01*
X381735Y308697D01*
X381735Y312303D01*
X383115Y315635D01*
X385665Y318185D01*
X388997Y319565D01*
X392603Y319565D01*
X395935Y318185D01*
X398485Y315635D01*
X399865Y312303D01*
X399865Y308697D01*
X398485Y305365D01*
X395935Y302815D01*
X392603Y301435D01*
X388997Y301435D01*
G37*
%LPD*%
%LPC*%
G36*
X799664Y428435D02*
X799664Y428435D01*
X796332Y429815D01*
X793782Y432365D01*
X792402Y435697D01*
X792402Y439303D01*
X793782Y442635D01*
X796332Y445185D01*
X799664Y446565D01*
X803270Y446565D01*
X806601Y445185D01*
X809151Y442635D01*
X810531Y439303D01*
X810531Y435697D01*
X809151Y432365D01*
X806601Y429815D01*
X803270Y428435D01*
X799664Y428435D01*
G37*
%LPD*%
%LPC*%
G36*
X774264Y428435D02*
X774264Y428435D01*
X770932Y429815D01*
X768382Y432365D01*
X767002Y435697D01*
X767002Y439303D01*
X768382Y442635D01*
X770932Y445185D01*
X774264Y446565D01*
X777870Y446565D01*
X781201Y445185D01*
X783751Y442635D01*
X785131Y439303D01*
X785131Y435697D01*
X783751Y432365D01*
X781201Y429815D01*
X777870Y428435D01*
X774264Y428435D01*
G37*
%LPD*%
%LPC*%
G36*
X748864Y428435D02*
X748864Y428435D01*
X745532Y429815D01*
X742982Y432365D01*
X741602Y435697D01*
X741602Y439303D01*
X742982Y442635D01*
X745532Y445185D01*
X748864Y446565D01*
X752470Y446565D01*
X755801Y445185D01*
X758351Y442635D01*
X759731Y439303D01*
X759731Y435697D01*
X758351Y432365D01*
X755801Y429815D01*
X752470Y428435D01*
X748864Y428435D01*
G37*
%LPD*%
%LPC*%
G36*
X723464Y428435D02*
X723464Y428435D01*
X720132Y429815D01*
X717582Y432365D01*
X716202Y435697D01*
X716202Y439303D01*
X717582Y442635D01*
X720132Y445185D01*
X723464Y446565D01*
X727070Y446565D01*
X730401Y445185D01*
X732951Y442635D01*
X734331Y439303D01*
X734331Y435697D01*
X732951Y432365D01*
X730401Y429815D01*
X727070Y428435D01*
X723464Y428435D01*
G37*
%LPD*%
%LPC*%
G36*
X698064Y428435D02*
X698064Y428435D01*
X694732Y429815D01*
X692182Y432365D01*
X690802Y435697D01*
X690802Y439303D01*
X692182Y442635D01*
X694732Y445185D01*
X698064Y446565D01*
X701670Y446565D01*
X705001Y445185D01*
X707551Y442635D01*
X708931Y439303D01*
X708931Y435697D01*
X707551Y432365D01*
X705001Y429815D01*
X701670Y428435D01*
X698064Y428435D01*
G37*
%LPD*%
%LPC*%
G36*
X647264Y428435D02*
X647264Y428435D01*
X643932Y429815D01*
X641382Y432365D01*
X640002Y435697D01*
X640002Y439303D01*
X641382Y442635D01*
X643932Y445185D01*
X647264Y446565D01*
X650870Y446565D01*
X654201Y445185D01*
X656751Y442635D01*
X658131Y439303D01*
X658131Y435697D01*
X656751Y432365D01*
X654201Y429815D01*
X650870Y428435D01*
X647264Y428435D01*
G37*
%LPD*%
%LPC*%
G36*
X490597Y428435D02*
X490597Y428435D01*
X487265Y429815D01*
X484715Y432365D01*
X483335Y435697D01*
X483335Y439303D01*
X484715Y442635D01*
X487265Y445185D01*
X490597Y446565D01*
X494203Y446565D01*
X497535Y445185D01*
X500085Y442635D01*
X501465Y439303D01*
X501465Y435697D01*
X500085Y432365D01*
X497535Y429815D01*
X494203Y428435D01*
X490597Y428435D01*
G37*
%LPD*%
%LPC*%
G36*
X338197Y428435D02*
X338197Y428435D01*
X334865Y429815D01*
X332315Y432365D01*
X330935Y435697D01*
X330935Y439303D01*
X332315Y442635D01*
X334865Y445185D01*
X338197Y446565D01*
X341803Y446565D01*
X345135Y445185D01*
X347685Y442635D01*
X349065Y439303D01*
X349065Y435697D01*
X347685Y432365D01*
X345135Y429815D01*
X341803Y428435D01*
X338197Y428435D01*
G37*
%LPD*%
%LPC*%
G36*
X439797Y428435D02*
X439797Y428435D01*
X436465Y429815D01*
X433915Y432365D01*
X432535Y435697D01*
X432535Y439303D01*
X433915Y442635D01*
X436465Y445185D01*
X439797Y446565D01*
X443403Y446565D01*
X446735Y445185D01*
X449285Y442635D01*
X450665Y439303D01*
X450665Y435697D01*
X449285Y432365D01*
X446735Y429815D01*
X443403Y428435D01*
X439797Y428435D01*
G37*
%LPD*%
%LPC*%
G36*
X414397Y428435D02*
X414397Y428435D01*
X411065Y429815D01*
X408515Y432365D01*
X407135Y435697D01*
X407135Y439303D01*
X408515Y442635D01*
X411065Y445185D01*
X414397Y446565D01*
X418003Y446565D01*
X421335Y445185D01*
X423885Y442635D01*
X425265Y439303D01*
X425265Y435697D01*
X423885Y432365D01*
X421335Y429815D01*
X418003Y428435D01*
X414397Y428435D01*
G37*
%LPD*%
%LPC*%
G36*
X388997Y428435D02*
X388997Y428435D01*
X385665Y429815D01*
X383115Y432365D01*
X381735Y435697D01*
X381735Y439303D01*
X383115Y442635D01*
X385665Y445185D01*
X388997Y446565D01*
X392603Y446565D01*
X395935Y445185D01*
X398485Y442635D01*
X399865Y439303D01*
X399865Y435697D01*
X398485Y432365D01*
X395935Y429815D01*
X392603Y428435D01*
X388997Y428435D01*
G37*
%LPD*%
%LPC*%
G36*
X465197Y428435D02*
X465197Y428435D01*
X461865Y429815D01*
X459315Y432365D01*
X457935Y435697D01*
X457935Y439303D01*
X459315Y442635D01*
X461865Y445185D01*
X465197Y446565D01*
X468803Y446565D01*
X472135Y445185D01*
X474685Y442635D01*
X476065Y439303D01*
X476065Y435697D01*
X474685Y432365D01*
X472135Y429815D01*
X468803Y428435D01*
X465197Y428435D01*
G37*
%LPD*%
%LPC*%
G36*
X647264Y352235D02*
X647264Y352235D01*
X643932Y353615D01*
X641382Y356165D01*
X640002Y359497D01*
X640002Y363103D01*
X641382Y366435D01*
X643932Y368985D01*
X647264Y370365D01*
X650870Y370365D01*
X654201Y368985D01*
X656751Y366435D01*
X658131Y363103D01*
X658131Y359497D01*
X656751Y356165D01*
X654201Y353615D01*
X650870Y352235D01*
X647264Y352235D01*
G37*
%LPD*%
%LPC*%
G36*
X956330Y301435D02*
X956330Y301435D01*
X952999Y302815D01*
X950449Y305365D01*
X949069Y308697D01*
X949069Y312303D01*
X950449Y315635D01*
X952999Y318185D01*
X956330Y319565D01*
X959936Y319565D01*
X963268Y318185D01*
X965818Y315635D01*
X967198Y312303D01*
X967198Y308697D01*
X965818Y305365D01*
X963268Y302815D01*
X959936Y301435D01*
X956330Y301435D01*
G37*
%LPD*%
%LPC*%
G36*
X1108730Y301435D02*
X1108730Y301435D01*
X1105399Y302815D01*
X1102849Y305365D01*
X1101469Y308697D01*
X1101469Y312303D01*
X1102849Y315635D01*
X1105399Y318185D01*
X1108730Y319565D01*
X1112336Y319565D01*
X1115668Y318185D01*
X1118218Y315635D01*
X1119598Y312303D01*
X1119598Y308697D01*
X1118218Y305365D01*
X1115668Y302815D01*
X1112336Y301435D01*
X1108730Y301435D01*
G37*
%LPD*%
%LPC*%
G36*
X825064Y301435D02*
X825064Y301435D01*
X821732Y302815D01*
X819182Y305365D01*
X817802Y308697D01*
X817802Y312303D01*
X819182Y315635D01*
X821732Y318185D01*
X825064Y319565D01*
X828670Y319565D01*
X832001Y318185D01*
X834551Y315635D01*
X835931Y312303D01*
X835931Y308697D01*
X834551Y305365D01*
X832001Y302815D01*
X828670Y301435D01*
X825064Y301435D01*
G37*
%LPD*%
%LPC*%
G36*
X1443197Y301435D02*
X1443197Y301435D01*
X1439865Y302815D01*
X1437315Y305365D01*
X1435935Y308697D01*
X1435935Y312303D01*
X1437315Y315635D01*
X1439865Y318185D01*
X1443197Y319565D01*
X1446803Y319565D01*
X1450135Y318185D01*
X1452685Y315635D01*
X1454065Y312303D01*
X1454065Y308697D01*
X1452685Y305365D01*
X1450135Y302815D01*
X1446803Y301435D01*
X1443197Y301435D01*
G37*
%LPD*%
%LPC*%
G36*
X1417797Y301435D02*
X1417797Y301435D01*
X1414465Y302815D01*
X1411915Y305365D01*
X1410535Y308697D01*
X1410535Y312303D01*
X1411915Y315635D01*
X1414465Y318185D01*
X1417797Y319565D01*
X1421403Y319565D01*
X1424735Y318185D01*
X1427285Y315635D01*
X1428665Y312303D01*
X1428665Y308697D01*
X1427285Y305365D01*
X1424735Y302815D01*
X1421403Y301435D01*
X1417797Y301435D01*
G37*
%LPD*%
%LPC*%
G36*
X1392397Y301435D02*
X1392397Y301435D01*
X1389065Y302815D01*
X1386515Y305365D01*
X1385135Y308697D01*
X1385135Y312303D01*
X1386515Y315635D01*
X1389065Y318185D01*
X1392397Y319565D01*
X1396003Y319565D01*
X1399335Y318185D01*
X1401885Y315635D01*
X1403265Y312303D01*
X1403265Y308697D01*
X1401885Y305365D01*
X1399335Y302815D01*
X1396003Y301435D01*
X1392397Y301435D01*
G37*
%LPD*%
%LPC*%
G36*
X1366997Y301435D02*
X1366997Y301435D01*
X1363665Y302815D01*
X1361115Y305365D01*
X1359735Y308697D01*
X1359735Y312303D01*
X1361115Y315635D01*
X1363665Y318185D01*
X1366997Y319565D01*
X1370603Y319565D01*
X1373935Y318185D01*
X1376485Y315635D01*
X1377865Y312303D01*
X1377865Y308697D01*
X1376485Y305365D01*
X1373935Y302815D01*
X1370603Y301435D01*
X1366997Y301435D01*
G37*
%LPD*%
%LPC*%
G36*
X1341597Y301435D02*
X1341597Y301435D01*
X1338265Y302815D01*
X1335715Y305365D01*
X1334335Y308697D01*
X1334335Y312303D01*
X1335715Y315635D01*
X1338265Y318185D01*
X1341597Y319565D01*
X1345203Y319565D01*
X1348535Y318185D01*
X1351085Y315635D01*
X1352465Y312303D01*
X1352465Y308697D01*
X1351085Y305365D01*
X1348535Y302815D01*
X1345203Y301435D01*
X1341597Y301435D01*
G37*
%LPD*%
%LPC*%
G36*
X338197Y326835D02*
X338197Y326835D01*
X334865Y328215D01*
X332315Y330765D01*
X330935Y334097D01*
X330935Y337703D01*
X332315Y341035D01*
X334865Y343585D01*
X338197Y344965D01*
X341803Y344965D01*
X345135Y343585D01*
X347685Y341035D01*
X349065Y337703D01*
X349065Y334097D01*
X347685Y330765D01*
X345135Y328215D01*
X341803Y326835D01*
X338197Y326835D01*
G37*
%LPD*%
%LPC*%
G36*
X647264Y326835D02*
X647264Y326835D01*
X643932Y328215D01*
X641382Y330765D01*
X640002Y334097D01*
X640002Y337703D01*
X641382Y341035D01*
X643932Y343585D01*
X647264Y344965D01*
X650870Y344965D01*
X654201Y343585D01*
X656751Y341035D01*
X658131Y337703D01*
X658131Y334097D01*
X656751Y330765D01*
X654201Y328215D01*
X650870Y326835D01*
X647264Y326835D01*
G37*
%LPD*%
%LPC*%
G36*
X956330Y326835D02*
X956330Y326835D01*
X952999Y328215D01*
X950449Y330765D01*
X949069Y334097D01*
X949069Y337703D01*
X950449Y341035D01*
X952999Y343585D01*
X956330Y344965D01*
X959936Y344965D01*
X963268Y343585D01*
X965818Y341035D01*
X967198Y337703D01*
X967198Y334097D01*
X965818Y330765D01*
X963268Y328215D01*
X959936Y326835D01*
X956330Y326835D01*
G37*
%LPD*%
%LPC*%
G36*
X1265397Y326835D02*
X1265397Y326835D01*
X1262065Y328215D01*
X1259515Y330765D01*
X1258135Y334097D01*
X1258135Y337703D01*
X1259515Y341035D01*
X1262065Y343585D01*
X1265397Y344965D01*
X1269003Y344965D01*
X1272335Y343585D01*
X1274885Y341035D01*
X1276265Y337703D01*
X1276265Y334097D01*
X1274885Y330765D01*
X1272335Y328215D01*
X1269003Y326835D01*
X1265397Y326835D01*
G37*
%LPD*%
%LPC*%
G36*
X224097Y332635D02*
X224097Y332635D01*
X220765Y334015D01*
X218215Y336565D01*
X216835Y339897D01*
X216835Y343503D01*
X218215Y346835D01*
X220765Y349385D01*
X224097Y350765D01*
X227703Y350765D01*
X231035Y349385D01*
X233585Y346835D01*
X234965Y343503D01*
X234965Y339897D01*
X233585Y336565D01*
X231035Y334015D01*
X227703Y332635D01*
X224097Y332635D01*
G37*
%LPD*%
%LPC*%
G36*
X956330Y352235D02*
X956330Y352235D01*
X952999Y353615D01*
X950449Y356165D01*
X949069Y359497D01*
X949069Y363103D01*
X950449Y366435D01*
X952999Y368985D01*
X956330Y370365D01*
X959936Y370365D01*
X963268Y368985D01*
X965818Y366435D01*
X967198Y363103D01*
X967198Y359497D01*
X965818Y356165D01*
X963268Y353615D01*
X959936Y352235D01*
X956330Y352235D01*
G37*
%LPD*%
%LPC*%
G36*
X1392397Y428435D02*
X1392397Y428435D01*
X1389065Y429815D01*
X1386515Y432365D01*
X1385135Y435697D01*
X1385135Y439303D01*
X1386515Y442635D01*
X1389065Y445185D01*
X1392397Y446565D01*
X1396003Y446565D01*
X1399335Y445185D01*
X1401885Y442635D01*
X1403265Y439303D01*
X1403265Y435697D01*
X1401885Y432365D01*
X1399335Y429815D01*
X1396003Y428435D01*
X1392397Y428435D01*
G37*
%LPD*%
%LPC*%
G36*
X1265397Y352235D02*
X1265397Y352235D01*
X1262065Y353615D01*
X1259515Y356165D01*
X1258135Y359497D01*
X1258135Y363103D01*
X1259515Y366435D01*
X1262065Y368985D01*
X1265397Y370365D01*
X1269003Y370365D01*
X1272335Y368985D01*
X1274885Y366435D01*
X1276265Y363103D01*
X1276265Y359497D01*
X1274885Y356165D01*
X1272335Y353615D01*
X1269003Y352235D01*
X1265397Y352235D01*
G37*
%LPD*%
%LPC*%
G36*
X338197Y352235D02*
X338197Y352235D01*
X334865Y353615D01*
X332315Y356165D01*
X330935Y359497D01*
X330935Y363103D01*
X332315Y366435D01*
X334865Y368985D01*
X338197Y370365D01*
X341803Y370365D01*
X345135Y368985D01*
X347685Y366435D01*
X349065Y363103D01*
X349065Y359497D01*
X347685Y356165D01*
X345135Y353615D01*
X341803Y352235D01*
X338197Y352235D01*
G37*
%LPD*%
%LPC*%
G36*
X224097Y358035D02*
X224097Y358035D01*
X220765Y359415D01*
X218215Y361965D01*
X216835Y365297D01*
X216835Y368903D01*
X218215Y372235D01*
X220765Y374785D01*
X224097Y376165D01*
X227703Y376165D01*
X231035Y374785D01*
X233585Y372235D01*
X234965Y368903D01*
X234965Y365297D01*
X233585Y361965D01*
X231035Y359415D01*
X227703Y358035D01*
X224097Y358035D01*
G37*
%LPD*%
%LPC*%
G36*
X224097Y383435D02*
X224097Y383435D01*
X220765Y384815D01*
X218215Y387365D01*
X216835Y390697D01*
X216835Y394303D01*
X218215Y397635D01*
X220765Y400185D01*
X224097Y401565D01*
X227703Y401565D01*
X231035Y400185D01*
X233585Y397635D01*
X234965Y394303D01*
X234965Y390697D01*
X233585Y387365D01*
X231035Y384815D01*
X227703Y383435D01*
X224097Y383435D01*
G37*
%LPD*%
%LPC*%
G36*
X1265397Y301435D02*
X1265397Y301435D01*
X1262065Y302815D01*
X1259515Y305365D01*
X1258135Y308697D01*
X1258135Y312303D01*
X1259515Y315635D01*
X1262065Y318185D01*
X1265397Y319565D01*
X1269003Y319565D01*
X1272335Y318185D01*
X1274885Y315635D01*
X1276265Y312303D01*
X1276265Y308697D01*
X1274885Y305365D01*
X1272335Y302815D01*
X1269003Y301435D01*
X1265397Y301435D01*
G37*
%LPD*%
%LPC*%
G36*
X1134130Y301435D02*
X1134130Y301435D01*
X1130799Y302815D01*
X1128249Y305365D01*
X1126869Y308697D01*
X1126869Y312303D01*
X1128249Y315635D01*
X1130799Y318185D01*
X1134130Y319565D01*
X1137736Y319565D01*
X1141068Y318185D01*
X1143618Y315635D01*
X1144998Y312303D01*
X1144998Y308697D01*
X1143618Y305365D01*
X1141068Y302815D01*
X1137736Y301435D01*
X1134130Y301435D01*
G37*
%LPD*%
%LPC*%
G36*
X1083330Y301435D02*
X1083330Y301435D01*
X1079999Y302815D01*
X1077449Y305365D01*
X1076069Y308697D01*
X1076069Y312303D01*
X1077449Y315635D01*
X1079999Y318185D01*
X1083330Y319565D01*
X1086936Y319565D01*
X1090268Y318185D01*
X1092818Y315635D01*
X1094198Y312303D01*
X1094198Y308697D01*
X1092818Y305365D01*
X1090268Y302815D01*
X1086936Y301435D01*
X1083330Y301435D01*
G37*
%LPD*%
%LPC*%
G36*
X1057930Y301435D02*
X1057930Y301435D01*
X1054599Y302815D01*
X1052049Y305365D01*
X1050669Y308697D01*
X1050669Y312303D01*
X1052049Y315635D01*
X1054599Y318185D01*
X1057930Y319565D01*
X1061536Y319565D01*
X1064868Y318185D01*
X1067418Y315635D01*
X1068798Y312303D01*
X1068798Y308697D01*
X1067418Y305365D01*
X1064868Y302815D01*
X1061536Y301435D01*
X1057930Y301435D01*
G37*
%LPD*%
%LPC*%
G36*
X1032530Y301435D02*
X1032530Y301435D01*
X1029199Y302815D01*
X1026649Y305365D01*
X1025269Y308697D01*
X1025269Y312303D01*
X1026649Y315635D01*
X1029199Y318185D01*
X1032530Y319565D01*
X1036136Y319565D01*
X1039468Y318185D01*
X1042018Y315635D01*
X1043398Y312303D01*
X1043398Y308697D01*
X1042018Y305365D01*
X1039468Y302815D01*
X1036136Y301435D01*
X1032530Y301435D01*
G37*
%LPD*%
%LPC*%
G36*
X981730Y301435D02*
X981730Y301435D01*
X978399Y302815D01*
X975849Y305365D01*
X974469Y308697D01*
X974469Y312303D01*
X975849Y315635D01*
X978399Y318185D01*
X981730Y319565D01*
X985336Y319565D01*
X988668Y318185D01*
X991218Y315635D01*
X992598Y312303D01*
X992598Y308697D01*
X991218Y305365D01*
X988668Y302815D01*
X985336Y301435D01*
X981730Y301435D01*
G37*
%LPD*%
%LPC*%
G36*
X363597Y301435D02*
X363597Y301435D01*
X360265Y302815D01*
X357715Y305365D01*
X356335Y308697D01*
X356335Y312303D01*
X357715Y315635D01*
X360265Y318185D01*
X363597Y319565D01*
X367203Y319565D01*
X370535Y318185D01*
X373085Y315635D01*
X374465Y312303D01*
X374465Y308697D01*
X373085Y305365D01*
X370535Y302815D01*
X367203Y301435D01*
X363597Y301435D01*
G37*
%LPD*%
%LPC*%
G36*
X338197Y301435D02*
X338197Y301435D01*
X334865Y302815D01*
X332315Y305365D01*
X330935Y308697D01*
X330935Y312303D01*
X332315Y315635D01*
X334865Y318185D01*
X338197Y319565D01*
X341803Y319565D01*
X345135Y318185D01*
X347685Y315635D01*
X349065Y312303D01*
X349065Y308697D01*
X347685Y305365D01*
X345135Y302815D01*
X341803Y301435D01*
X338197Y301435D01*
G37*
%LPD*%
%LPC*%
G36*
X799664Y301435D02*
X799664Y301435D01*
X796332Y302815D01*
X793782Y305365D01*
X792402Y308697D01*
X792402Y312303D01*
X793782Y315635D01*
X796332Y318185D01*
X799664Y319565D01*
X803270Y319565D01*
X806601Y318185D01*
X809151Y315635D01*
X810531Y312303D01*
X810531Y308697D01*
X809151Y305365D01*
X806601Y302815D01*
X803270Y301435D01*
X799664Y301435D01*
G37*
%LPD*%
%LPC*%
G36*
X1417797Y428435D02*
X1417797Y428435D01*
X1414465Y429815D01*
X1411915Y432365D01*
X1410535Y435697D01*
X1410535Y439303D01*
X1411915Y442635D01*
X1414465Y445185D01*
X1417797Y446565D01*
X1421403Y446565D01*
X1424735Y445185D01*
X1427285Y442635D01*
X1428665Y439303D01*
X1428665Y435697D01*
X1427285Y432365D01*
X1424735Y429815D01*
X1421403Y428435D01*
X1417797Y428435D01*
G37*
%LPD*%
%LPC*%
G36*
X97097Y434835D02*
X97097Y434835D01*
X93765Y436215D01*
X91215Y438765D01*
X89835Y442097D01*
X89835Y445703D01*
X91215Y449035D01*
X93765Y451585D01*
X97097Y452965D01*
X100703Y452965D01*
X104035Y451585D01*
X106585Y449035D01*
X107965Y445703D01*
X107965Y442097D01*
X106585Y438765D01*
X104035Y436215D01*
X100703Y434835D01*
X97097Y434835D01*
G37*
%LPD*%
%LPC*%
G36*
X122497Y434835D02*
X122497Y434835D01*
X119165Y436215D01*
X116615Y438765D01*
X115235Y442097D01*
X115235Y445703D01*
X116615Y449035D01*
X119165Y451585D01*
X122497Y452965D01*
X126103Y452965D01*
X129435Y451585D01*
X131985Y449035D01*
X133365Y445703D01*
X133365Y442097D01*
X131985Y438765D01*
X129435Y436215D01*
X126103Y434835D01*
X122497Y434835D01*
G37*
%LPD*%
%LPC*%
G36*
X46297Y434835D02*
X46297Y434835D01*
X42965Y436215D01*
X40415Y438765D01*
X39035Y442097D01*
X39035Y445703D01*
X40415Y449035D01*
X42965Y451585D01*
X46297Y452965D01*
X49903Y452965D01*
X53235Y451585D01*
X55785Y449035D01*
X57165Y445703D01*
X57165Y442097D01*
X55785Y438765D01*
X53235Y436215D01*
X49903Y434835D01*
X46297Y434835D01*
G37*
%LPD*%
%LPC*%
G36*
X71697Y434835D02*
X71697Y434835D01*
X68365Y436215D01*
X65815Y438765D01*
X64435Y442097D01*
X64435Y445703D01*
X65815Y449035D01*
X68365Y451585D01*
X71697Y452965D01*
X75303Y452965D01*
X78635Y451585D01*
X81185Y449035D01*
X82565Y445703D01*
X82565Y442097D01*
X81185Y438765D01*
X78635Y436215D01*
X75303Y434835D01*
X71697Y434835D01*
G37*
%LPD*%
%LPC*%
G36*
X173297Y434835D02*
X173297Y434835D01*
X169965Y436215D01*
X167415Y438765D01*
X166035Y442097D01*
X166035Y445703D01*
X167415Y449035D01*
X169965Y451585D01*
X173297Y452965D01*
X176903Y452965D01*
X180235Y451585D01*
X182785Y449035D01*
X184165Y445703D01*
X184165Y442097D01*
X182785Y438765D01*
X180235Y436215D01*
X176903Y434835D01*
X173297Y434835D01*
G37*
%LPD*%
%LPC*%
G36*
X224097Y434835D02*
X224097Y434835D01*
X220765Y436215D01*
X218215Y438765D01*
X216835Y442097D01*
X216835Y445703D01*
X218215Y449035D01*
X220765Y451585D01*
X224097Y452965D01*
X227703Y452965D01*
X231035Y451585D01*
X233585Y449035D01*
X234965Y445703D01*
X234965Y442097D01*
X233585Y438765D01*
X231035Y436215D01*
X227703Y434835D01*
X224097Y434835D01*
G37*
%LPD*%
%LPC*%
G36*
X147897Y434835D02*
X147897Y434835D01*
X144565Y436215D01*
X142015Y438765D01*
X140635Y442097D01*
X140635Y445703D01*
X142015Y449035D01*
X144565Y451585D01*
X147897Y452965D01*
X151503Y452965D01*
X154835Y451585D01*
X157385Y449035D01*
X158765Y445703D01*
X158765Y442097D01*
X157385Y438765D01*
X154835Y436215D01*
X151503Y434835D01*
X147897Y434835D01*
G37*
%LPD*%
%LPC*%
G36*
X198697Y434835D02*
X198697Y434835D01*
X195365Y436215D01*
X192815Y438765D01*
X191435Y442097D01*
X191435Y445703D01*
X192815Y449035D01*
X195365Y451585D01*
X198697Y452965D01*
X202303Y452965D01*
X205635Y451585D01*
X208185Y449035D01*
X209565Y445703D01*
X209565Y442097D01*
X208185Y438765D01*
X205635Y436215D01*
X202303Y434835D01*
X198697Y434835D01*
G37*
%LPD*%
%LPC*%
G36*
X1083330Y428435D02*
X1083330Y428435D01*
X1079999Y429815D01*
X1077449Y432365D01*
X1076069Y435697D01*
X1076069Y439303D01*
X1077449Y442635D01*
X1079999Y445185D01*
X1083330Y446565D01*
X1086936Y446565D01*
X1090268Y445185D01*
X1092818Y442635D01*
X1094198Y439303D01*
X1094198Y435697D01*
X1092818Y432365D01*
X1090268Y429815D01*
X1086936Y428435D01*
X1083330Y428435D01*
G37*
%LPD*%
%LPC*%
G36*
X1032530Y428435D02*
X1032530Y428435D01*
X1029199Y429815D01*
X1026649Y432365D01*
X1025269Y435697D01*
X1025269Y439303D01*
X1026649Y442635D01*
X1029199Y445185D01*
X1032530Y446565D01*
X1036136Y446565D01*
X1039468Y445185D01*
X1042018Y442635D01*
X1043398Y439303D01*
X1043398Y435697D01*
X1042018Y432365D01*
X1039468Y429815D01*
X1036136Y428435D01*
X1032530Y428435D01*
G37*
%LPD*%
%LPC*%
G36*
X1007130Y428435D02*
X1007130Y428435D01*
X1003799Y429815D01*
X1001249Y432365D01*
X999869Y435697D01*
X999869Y439303D01*
X1001249Y442635D01*
X1003799Y445185D01*
X1007130Y446565D01*
X1010736Y446565D01*
X1014068Y445185D01*
X1016618Y442635D01*
X1017998Y439303D01*
X1017998Y435697D01*
X1016618Y432365D01*
X1014068Y429815D01*
X1010736Y428435D01*
X1007130Y428435D01*
G37*
%LPD*%
%LPC*%
G36*
X1057930Y428435D02*
X1057930Y428435D01*
X1054599Y429815D01*
X1052049Y432365D01*
X1050669Y435697D01*
X1050669Y439303D01*
X1052049Y442635D01*
X1054599Y445185D01*
X1057930Y446565D01*
X1061536Y446565D01*
X1064868Y445185D01*
X1067418Y442635D01*
X1068798Y439303D01*
X1068798Y435697D01*
X1067418Y432365D01*
X1064868Y429815D01*
X1061536Y428435D01*
X1057930Y428435D01*
G37*
%LPD*%
%LPC*%
G36*
X956330Y428435D02*
X956330Y428435D01*
X952999Y429815D01*
X950449Y432365D01*
X949069Y435697D01*
X949069Y439303D01*
X950449Y442635D01*
X952999Y445185D01*
X956330Y446565D01*
X959936Y446565D01*
X963268Y445185D01*
X965818Y442635D01*
X967198Y439303D01*
X967198Y435697D01*
X965818Y432365D01*
X963268Y429815D01*
X959936Y428435D01*
X956330Y428435D01*
G37*
%LPD*%
%LPC*%
G36*
X1108730Y428435D02*
X1108730Y428435D01*
X1105399Y429815D01*
X1102849Y432365D01*
X1101469Y435697D01*
X1101469Y439303D01*
X1102849Y442635D01*
X1105399Y445185D01*
X1108730Y446565D01*
X1112336Y446565D01*
X1115668Y445185D01*
X1118218Y442635D01*
X1119598Y439303D01*
X1119598Y435697D01*
X1118218Y432365D01*
X1115668Y429815D01*
X1112336Y428435D01*
X1108730Y428435D01*
G37*
%LPD*%
%LPC*%
G36*
X1265397Y428435D02*
X1265397Y428435D01*
X1262065Y429815D01*
X1259515Y432365D01*
X1258135Y435697D01*
X1258135Y439303D01*
X1259515Y442635D01*
X1262065Y445185D01*
X1265397Y446565D01*
X1269003Y446565D01*
X1272335Y445185D01*
X1274885Y442635D01*
X1276265Y439303D01*
X1276265Y435697D01*
X1274885Y432365D01*
X1272335Y429815D01*
X1269003Y428435D01*
X1265397Y428435D01*
G37*
%LPD*%
%LPC*%
G36*
X1316197Y428435D02*
X1316197Y428435D01*
X1312865Y429815D01*
X1310315Y432365D01*
X1308935Y435697D01*
X1308935Y439303D01*
X1310315Y442635D01*
X1312865Y445185D01*
X1316197Y446565D01*
X1319803Y446565D01*
X1323135Y445185D01*
X1325685Y442635D01*
X1327065Y439303D01*
X1327065Y435697D01*
X1325685Y432365D01*
X1323135Y429815D01*
X1319803Y428435D01*
X1316197Y428435D01*
G37*
%LPD*%
%LPC*%
G36*
X1341597Y428435D02*
X1341597Y428435D01*
X1338265Y429815D01*
X1335715Y432365D01*
X1334335Y435697D01*
X1334335Y439303D01*
X1335715Y442635D01*
X1338265Y445185D01*
X1341597Y446565D01*
X1345203Y446565D01*
X1348535Y445185D01*
X1351085Y442635D01*
X1352465Y439303D01*
X1352465Y435697D01*
X1351085Y432365D01*
X1348535Y429815D01*
X1345203Y428435D01*
X1341597Y428435D01*
G37*
%LPD*%
%LPC*%
G36*
X1366997Y428435D02*
X1366997Y428435D01*
X1363665Y429815D01*
X1361115Y432365D01*
X1359735Y435697D01*
X1359735Y439303D01*
X1361115Y442635D01*
X1363665Y445185D01*
X1366997Y446565D01*
X1370603Y446565D01*
X1373935Y445185D01*
X1376485Y442635D01*
X1377865Y439303D01*
X1377865Y435697D01*
X1376485Y432365D01*
X1373935Y429815D01*
X1370603Y428435D01*
X1366997Y428435D01*
G37*
%LPD*%
%LPC*%
G36*
X122497Y281235D02*
X122497Y281235D01*
X119165Y282615D01*
X116615Y285165D01*
X115235Y288497D01*
X115235Y292103D01*
X116615Y295435D01*
X119165Y297985D01*
X122497Y299365D01*
X126103Y299365D01*
X129435Y297985D01*
X131985Y295435D01*
X133365Y292103D01*
X133365Y288497D01*
X131985Y285165D01*
X129435Y282615D01*
X126103Y281235D01*
X122497Y281235D01*
G37*
%LPD*%
%LPC*%
G36*
X147897Y281235D02*
X147897Y281235D01*
X144565Y282615D01*
X142015Y285165D01*
X140635Y288497D01*
X140635Y292103D01*
X142015Y295435D01*
X144565Y297985D01*
X147897Y299365D01*
X151503Y299365D01*
X154835Y297985D01*
X157385Y295435D01*
X158765Y292103D01*
X158765Y288497D01*
X157385Y285165D01*
X154835Y282615D01*
X151503Y281235D01*
X147897Y281235D01*
G37*
%LPD*%
%LPC*%
G36*
X173297Y281235D02*
X173297Y281235D01*
X169965Y282615D01*
X167415Y285165D01*
X166035Y288497D01*
X166035Y292103D01*
X167415Y295435D01*
X169965Y297985D01*
X173297Y299365D01*
X176903Y299365D01*
X180235Y297985D01*
X182785Y295435D01*
X184165Y292103D01*
X184165Y288497D01*
X182785Y285165D01*
X180235Y282615D01*
X176903Y281235D01*
X173297Y281235D01*
G37*
%LPD*%
%LPC*%
G36*
X198697Y281235D02*
X198697Y281235D01*
X195365Y282615D01*
X192815Y285165D01*
X191435Y288497D01*
X191435Y292103D01*
X192815Y295435D01*
X195365Y297985D01*
X198697Y299365D01*
X202303Y299365D01*
X205635Y297985D01*
X208185Y295435D01*
X209565Y292103D01*
X209565Y288497D01*
X208185Y285165D01*
X205635Y282615D01*
X202303Y281235D01*
X198697Y281235D01*
G37*
%LPD*%
%LPC*%
G36*
X97097Y281235D02*
X97097Y281235D01*
X93765Y282615D01*
X91215Y285165D01*
X89835Y288497D01*
X89835Y292103D01*
X91215Y295435D01*
X93765Y297985D01*
X97097Y299365D01*
X100703Y299365D01*
X104035Y297985D01*
X106585Y295435D01*
X107965Y292103D01*
X107965Y288497D01*
X106585Y285165D01*
X104035Y282615D01*
X100703Y281235D01*
X97097Y281235D01*
G37*
%LPD*%
%LPC*%
G36*
X46297Y281235D02*
X46297Y281235D01*
X42965Y282615D01*
X40415Y285165D01*
X39035Y288497D01*
X39035Y292103D01*
X40415Y295435D01*
X42965Y297985D01*
X46297Y299365D01*
X49903Y299365D01*
X53235Y297985D01*
X55785Y295435D01*
X57165Y292103D01*
X57165Y288497D01*
X55785Y285165D01*
X53235Y282615D01*
X49903Y281235D01*
X46297Y281235D01*
G37*
%LPD*%
%LPC*%
G36*
X215336Y586535D02*
X215336Y586535D01*
X212262Y587808D01*
X209909Y590161D01*
X208635Y593236D01*
X208635Y596564D01*
X209909Y599638D01*
X212262Y601991D01*
X215336Y603264D01*
X218664Y603264D01*
X221738Y601991D01*
X224091Y599638D01*
X225365Y596564D01*
X225365Y593236D01*
X224091Y590161D01*
X221738Y587808D01*
X218664Y586535D01*
X215336Y586535D01*
G37*
%LPD*%
%LPC*%
G36*
X195336Y586535D02*
X195336Y586535D01*
X192262Y587808D01*
X189909Y590161D01*
X188635Y593236D01*
X188635Y596564D01*
X189909Y599638D01*
X192262Y601991D01*
X195336Y603264D01*
X198664Y603264D01*
X201738Y601991D01*
X204091Y599638D01*
X205365Y596564D01*
X205365Y593236D01*
X204091Y590161D01*
X201738Y587808D01*
X198664Y586535D01*
X195336Y586535D01*
G37*
%LPD*%
%LPC*%
G36*
X179093Y86485D02*
X179093Y86485D01*
X176019Y87759D01*
X173666Y90112D01*
X172392Y93186D01*
X172392Y96514D01*
X173666Y99588D01*
X176019Y101941D01*
X179093Y103215D01*
X182421Y103215D01*
X185495Y101941D01*
X187848Y99588D01*
X189122Y96514D01*
X189122Y93186D01*
X187848Y90112D01*
X185495Y87759D01*
X182421Y86485D01*
X179093Y86485D01*
G37*
%LPD*%
%LPC*%
G36*
X72172Y86485D02*
X72172Y86485D01*
X69097Y87759D01*
X66744Y90112D01*
X65471Y93186D01*
X65471Y96514D01*
X66744Y99588D01*
X69097Y101941D01*
X72172Y103215D01*
X75499Y103215D01*
X78574Y101941D01*
X80927Y99588D01*
X82200Y96514D01*
X82200Y93186D01*
X80927Y90112D01*
X78574Y87759D01*
X75499Y86485D01*
X72172Y86485D01*
G37*
%LPD*%
%LPC*%
G36*
X388007Y86485D02*
X388007Y86485D01*
X384932Y87759D01*
X382579Y90112D01*
X381306Y93186D01*
X381306Y96514D01*
X382579Y99588D01*
X384932Y101941D01*
X388007Y103215D01*
X391334Y103215D01*
X394409Y101941D01*
X396762Y99588D01*
X398035Y96514D01*
X398035Y93186D01*
X396762Y90112D01*
X394409Y87759D01*
X391334Y86485D01*
X388007Y86485D01*
G37*
%LPD*%
%LPC*%
G36*
X289015Y86485D02*
X289015Y86485D01*
X285940Y87759D01*
X283587Y90112D01*
X282314Y93186D01*
X282314Y96514D01*
X283587Y99588D01*
X285940Y101941D01*
X289015Y103215D01*
X292342Y103215D01*
X295417Y101941D01*
X297770Y99588D01*
X299043Y96514D01*
X299043Y93186D01*
X297770Y90112D01*
X295417Y87759D01*
X292342Y86485D01*
X289015Y86485D01*
G37*
%LPD*%
%LPC*%
G36*
X521422Y85785D02*
X521422Y85785D01*
X518348Y87059D01*
X515995Y89412D01*
X514721Y92486D01*
X514721Y95814D01*
X515995Y98888D01*
X518348Y101241D01*
X521422Y102515D01*
X524750Y102515D01*
X527824Y101241D01*
X530177Y98888D01*
X531451Y95814D01*
X531451Y92486D01*
X530177Y89412D01*
X527824Y87059D01*
X524750Y85785D01*
X521422Y85785D01*
G37*
%LPD*%
%LPC*%
G36*
X1015529Y511935D02*
X1015529Y511935D01*
X1012748Y513087D01*
X1010620Y515215D01*
X1009469Y517995D01*
X1009469Y521005D01*
X1010620Y523785D01*
X1012748Y525913D01*
X1015529Y527065D01*
X1018538Y527065D01*
X1021318Y525913D01*
X1023446Y523785D01*
X1024598Y521005D01*
X1024598Y517995D01*
X1023446Y515215D01*
X1021318Y513087D01*
X1018538Y511935D01*
X1015529Y511935D01*
G37*
%LPD*%
%LPC*%
G36*
X1455495Y167335D02*
X1455495Y167335D01*
X1452715Y168487D01*
X1450587Y170615D01*
X1449435Y173395D01*
X1449435Y176405D01*
X1450587Y179185D01*
X1452715Y181313D01*
X1455495Y182465D01*
X1458505Y182465D01*
X1461285Y181313D01*
X1463413Y179185D01*
X1464565Y176405D01*
X1464565Y173395D01*
X1463413Y170615D01*
X1461285Y168487D01*
X1458505Y167335D01*
X1455495Y167335D01*
G37*
%LPD*%
%LPC*%
G36*
X114395Y587335D02*
X114395Y587335D01*
X111615Y588487D01*
X109487Y590615D01*
X108335Y593395D01*
X108335Y596404D01*
X109487Y599185D01*
X111615Y601313D01*
X114395Y602464D01*
X117405Y602464D01*
X120185Y601313D01*
X122313Y599185D01*
X123465Y596404D01*
X123465Y593395D01*
X122313Y590615D01*
X120185Y588487D01*
X117405Y587335D01*
X114395Y587335D01*
G37*
%LPD*%
%LPC*%
G36*
X94395Y587335D02*
X94395Y587335D01*
X91615Y588487D01*
X89487Y590615D01*
X88335Y593395D01*
X88335Y596404D01*
X89487Y599185D01*
X91615Y601313D01*
X94395Y602464D01*
X97405Y602464D01*
X100185Y601313D01*
X102313Y599185D01*
X103465Y596404D01*
X103465Y593395D01*
X102313Y590615D01*
X100185Y588487D01*
X97405Y587335D01*
X94395Y587335D01*
G37*
%LPD*%
%LPC*%
G36*
X74395Y587335D02*
X74395Y587335D01*
X71615Y588487D01*
X69487Y590615D01*
X68335Y593395D01*
X68335Y596404D01*
X69487Y599185D01*
X71615Y601313D01*
X74395Y602464D01*
X77405Y602464D01*
X80185Y601313D01*
X82313Y599185D01*
X83465Y596404D01*
X83465Y593395D01*
X82313Y590615D01*
X80185Y588487D01*
X77405Y587335D01*
X74395Y587335D01*
G37*
%LPD*%
%LPC*%
G36*
X54395Y587335D02*
X54395Y587335D01*
X51615Y588487D01*
X49487Y590615D01*
X48335Y593395D01*
X48335Y596404D01*
X49487Y599185D01*
X51615Y601313D01*
X54395Y602464D01*
X57405Y602464D01*
X60185Y601313D01*
X62313Y599185D01*
X63465Y596404D01*
X63465Y593395D01*
X62313Y590615D01*
X60185Y588487D01*
X57405Y587335D01*
X54395Y587335D01*
G37*
%LPD*%
%LPC*%
G36*
X706462Y511935D02*
X706462Y511935D01*
X703682Y513087D01*
X701554Y515215D01*
X700402Y517995D01*
X700402Y521005D01*
X701554Y523785D01*
X703682Y525913D01*
X706462Y527065D01*
X709471Y527065D01*
X712252Y525913D01*
X714380Y523785D01*
X715531Y521005D01*
X715531Y517995D01*
X714380Y515215D01*
X712252Y513087D01*
X709471Y511935D01*
X706462Y511935D01*
G37*
%LPD*%
%LPC*%
G36*
X1384595Y511935D02*
X1384595Y511935D01*
X1381815Y513087D01*
X1379687Y515215D01*
X1378535Y517995D01*
X1378535Y521005D01*
X1379687Y523785D01*
X1381815Y525913D01*
X1384595Y527065D01*
X1387605Y527065D01*
X1390385Y525913D01*
X1392513Y523785D01*
X1393665Y521005D01*
X1393665Y517995D01*
X1392513Y515215D01*
X1390385Y513087D01*
X1387605Y511935D01*
X1384595Y511935D01*
G37*
%LPD*%
%LPC*%
G36*
X1364595Y511935D02*
X1364595Y511935D01*
X1361815Y513087D01*
X1359687Y515215D01*
X1358535Y517995D01*
X1358535Y521005D01*
X1359687Y523785D01*
X1361815Y525913D01*
X1364595Y527065D01*
X1367605Y527065D01*
X1370385Y525913D01*
X1372513Y523785D01*
X1373665Y521005D01*
X1373665Y517995D01*
X1372513Y515215D01*
X1370385Y513087D01*
X1367605Y511935D01*
X1364595Y511935D01*
G37*
%LPD*%
%LPC*%
G36*
X1344595Y511935D02*
X1344595Y511935D01*
X1341815Y513087D01*
X1339687Y515215D01*
X1338535Y517995D01*
X1338535Y521005D01*
X1339687Y523785D01*
X1341815Y525913D01*
X1344595Y527065D01*
X1347605Y527065D01*
X1350385Y525913D01*
X1352513Y523785D01*
X1353665Y521005D01*
X1353665Y517995D01*
X1352513Y515215D01*
X1350385Y513087D01*
X1347605Y511935D01*
X1344595Y511935D01*
G37*
%LPD*%
%LPC*%
G36*
X1324595Y511935D02*
X1324595Y511935D01*
X1321815Y513087D01*
X1319687Y515215D01*
X1318535Y517995D01*
X1318535Y521005D01*
X1319687Y523785D01*
X1321815Y525913D01*
X1324595Y527065D01*
X1327605Y527065D01*
X1330385Y525913D01*
X1332513Y523785D01*
X1333665Y521005D01*
X1333665Y517995D01*
X1332513Y515215D01*
X1330385Y513087D01*
X1327605Y511935D01*
X1324595Y511935D01*
G37*
%LPD*%
%LPC*%
G36*
X1075529Y511935D02*
X1075529Y511935D01*
X1072748Y513087D01*
X1070620Y515215D01*
X1069469Y517995D01*
X1069469Y521005D01*
X1070620Y523785D01*
X1072748Y525913D01*
X1075529Y527065D01*
X1078538Y527065D01*
X1081318Y525913D01*
X1083446Y523785D01*
X1084598Y521005D01*
X1084598Y517995D01*
X1083446Y515215D01*
X1081318Y513087D01*
X1078538Y511935D01*
X1075529Y511935D01*
G37*
%LPD*%
%LPC*%
G36*
X1035529Y511935D02*
X1035529Y511935D01*
X1032748Y513087D01*
X1030620Y515215D01*
X1029469Y517995D01*
X1029469Y521005D01*
X1030620Y523785D01*
X1032748Y525913D01*
X1035529Y527065D01*
X1038538Y527065D01*
X1041318Y525913D01*
X1043446Y523785D01*
X1044598Y521005D01*
X1044598Y517995D01*
X1043446Y515215D01*
X1041318Y513087D01*
X1038538Y511935D01*
X1035529Y511935D01*
G37*
%LPD*%
%LPC*%
G36*
X766462Y511935D02*
X766462Y511935D01*
X763682Y513087D01*
X761554Y515215D01*
X760402Y517995D01*
X760402Y521005D01*
X761554Y523785D01*
X763682Y525913D01*
X766462Y527065D01*
X769471Y527065D01*
X772252Y525913D01*
X774380Y523785D01*
X775531Y521005D01*
X775531Y517995D01*
X774380Y515215D01*
X772252Y513087D01*
X769471Y511935D01*
X766462Y511935D01*
G37*
%LPD*%
%LPC*%
G36*
X746462Y511935D02*
X746462Y511935D01*
X743682Y513087D01*
X741554Y515215D01*
X740402Y517995D01*
X740402Y521005D01*
X741554Y523785D01*
X743682Y525913D01*
X746462Y527065D01*
X749471Y527065D01*
X752252Y525913D01*
X754380Y523785D01*
X755531Y521005D01*
X755531Y517995D01*
X754380Y515215D01*
X752252Y513087D01*
X749471Y511935D01*
X746462Y511935D01*
G37*
%LPD*%
%LPC*%
G36*
X726462Y511935D02*
X726462Y511935D01*
X723682Y513087D01*
X721554Y515215D01*
X720402Y517995D01*
X720402Y521005D01*
X721554Y523785D01*
X723682Y525913D01*
X726462Y527065D01*
X729471Y527065D01*
X732252Y525913D01*
X734380Y523785D01*
X735531Y521005D01*
X735531Y517995D01*
X734380Y515215D01*
X732252Y513087D01*
X729471Y511935D01*
X726462Y511935D01*
G37*
%LPD*%
%LPC*%
G36*
X457395Y511935D02*
X457395Y511935D01*
X454615Y513087D01*
X452487Y515215D01*
X451335Y517995D01*
X451335Y521005D01*
X452487Y523785D01*
X454615Y525913D01*
X457395Y527065D01*
X460405Y527065D01*
X463185Y525913D01*
X465313Y523785D01*
X466465Y521005D01*
X466465Y517995D01*
X465313Y515215D01*
X463185Y513087D01*
X460405Y511935D01*
X457395Y511935D01*
G37*
%LPD*%
%LPC*%
G36*
X437395Y511935D02*
X437395Y511935D01*
X434615Y513087D01*
X432487Y515215D01*
X431335Y517995D01*
X431335Y521005D01*
X432487Y523785D01*
X434615Y525913D01*
X437395Y527065D01*
X440405Y527065D01*
X443185Y525913D01*
X445313Y523785D01*
X446465Y521005D01*
X446465Y517995D01*
X445313Y515215D01*
X443185Y513087D01*
X440405Y511935D01*
X437395Y511935D01*
G37*
%LPD*%
%LPC*%
G36*
X417395Y511935D02*
X417395Y511935D01*
X414615Y513087D01*
X412487Y515215D01*
X411335Y517995D01*
X411335Y521005D01*
X412487Y523785D01*
X414615Y525913D01*
X417395Y527065D01*
X420405Y527065D01*
X423185Y525913D01*
X425313Y523785D01*
X426465Y521005D01*
X426465Y517995D01*
X425313Y515215D01*
X423185Y513087D01*
X420405Y511935D01*
X417395Y511935D01*
G37*
%LPD*%
%LPC*%
G36*
X397395Y511935D02*
X397395Y511935D01*
X394615Y513087D01*
X392487Y515215D01*
X391335Y517995D01*
X391335Y521005D01*
X392487Y523785D01*
X394615Y525913D01*
X397395Y527065D01*
X400405Y527065D01*
X403185Y525913D01*
X405313Y523785D01*
X406465Y521005D01*
X406465Y517995D01*
X405313Y515215D01*
X403185Y513087D01*
X400405Y511935D01*
X397395Y511935D01*
G37*
%LPD*%
%LPC*%
G36*
X1055529Y511935D02*
X1055529Y511935D01*
X1052748Y513087D01*
X1050620Y515215D01*
X1049469Y517995D01*
X1049469Y521005D01*
X1050620Y523785D01*
X1052748Y525913D01*
X1055529Y527065D01*
X1058538Y527065D01*
X1061318Y525913D01*
X1063446Y523785D01*
X1064598Y521005D01*
X1064598Y517995D01*
X1063446Y515215D01*
X1061318Y513087D01*
X1058538Y511935D01*
X1055529Y511935D01*
G37*
%LPD*%
%LPC*%
G36*
X1455495Y147335D02*
X1455495Y147335D01*
X1452715Y148487D01*
X1450587Y150615D01*
X1449435Y153395D01*
X1449435Y156405D01*
X1450587Y159185D01*
X1452715Y161313D01*
X1455495Y162465D01*
X1458505Y162465D01*
X1461285Y161313D01*
X1463413Y159185D01*
X1464565Y156405D01*
X1464565Y153395D01*
X1463413Y150615D01*
X1461285Y148487D01*
X1458505Y147335D01*
X1455495Y147335D01*
G37*
%LPD*%
%LPC*%
G36*
X1355802Y61693D02*
X1355802Y61693D01*
X1352693Y64802D01*
X1352693Y69198D01*
X1355802Y72307D01*
X1360198Y72307D01*
X1363307Y69198D01*
X1363307Y64802D01*
X1360198Y61693D01*
X1355802Y61693D01*
G37*
%LPD*%
%LPC*%
G36*
X1137457Y439023D02*
X1137457Y439023D01*
X1137457Y447465D01*
X1138294Y447333D01*
X1139803Y446842D01*
X1141217Y446122D01*
X1142501Y445189D01*
X1143622Y444067D01*
X1144555Y442783D01*
X1145276Y441370D01*
X1145766Y439861D01*
X1145899Y439023D01*
X1137457Y439023D01*
G37*
%LPD*%
%LPC*%
G36*
X1294123Y312023D02*
X1294123Y312023D01*
X1294123Y320465D01*
X1294961Y320333D01*
X1296470Y319842D01*
X1297883Y319122D01*
X1299167Y318189D01*
X1300289Y317067D01*
X1301222Y315783D01*
X1301942Y314370D01*
X1302433Y312861D01*
X1302565Y312023D01*
X1294123Y312023D01*
G37*
%LPD*%
%LPC*%
G36*
X1010457Y312023D02*
X1010457Y312023D01*
X1010457Y320465D01*
X1011294Y320333D01*
X1012803Y319842D01*
X1014217Y319122D01*
X1015501Y318189D01*
X1016622Y317067D01*
X1017555Y315783D01*
X1018276Y314370D01*
X1018766Y312861D01*
X1018899Y312023D01*
X1010457Y312023D01*
G37*
%LPD*%
%LPC*%
G36*
X366923Y439023D02*
X366923Y439023D01*
X366923Y447465D01*
X367761Y447333D01*
X369270Y446842D01*
X370683Y446122D01*
X371967Y445189D01*
X373089Y444067D01*
X374022Y442783D01*
X374742Y441370D01*
X375233Y439861D01*
X375365Y439023D01*
X366923Y439023D01*
G37*
%LPD*%
%LPC*%
G36*
X75023Y291823D02*
X75023Y291823D01*
X75023Y300265D01*
X75861Y300133D01*
X77370Y299642D01*
X78783Y298922D01*
X80067Y297989D01*
X81189Y296867D01*
X82122Y295583D01*
X82842Y294170D01*
X83333Y292661D01*
X83465Y291823D01*
X75023Y291823D01*
G37*
%LPD*%
%LPC*%
G36*
X1319523Y312023D02*
X1319523Y312023D01*
X1319523Y320465D01*
X1320361Y320333D01*
X1321870Y319842D01*
X1323283Y319122D01*
X1324567Y318189D01*
X1325689Y317067D01*
X1326622Y315783D01*
X1327342Y314370D01*
X1327833Y312861D01*
X1327965Y312023D01*
X1319523Y312023D01*
G37*
%LPD*%
%LPC*%
G36*
X675990Y312023D02*
X675990Y312023D01*
X675990Y320465D01*
X676827Y320333D01*
X678336Y319842D01*
X679750Y319122D01*
X681034Y318189D01*
X682156Y317067D01*
X683089Y315783D01*
X683809Y314370D01*
X684299Y312861D01*
X684432Y312023D01*
X675990Y312023D01*
G37*
%LPD*%
%LPC*%
G36*
X519323Y439023D02*
X519323Y439023D01*
X519323Y447465D01*
X520161Y447333D01*
X521670Y446842D01*
X523083Y446122D01*
X524367Y445189D01*
X525489Y444067D01*
X526422Y442783D01*
X527142Y441370D01*
X527633Y439861D01*
X527765Y439023D01*
X519323Y439023D01*
G37*
%LPD*%
%LPC*%
G36*
X675990Y439023D02*
X675990Y439023D01*
X675990Y447465D01*
X676827Y447333D01*
X678336Y446842D01*
X679750Y446122D01*
X681034Y445189D01*
X682156Y444067D01*
X683089Y442783D01*
X683809Y441370D01*
X684299Y439861D01*
X684432Y439023D01*
X675990Y439023D01*
G37*
%LPD*%
%LPC*%
G36*
X1446523Y439023D02*
X1446523Y439023D01*
X1446523Y447465D01*
X1447361Y447333D01*
X1448870Y446842D01*
X1450283Y446122D01*
X1451567Y445189D01*
X1452689Y444067D01*
X1453622Y442783D01*
X1454342Y441370D01*
X1454833Y439861D01*
X1454965Y439023D01*
X1446523Y439023D01*
G37*
%LPD*%
%LPC*%
G36*
X828390Y439023D02*
X828390Y439023D01*
X828390Y447465D01*
X829227Y447333D01*
X830736Y446842D01*
X832150Y446122D01*
X833434Y445189D01*
X834556Y444067D01*
X835489Y442783D01*
X836209Y441370D01*
X836699Y439861D01*
X836832Y439023D01*
X828390Y439023D01*
G37*
%LPD*%
%LPC*%
G36*
X985057Y439023D02*
X985057Y439023D01*
X985057Y447465D01*
X985894Y447333D01*
X987403Y446842D01*
X988817Y446122D01*
X990101Y445189D01*
X991222Y444067D01*
X992155Y442783D01*
X992876Y441370D01*
X993366Y439861D01*
X993499Y439023D01*
X985057Y439023D01*
G37*
%LPD*%
%LPC*%
G36*
X227423Y291823D02*
X227423Y291823D01*
X227423Y300265D01*
X228261Y300133D01*
X229770Y299642D01*
X231183Y298922D01*
X232467Y297989D01*
X233589Y296867D01*
X234522Y295583D01*
X235242Y294170D01*
X235733Y292661D01*
X235865Y291823D01*
X227423Y291823D01*
G37*
%LPD*%
%LPC*%
G36*
X1294123Y439023D02*
X1294123Y439023D01*
X1294123Y447465D01*
X1294961Y447333D01*
X1296470Y446842D01*
X1297883Y446122D01*
X1299167Y445189D01*
X1300289Y444067D01*
X1301222Y442783D01*
X1301942Y441370D01*
X1302433Y439861D01*
X1302565Y439023D01*
X1294123Y439023D01*
G37*
%LPD*%
%LPC*%
G36*
X1319523Y308977D02*
X1319523Y308977D01*
X1327965Y308977D01*
X1327833Y308139D01*
X1327342Y306630D01*
X1326622Y305217D01*
X1325689Y303933D01*
X1324567Y302811D01*
X1323283Y301878D01*
X1321870Y301158D01*
X1320361Y300667D01*
X1319523Y300535D01*
X1319523Y308977D01*
G37*
%LPD*%
%LPC*%
G36*
X215935Y291823D02*
X215935Y291823D01*
X216067Y292661D01*
X216558Y294170D01*
X217278Y295583D01*
X218211Y296867D01*
X219333Y297989D01*
X220617Y298922D01*
X222030Y299642D01*
X223539Y300133D01*
X224377Y300265D01*
X224377Y291823D01*
X215935Y291823D01*
G37*
%LPD*%
%LPC*%
G36*
X63535Y291823D02*
X63535Y291823D01*
X63667Y292661D01*
X64158Y294170D01*
X64878Y295583D01*
X65811Y296867D01*
X66933Y297989D01*
X68217Y298922D01*
X69630Y299642D01*
X71139Y300133D01*
X71977Y300265D01*
X71977Y291823D01*
X63535Y291823D01*
G37*
%LPD*%
%LPC*%
G36*
X1294123Y308977D02*
X1294123Y308977D01*
X1302565Y308977D01*
X1302433Y308139D01*
X1301942Y306630D01*
X1301222Y305217D01*
X1300289Y303933D01*
X1299167Y302811D01*
X1297883Y301878D01*
X1296470Y301158D01*
X1294961Y300667D01*
X1294123Y300535D01*
X1294123Y308977D01*
G37*
%LPD*%
%LPC*%
G36*
X675990Y308977D02*
X675990Y308977D01*
X684432Y308977D01*
X684299Y308139D01*
X683809Y306630D01*
X683089Y305217D01*
X682156Y303933D01*
X681034Y302811D01*
X679750Y301878D01*
X678336Y301158D01*
X676827Y300667D01*
X675990Y300535D01*
X675990Y308977D01*
G37*
%LPD*%
%LPC*%
G36*
X1010457Y308977D02*
X1010457Y308977D01*
X1018899Y308977D01*
X1018766Y308139D01*
X1018276Y306630D01*
X1017555Y305217D01*
X1016622Y303933D01*
X1015501Y302811D01*
X1014217Y301878D01*
X1012803Y301158D01*
X1011294Y300667D01*
X1010457Y300535D01*
X1010457Y308977D01*
G37*
%LPD*%
%LPC*%
G36*
X227423Y288777D02*
X227423Y288777D01*
X235865Y288777D01*
X235733Y287939D01*
X235242Y286430D01*
X234522Y285017D01*
X233589Y283733D01*
X232467Y282611D01*
X231183Y281678D01*
X229770Y280958D01*
X228261Y280467D01*
X227423Y280335D01*
X227423Y288777D01*
G37*
%LPD*%
%LPC*%
G36*
X973568Y439023D02*
X973568Y439023D01*
X973701Y439861D01*
X974191Y441370D01*
X974912Y442783D01*
X975844Y444067D01*
X976966Y445189D01*
X978250Y446122D01*
X979664Y446842D01*
X981173Y447333D01*
X982010Y447465D01*
X982010Y439023D01*
X973568Y439023D01*
G37*
%LPD*%
%LPC*%
G36*
X75023Y288777D02*
X75023Y288777D01*
X83465Y288777D01*
X83333Y287939D01*
X82842Y286430D01*
X82122Y285017D01*
X81189Y283733D01*
X80067Y282611D01*
X78783Y281678D01*
X77370Y280958D01*
X75861Y280467D01*
X75023Y280335D01*
X75023Y288777D01*
G37*
%LPD*%
%LPC*%
G36*
X1435035Y439023D02*
X1435035Y439023D01*
X1435168Y439861D01*
X1435658Y441370D01*
X1436378Y442783D01*
X1437311Y444067D01*
X1438433Y445189D01*
X1439717Y446122D01*
X1441130Y446842D01*
X1442640Y447333D01*
X1443477Y447465D01*
X1443477Y439023D01*
X1435035Y439023D01*
G37*
%LPD*%
%LPC*%
G36*
X1282635Y439023D02*
X1282635Y439023D01*
X1282768Y439861D01*
X1283258Y441370D01*
X1283978Y442783D01*
X1284911Y444067D01*
X1286033Y445189D01*
X1287317Y446122D01*
X1288730Y446842D01*
X1290240Y447333D01*
X1291077Y447465D01*
X1291077Y439023D01*
X1282635Y439023D01*
G37*
%LPD*%
%LPC*%
G36*
X1125968Y439023D02*
X1125968Y439023D01*
X1126101Y439861D01*
X1126591Y441370D01*
X1127312Y442783D01*
X1128244Y444067D01*
X1129366Y445189D01*
X1130650Y446122D01*
X1132064Y446842D01*
X1133573Y447333D01*
X1134410Y447465D01*
X1134410Y439023D01*
X1125968Y439023D01*
G37*
%LPD*%
%LPC*%
G36*
X816902Y439023D02*
X816902Y439023D01*
X817034Y439861D01*
X817525Y441370D01*
X818245Y442783D01*
X819178Y444067D01*
X820299Y445189D01*
X821583Y446122D01*
X822997Y446842D01*
X824506Y447333D01*
X825343Y447465D01*
X825343Y439023D01*
X816902Y439023D01*
G37*
%LPD*%
%LPC*%
G36*
X507835Y439023D02*
X507835Y439023D01*
X507967Y439861D01*
X508458Y441370D01*
X509178Y442783D01*
X510111Y444067D01*
X511233Y445189D01*
X512517Y446122D01*
X513930Y446842D01*
X515439Y447333D01*
X516277Y447465D01*
X516277Y439023D01*
X507835Y439023D01*
G37*
%LPD*%
%LPC*%
G36*
X355435Y439023D02*
X355435Y439023D01*
X355567Y439861D01*
X356058Y441370D01*
X356778Y442783D01*
X357711Y444067D01*
X358833Y445189D01*
X360117Y446122D01*
X361530Y446842D01*
X363039Y447333D01*
X363877Y447465D01*
X363877Y439023D01*
X355435Y439023D01*
G37*
%LPD*%
%LPC*%
G36*
X664502Y439023D02*
X664502Y439023D01*
X664634Y439861D01*
X665125Y441370D01*
X665845Y442783D01*
X666778Y444067D01*
X667899Y445189D01*
X669183Y446122D01*
X670597Y446842D01*
X672106Y447333D01*
X672943Y447465D01*
X672943Y439023D01*
X664502Y439023D01*
G37*
%LPD*%
%LPC*%
G36*
X664502Y312023D02*
X664502Y312023D01*
X664634Y312861D01*
X665125Y314370D01*
X665845Y315783D01*
X666778Y317067D01*
X667899Y318189D01*
X669183Y319122D01*
X670597Y319842D01*
X672106Y320333D01*
X672943Y320465D01*
X672943Y312023D01*
X664502Y312023D01*
G37*
%LPD*%
%LPC*%
G36*
X998968Y312023D02*
X998968Y312023D01*
X999101Y312861D01*
X999591Y314370D01*
X1000312Y315783D01*
X1001244Y317067D01*
X1002366Y318189D01*
X1003650Y319122D01*
X1005064Y319842D01*
X1006573Y320333D01*
X1007410Y320465D01*
X1007410Y312023D01*
X998968Y312023D01*
G37*
%LPD*%
%LPC*%
G36*
X1282635Y312023D02*
X1282635Y312023D01*
X1282768Y312861D01*
X1283258Y314370D01*
X1283978Y315783D01*
X1284911Y317067D01*
X1286033Y318189D01*
X1287317Y319122D01*
X1288730Y319842D01*
X1290240Y320333D01*
X1291077Y320465D01*
X1291077Y312023D01*
X1282635Y312023D01*
G37*
%LPD*%
%LPC*%
G36*
X1308035Y312023D02*
X1308035Y312023D01*
X1308168Y312861D01*
X1308658Y314370D01*
X1309378Y315783D01*
X1310311Y317067D01*
X1311433Y318189D01*
X1312717Y319122D01*
X1314130Y319842D01*
X1315640Y320333D01*
X1316477Y320465D01*
X1316477Y312023D01*
X1308035Y312023D01*
G37*
%LPD*%
%LPC*%
G36*
X1294123Y435977D02*
X1294123Y435977D01*
X1302565Y435977D01*
X1302433Y435139D01*
X1301942Y433630D01*
X1301222Y432217D01*
X1300289Y430933D01*
X1299167Y429811D01*
X1297883Y428878D01*
X1296470Y428158D01*
X1294961Y427667D01*
X1294123Y427535D01*
X1294123Y435977D01*
G37*
%LPD*%
%LPC*%
G36*
X366923Y435977D02*
X366923Y435977D01*
X375365Y435977D01*
X375233Y435139D01*
X374742Y433630D01*
X374022Y432217D01*
X373089Y430933D01*
X371967Y429811D01*
X370683Y428878D01*
X369270Y428158D01*
X367761Y427667D01*
X366923Y427535D01*
X366923Y435977D01*
G37*
%LPD*%
%LPC*%
G36*
X519323Y435977D02*
X519323Y435977D01*
X527765Y435977D01*
X527633Y435139D01*
X527142Y433630D01*
X526422Y432217D01*
X525489Y430933D01*
X524367Y429811D01*
X523083Y428878D01*
X521670Y428158D01*
X520161Y427667D01*
X519323Y427535D01*
X519323Y435977D01*
G37*
%LPD*%
%LPC*%
G36*
X1137457Y435977D02*
X1137457Y435977D01*
X1145899Y435977D01*
X1145766Y435139D01*
X1145276Y433630D01*
X1144555Y432217D01*
X1143622Y430933D01*
X1142501Y429811D01*
X1141217Y428878D01*
X1139803Y428158D01*
X1138294Y427667D01*
X1137457Y427535D01*
X1137457Y435977D01*
G37*
%LPD*%
%LPC*%
G36*
X828390Y435977D02*
X828390Y435977D01*
X836832Y435977D01*
X836699Y435139D01*
X836209Y433630D01*
X835489Y432217D01*
X834556Y430933D01*
X833434Y429811D01*
X832150Y428878D01*
X830736Y428158D01*
X829227Y427667D01*
X828390Y427535D01*
X828390Y435977D01*
G37*
%LPD*%
%LPC*%
G36*
X675990Y435977D02*
X675990Y435977D01*
X684432Y435977D01*
X684299Y435139D01*
X683809Y433630D01*
X683089Y432217D01*
X682156Y430933D01*
X681034Y429811D01*
X679750Y428878D01*
X678336Y428158D01*
X676827Y427667D01*
X675990Y427535D01*
X675990Y435977D01*
G37*
%LPD*%
%LPC*%
G36*
X1446523Y435977D02*
X1446523Y435977D01*
X1454965Y435977D01*
X1454833Y435139D01*
X1454342Y433630D01*
X1453622Y432217D01*
X1452689Y430933D01*
X1451567Y429811D01*
X1450283Y428878D01*
X1448870Y428158D01*
X1447361Y427667D01*
X1446523Y427535D01*
X1446523Y435977D01*
G37*
%LPD*%
%LPC*%
G36*
X985057Y435977D02*
X985057Y435977D01*
X993499Y435977D01*
X993366Y435139D01*
X992876Y433630D01*
X992155Y432217D01*
X991222Y430933D01*
X990101Y429811D01*
X988817Y428878D01*
X987403Y428158D01*
X985894Y427667D01*
X985057Y427535D01*
X985057Y435977D01*
G37*
%LPD*%
%LPC*%
G36*
X1290240Y427667D02*
X1290240Y427667D01*
X1288730Y428158D01*
X1287317Y428878D01*
X1286033Y429811D01*
X1284911Y430933D01*
X1283978Y432217D01*
X1283258Y433630D01*
X1282768Y435139D01*
X1282635Y435977D01*
X1291077Y435977D01*
X1291077Y427535D01*
X1290240Y427667D01*
G37*
%LPD*%
%LPC*%
G36*
X672106Y427667D02*
X672106Y427667D01*
X670597Y428158D01*
X669183Y428878D01*
X667899Y429811D01*
X666778Y430933D01*
X665845Y432217D01*
X665125Y433630D01*
X664634Y435139D01*
X664502Y435977D01*
X672943Y435977D01*
X672943Y427535D01*
X672106Y427667D01*
G37*
%LPD*%
%LPC*%
G36*
X223539Y280467D02*
X223539Y280467D01*
X222030Y280958D01*
X220617Y281678D01*
X219333Y282611D01*
X218211Y283733D01*
X217278Y285017D01*
X216558Y286430D01*
X216067Y287939D01*
X215935Y288777D01*
X224377Y288777D01*
X224377Y280335D01*
X223539Y280467D01*
G37*
%LPD*%
%LPC*%
G36*
X71139Y280467D02*
X71139Y280467D01*
X69630Y280958D01*
X68217Y281678D01*
X66933Y282611D01*
X65811Y283733D01*
X64878Y285017D01*
X64158Y286430D01*
X63667Y287939D01*
X63535Y288777D01*
X71977Y288777D01*
X71977Y280335D01*
X71139Y280467D01*
G37*
%LPD*%
%LPC*%
G36*
X981173Y427667D02*
X981173Y427667D01*
X979664Y428158D01*
X978250Y428878D01*
X976966Y429811D01*
X975844Y430933D01*
X974912Y432217D01*
X974191Y433630D01*
X973701Y435139D01*
X973568Y435977D01*
X982010Y435977D01*
X982010Y427535D01*
X981173Y427667D01*
G37*
%LPD*%
%LPC*%
G36*
X363039Y427667D02*
X363039Y427667D01*
X361530Y428158D01*
X360117Y428878D01*
X358833Y429811D01*
X357711Y430933D01*
X356778Y432217D01*
X356058Y433630D01*
X355567Y435139D01*
X355435Y435977D01*
X363877Y435977D01*
X363877Y427535D01*
X363039Y427667D01*
G37*
%LPD*%
%LPC*%
G36*
X515439Y427667D02*
X515439Y427667D01*
X513930Y428158D01*
X512517Y428878D01*
X511233Y429811D01*
X510111Y430933D01*
X509178Y432217D01*
X508458Y433630D01*
X507967Y435139D01*
X507835Y435977D01*
X516277Y435977D01*
X516277Y427535D01*
X515439Y427667D01*
G37*
%LPD*%
%LPC*%
G36*
X1133573Y427667D02*
X1133573Y427667D01*
X1132064Y428158D01*
X1130650Y428878D01*
X1129366Y429811D01*
X1128244Y430933D01*
X1127312Y432217D01*
X1126591Y433630D01*
X1126101Y435139D01*
X1125968Y435977D01*
X1134410Y435977D01*
X1134410Y427535D01*
X1133573Y427667D01*
G37*
%LPD*%
%LPC*%
G36*
X824506Y427667D02*
X824506Y427667D01*
X822997Y428158D01*
X821583Y428878D01*
X820299Y429811D01*
X819178Y430933D01*
X818245Y432217D01*
X817525Y433630D01*
X817034Y435139D01*
X816902Y435977D01*
X825343Y435977D01*
X825343Y427535D01*
X824506Y427667D01*
G37*
%LPD*%
%LPC*%
G36*
X1442640Y427667D02*
X1442640Y427667D01*
X1441130Y428158D01*
X1439717Y428878D01*
X1438433Y429811D01*
X1437311Y430933D01*
X1436378Y432217D01*
X1435658Y433630D01*
X1435168Y435139D01*
X1435035Y435977D01*
X1443477Y435977D01*
X1443477Y427535D01*
X1442640Y427667D01*
G37*
%LPD*%
%LPC*%
G36*
X1006573Y300667D02*
X1006573Y300667D01*
X1005064Y301158D01*
X1003650Y301878D01*
X1002366Y302811D01*
X1001244Y303933D01*
X1000312Y305217D01*
X999591Y306630D01*
X999101Y308139D01*
X998968Y308977D01*
X1007410Y308977D01*
X1007410Y300535D01*
X1006573Y300667D01*
G37*
%LPD*%
%LPC*%
G36*
X1315640Y300667D02*
X1315640Y300667D01*
X1314130Y301158D01*
X1312717Y301878D01*
X1311433Y302811D01*
X1310311Y303933D01*
X1309378Y305217D01*
X1308658Y306630D01*
X1308168Y308139D01*
X1308035Y308977D01*
X1316477Y308977D01*
X1316477Y300535D01*
X1315640Y300667D01*
G37*
%LPD*%
%LPC*%
G36*
X672106Y300667D02*
X672106Y300667D01*
X670597Y301158D01*
X669183Y301878D01*
X667899Y302811D01*
X666778Y303933D01*
X665845Y305217D01*
X665125Y306630D01*
X664634Y308139D01*
X664502Y308977D01*
X672943Y308977D01*
X672943Y300535D01*
X672106Y300667D01*
G37*
%LPD*%
%LPC*%
G36*
X1290240Y300667D02*
X1290240Y300667D01*
X1288730Y301158D01*
X1287317Y301878D01*
X1286033Y302811D01*
X1284911Y303933D01*
X1283978Y305217D01*
X1283258Y306630D01*
X1282768Y308139D01*
X1282635Y308977D01*
X1291077Y308977D01*
X1291077Y300535D01*
X1290240Y300667D01*
G37*
%LPD*%
%LPC*%
G36*
X524609Y75673D02*
X524609Y75673D01*
X524609Y83412D01*
X525822Y83170D01*
X527529Y82463D01*
X529066Y81436D01*
X530372Y80130D01*
X531399Y78593D01*
X532106Y76886D01*
X532347Y75673D01*
X524609Y75673D01*
G37*
%LPD*%
%LPC*%
G36*
X391194Y76373D02*
X391194Y76373D01*
X391194Y84112D01*
X392407Y83870D01*
X394114Y83163D01*
X395650Y82136D01*
X396957Y80830D01*
X397984Y79293D01*
X398691Y77586D01*
X398932Y76373D01*
X391194Y76373D01*
G37*
%LPD*%
%LPC*%
G36*
X75359Y76373D02*
X75359Y76373D01*
X75359Y84112D01*
X76572Y83870D01*
X78279Y83163D01*
X79816Y82136D01*
X81122Y80830D01*
X82149Y79293D01*
X82856Y77586D01*
X83097Y76373D01*
X75359Y76373D01*
G37*
%LPD*%
%LPC*%
G36*
X182280Y76373D02*
X182280Y76373D01*
X182280Y84112D01*
X183493Y83870D01*
X185200Y83163D01*
X186737Y82136D01*
X188043Y80830D01*
X189070Y79293D01*
X189777Y77586D01*
X190019Y76373D01*
X182280Y76373D01*
G37*
%LPD*%
%LPC*%
G36*
X292202Y76373D02*
X292202Y76373D01*
X292202Y84112D01*
X293415Y83870D01*
X295122Y83163D01*
X296658Y82136D01*
X297965Y80830D01*
X298992Y79293D01*
X299699Y77586D01*
X299940Y76373D01*
X292202Y76373D01*
G37*
%LPD*%
%LPC*%
G36*
X75359Y73327D02*
X75359Y73327D01*
X83097Y73327D01*
X82856Y72114D01*
X82149Y70407D01*
X81122Y68870D01*
X79816Y67564D01*
X78279Y66537D01*
X76572Y65830D01*
X75359Y65588D01*
X75359Y73327D01*
G37*
%LPD*%
%LPC*%
G36*
X513824Y75673D02*
X513824Y75673D01*
X514066Y76886D01*
X514773Y78593D01*
X515799Y80130D01*
X517106Y81436D01*
X518642Y82463D01*
X520350Y83170D01*
X521563Y83412D01*
X521563Y75673D01*
X513824Y75673D01*
G37*
%LPD*%
%LPC*%
G36*
X391194Y73327D02*
X391194Y73327D01*
X398932Y73327D01*
X398691Y72114D01*
X397984Y70407D01*
X396957Y68870D01*
X395650Y67564D01*
X394114Y66537D01*
X392407Y65830D01*
X391194Y65588D01*
X391194Y73327D01*
G37*
%LPD*%
%LPC*%
G36*
X292202Y73327D02*
X292202Y73327D01*
X299940Y73327D01*
X299699Y72114D01*
X298992Y70407D01*
X297965Y68870D01*
X296658Y67564D01*
X295122Y66537D01*
X293415Y65830D01*
X292202Y65588D01*
X292202Y73327D01*
G37*
%LPD*%
%LPC*%
G36*
X182280Y73327D02*
X182280Y73327D01*
X190019Y73327D01*
X189777Y72114D01*
X189070Y70407D01*
X188043Y68870D01*
X186737Y67564D01*
X185200Y66537D01*
X183493Y65830D01*
X182280Y65588D01*
X182280Y73327D01*
G37*
%LPD*%
%LPC*%
G36*
X64574Y76373D02*
X64574Y76373D01*
X64815Y77586D01*
X65522Y79293D01*
X66549Y80830D01*
X67856Y82136D01*
X69392Y83163D01*
X71099Y83870D01*
X72312Y84112D01*
X72312Y76373D01*
X64574Y76373D01*
G37*
%LPD*%
%LPC*%
G36*
X380409Y76373D02*
X380409Y76373D01*
X380650Y77586D01*
X381357Y79293D01*
X382384Y80830D01*
X383691Y82136D01*
X385227Y83163D01*
X386934Y83870D01*
X388147Y84112D01*
X388147Y76373D01*
X380409Y76373D01*
G37*
%LPD*%
%LPC*%
G36*
X524609Y72627D02*
X524609Y72627D01*
X532347Y72627D01*
X532106Y71414D01*
X531399Y69707D01*
X530372Y68170D01*
X529066Y66864D01*
X527529Y65837D01*
X525822Y65130D01*
X524609Y64888D01*
X524609Y72627D01*
G37*
%LPD*%
%LPC*%
G36*
X281417Y76373D02*
X281417Y76373D01*
X281658Y77586D01*
X282365Y79293D01*
X283392Y80830D01*
X284699Y82136D01*
X286235Y83163D01*
X287942Y83870D01*
X289155Y84112D01*
X289155Y76373D01*
X281417Y76373D01*
G37*
%LPD*%
%LPC*%
G36*
X171496Y76373D02*
X171496Y76373D01*
X171737Y77586D01*
X172444Y79293D01*
X173471Y80830D01*
X174777Y82136D01*
X176314Y83163D01*
X178021Y83870D01*
X179234Y84112D01*
X179234Y76373D01*
X171496Y76373D01*
G37*
%LPD*%
%LPC*%
G36*
X386934Y65830D02*
X386934Y65830D01*
X385227Y66537D01*
X383691Y67564D01*
X382384Y68870D01*
X381357Y70407D01*
X380650Y72114D01*
X380409Y73327D01*
X388147Y73327D01*
X388147Y65588D01*
X386934Y65830D01*
G37*
%LPD*%
%LPC*%
G36*
X287942Y65830D02*
X287942Y65830D01*
X286235Y66537D01*
X284699Y67564D01*
X283392Y68870D01*
X282365Y70407D01*
X281658Y72114D01*
X281417Y73327D01*
X289155Y73327D01*
X289155Y65588D01*
X287942Y65830D01*
G37*
%LPD*%
%LPC*%
G36*
X178021Y65830D02*
X178021Y65830D01*
X176314Y66537D01*
X174777Y67564D01*
X173471Y68870D01*
X172444Y70407D01*
X171737Y72114D01*
X171496Y73327D01*
X179234Y73327D01*
X179234Y65588D01*
X178021Y65830D01*
G37*
%LPD*%
%LPC*%
G36*
X71099Y65830D02*
X71099Y65830D01*
X69392Y66537D01*
X67856Y67564D01*
X66549Y68870D01*
X65522Y70407D01*
X64815Y72114D01*
X64574Y73327D01*
X72312Y73327D01*
X72312Y65588D01*
X71099Y65830D01*
G37*
%LPD*%
%LPC*%
G36*
X520350Y65130D02*
X520350Y65130D01*
X518642Y65837D01*
X517106Y66864D01*
X515799Y68170D01*
X514773Y69707D01*
X514066Y71414D01*
X513824Y72627D01*
X521563Y72627D01*
X521563Y64888D01*
X520350Y65130D01*
G37*
%LPD*%
%LPC*%
G36*
X1458523Y136423D02*
X1458523Y136423D01*
X1458523Y143346D01*
X1459503Y143151D01*
X1461065Y142504D01*
X1462470Y141565D01*
X1463665Y140370D01*
X1464604Y138965D01*
X1465251Y137403D01*
X1465446Y136423D01*
X1458523Y136423D01*
G37*
%LPD*%
%LPC*%
G36*
X1458523Y196423D02*
X1458523Y196423D01*
X1458523Y203346D01*
X1459503Y203151D01*
X1461065Y202504D01*
X1462470Y201565D01*
X1463665Y200370D01*
X1464604Y198965D01*
X1465251Y197403D01*
X1465446Y196423D01*
X1458523Y196423D01*
G37*
%LPD*%
%LPC*%
G36*
X1458523Y133377D02*
X1458523Y133377D01*
X1465446Y133377D01*
X1465251Y132397D01*
X1464604Y130835D01*
X1463665Y129430D01*
X1462470Y128235D01*
X1461065Y127296D01*
X1459503Y126649D01*
X1458523Y126454D01*
X1458523Y133377D01*
G37*
%LPD*%
%LPC*%
G36*
X1448554Y136423D02*
X1448554Y136423D01*
X1448749Y137403D01*
X1449396Y138965D01*
X1450335Y140370D01*
X1451530Y141565D01*
X1452935Y142504D01*
X1454497Y143151D01*
X1455477Y143346D01*
X1455477Y136423D01*
X1448554Y136423D01*
G37*
%LPD*%
%LPC*%
G36*
X1458523Y193377D02*
X1458523Y193377D01*
X1465446Y193377D01*
X1465251Y192397D01*
X1464604Y190835D01*
X1463665Y189430D01*
X1462470Y188235D01*
X1461065Y187296D01*
X1459503Y186649D01*
X1458523Y186454D01*
X1458523Y193377D01*
G37*
%LPD*%
%LPC*%
G36*
X1448554Y196423D02*
X1448554Y196423D01*
X1448749Y197403D01*
X1449396Y198965D01*
X1450335Y200370D01*
X1451530Y201565D01*
X1452935Y202504D01*
X1454497Y203151D01*
X1455477Y203346D01*
X1455477Y196423D01*
X1448554Y196423D01*
G37*
%LPD*%
%LPC*%
G36*
X1454497Y126649D02*
X1454497Y126649D01*
X1452935Y127296D01*
X1451530Y128235D01*
X1450335Y129430D01*
X1449396Y130835D01*
X1448749Y132397D01*
X1448554Y133377D01*
X1455477Y133377D01*
X1455477Y126454D01*
X1454497Y126649D01*
G37*
%LPD*%
%LPC*%
G36*
X1454497Y186649D02*
X1454497Y186649D01*
X1452935Y187296D01*
X1451530Y188235D01*
X1450335Y189430D01*
X1449396Y190835D01*
X1448749Y192397D01*
X1448554Y193377D01*
X1455477Y193377D01*
X1455477Y186454D01*
X1454497Y186649D01*
G37*
%LPD*%
%LPC*%
G36*
X290678Y74849D02*
X290678Y74849D01*
X290678Y74851D01*
X290679Y74851D01*
X290679Y74849D01*
X290678Y74849D01*
G37*
%LPD*%
%LPC*%
G36*
X674466Y310499D02*
X674466Y310499D01*
X674466Y310501D01*
X674468Y310501D01*
X674468Y310499D01*
X674466Y310499D01*
G37*
%LPD*%
%LPC*%
G36*
X180756Y74849D02*
X180756Y74849D01*
X180756Y74851D01*
X180758Y74851D01*
X180758Y74849D01*
X180756Y74849D01*
G37*
%LPD*%
%LPC*%
G36*
X73835Y74849D02*
X73835Y74849D01*
X73835Y74851D01*
X73836Y74851D01*
X73836Y74849D01*
X73835Y74849D01*
G37*
%LPD*%
%LPC*%
G36*
X523085Y74149D02*
X523085Y74149D01*
X523085Y74151D01*
X523087Y74151D01*
X523087Y74149D01*
X523085Y74149D01*
G37*
%LPD*%
%LPC*%
G36*
X73499Y290299D02*
X73499Y290299D01*
X73499Y290301D01*
X73501Y290301D01*
X73501Y290299D01*
X73499Y290299D01*
G37*
%LPD*%
%LPC*%
G36*
X389670Y74849D02*
X389670Y74849D01*
X389670Y74851D01*
X389671Y74851D01*
X389671Y74849D01*
X389670Y74849D01*
G37*
%LPD*%
%LPC*%
G36*
X1292599Y310499D02*
X1292599Y310499D01*
X1292599Y310501D01*
X1292601Y310501D01*
X1292601Y310499D01*
X1292599Y310499D01*
G37*
%LPD*%
%LPC*%
G36*
X1317999Y310499D02*
X1317999Y310499D01*
X1317999Y310501D01*
X1318001Y310501D01*
X1318001Y310499D01*
X1317999Y310499D01*
G37*
%LPD*%
%LPC*%
G36*
X1456999Y134899D02*
X1456999Y134899D01*
X1456999Y134901D01*
X1457001Y134901D01*
X1457001Y134899D01*
X1456999Y134899D01*
G37*
%LPD*%
%LPC*%
G36*
X826866Y437499D02*
X826866Y437499D01*
X826866Y437501D01*
X826868Y437501D01*
X826868Y437499D01*
X826866Y437499D01*
G37*
%LPD*%
%LPC*%
G36*
X674466Y437499D02*
X674466Y437499D01*
X674466Y437501D01*
X674468Y437501D01*
X674468Y437499D01*
X674466Y437499D01*
G37*
%LPD*%
%LPC*%
G36*
X1008932Y310499D02*
X1008932Y310499D01*
X1008932Y310501D01*
X1008934Y310501D01*
X1008934Y310499D01*
X1008932Y310499D01*
G37*
%LPD*%
%LPC*%
G36*
X365399Y437499D02*
X365399Y437499D01*
X365399Y437501D01*
X365401Y437501D01*
X365401Y437499D01*
X365399Y437499D01*
G37*
%LPD*%
%LPC*%
G36*
X1135932Y437499D02*
X1135932Y437499D01*
X1135932Y437501D01*
X1135934Y437501D01*
X1135934Y437499D01*
X1135932Y437499D01*
G37*
%LPD*%
%LPC*%
G36*
X983532Y437499D02*
X983532Y437499D01*
X983532Y437501D01*
X983534Y437501D01*
X983534Y437499D01*
X983532Y437499D01*
G37*
%LPD*%
%LPC*%
G36*
X1292599Y437499D02*
X1292599Y437499D01*
X1292599Y437501D01*
X1292601Y437501D01*
X1292601Y437499D01*
X1292599Y437499D01*
G37*
%LPD*%
%LPC*%
G36*
X1456999Y194899D02*
X1456999Y194899D01*
X1456999Y194901D01*
X1457001Y194901D01*
X1457001Y194899D01*
X1456999Y194899D01*
G37*
%LPD*%
%LPC*%
G36*
X1444999Y437499D02*
X1444999Y437499D01*
X1444999Y437501D01*
X1445001Y437501D01*
X1445001Y437499D01*
X1444999Y437499D01*
G37*
%LPD*%
%LPC*%
G36*
X517799Y437499D02*
X517799Y437499D01*
X517799Y437501D01*
X517801Y437501D01*
X517801Y437499D01*
X517799Y437499D01*
G37*
%LPD*%
%LPC*%
G36*
X225899Y290299D02*
X225899Y290299D01*
X225899Y290301D01*
X225901Y290301D01*
X225901Y290299D01*
X225899Y290299D01*
G37*
%LPD*%
D10*
X1159900Y131000D03*
X1384900Y131000D03*
X616900Y131000D03*
X841900Y131000D03*
D11*
X523086Y94150D03*
X523086Y74150D03*
D12*
X1386100Y519500D03*
X1366100Y519500D03*
X1346100Y519500D03*
X1326100Y519500D03*
D13*
X1445000Y310500D03*
X1419600Y310500D03*
X1394200Y310500D03*
X1368800Y310500D03*
X1343400Y310500D03*
X1318000Y310500D03*
X1292600Y310500D03*
X1267200Y310500D03*
X1445000Y437500D03*
X1419600Y437500D03*
X1394200Y437500D03*
X1368800Y437500D03*
X1343400Y437500D03*
X1318000Y437500D03*
X1292600Y437500D03*
X1267200Y437500D03*
X1267200Y335900D03*
X1267200Y361300D03*
X1135933Y310500D03*
X1110533Y310500D03*
X1085133Y310500D03*
X1059733Y310500D03*
X1034333Y310500D03*
X1008933Y310500D03*
X983533Y310500D03*
X958133Y310500D03*
X1135933Y437500D03*
X1110533Y437500D03*
X1085133Y437500D03*
X1059733Y437500D03*
X1034333Y437500D03*
X1008933Y437500D03*
X983533Y437500D03*
X958133Y437500D03*
X958133Y335900D03*
X958133Y361300D03*
X826867Y310500D03*
X801467Y310500D03*
X776067Y310500D03*
X750667Y310500D03*
X725267Y310500D03*
X699867Y310500D03*
X674467Y310500D03*
X649067Y310500D03*
X826867Y437500D03*
X801467Y437500D03*
X776067Y437500D03*
X750667Y437500D03*
X725267Y437500D03*
X699867Y437500D03*
X674467Y437500D03*
X649067Y437500D03*
X649067Y335900D03*
X649067Y361300D03*
X517800Y310500D03*
X492400Y310500D03*
X467000Y310500D03*
X441600Y310500D03*
X416200Y310500D03*
X390800Y310500D03*
X365400Y310500D03*
X340000Y310500D03*
X517800Y437500D03*
X492400Y437500D03*
X467000Y437500D03*
X441600Y437500D03*
X416200Y437500D03*
X390800Y437500D03*
X365400Y437500D03*
X340000Y437500D03*
X340000Y335900D03*
X340000Y361300D03*
D12*
X1457000Y194900D03*
X1457000Y174900D03*
X1457000Y154900D03*
X1457000Y134900D03*
D11*
X389671Y74850D03*
X389671Y94850D03*
X290679Y74850D03*
X290679Y94850D03*
X180757Y74850D03*
X180757Y94850D03*
X73836Y74850D03*
X73836Y94850D03*
D12*
X55900Y594900D03*
X75900Y594900D03*
X95900Y594900D03*
X115900Y594900D03*
D11*
X197000Y594900D03*
X217000Y594900D03*
D13*
X48100Y443900D03*
X73500Y443900D03*
X98900Y443900D03*
X124300Y443900D03*
X149700Y443900D03*
X175100Y443900D03*
X200500Y443900D03*
X225900Y443900D03*
X225900Y392500D03*
X225900Y367100D03*
X225900Y341700D03*
X48100Y290300D03*
X73500Y290300D03*
X98900Y290300D03*
X124300Y290300D03*
X149700Y290300D03*
X175100Y290300D03*
X200500Y290300D03*
X225900Y290300D03*
D10*
X888400Y131000D03*
X1113400Y131000D03*
D12*
X1077033Y519500D03*
X1057033Y519500D03*
X1037033Y519500D03*
X1017033Y519500D03*
X767967Y519500D03*
X747967Y519500D03*
X727967Y519500D03*
X707967Y519500D03*
X458900Y519500D03*
X438900Y519500D03*
X418900Y519500D03*
X398900Y519500D03*
D14*
X889000Y32500D03*
X1162000Y32500D03*
X1414000Y46000D03*
X310000Y595000D03*
X574000Y596000D03*
X889000Y593000D03*
X1195000Y594000D03*
X1471000Y592000D03*
X1358000Y67000D03*
M02*
