M48
;GenerationSoftware,Autodesk,EAGLE,9.6.2*%
;CreationDate,2023-12-12T10:21:04Z*%
FMAT,2
ICI,OFF
METRIC,TZ,000.000
T6C0.350
T5C0.700
T4C0.860
T3C1.000
T2C1.320
%
G90
M71
T2
X115990Y13100
X111340Y13100
X84190Y13100
X61690Y13100
X138490Y13100
X88840Y13100
T3
X39080Y31050
X36540Y31050
X41620Y31050
X64907Y43750
X34000Y31050
X51780Y43750
X49240Y43750
X44160Y31050
X46700Y31050
X49240Y31050
X51780Y31050
X64907Y36130
X46700Y43750
X64907Y33590
X36540Y43750
X67447Y43750
X69987Y43750
X72527Y43750
X75067Y43750
X77607Y43750
X80147Y43750
X82687Y43750
X64907Y31050
X67447Y31050
X72527Y31050
X75067Y31050
X7350Y29030
X4810Y29030
X22590Y34170
X22590Y36710
X22590Y39250
X22590Y44390
X20050Y44390
X17510Y44390
X14970Y44390
X12430Y44390
X9890Y44390
X7350Y44390
X4810Y44390
X44160Y43750
X9890Y29030
X12430Y29030
X14970Y29030
X17510Y29030
X20050Y29030
X22590Y29030
X34000Y36130
X34000Y33590
X34000Y43750
X69987Y31050
X39080Y43750
X41620Y43750
X141960Y43750
X113593Y31050
X126720Y36130
X126720Y33590
X126720Y43750
X129260Y43750
X131800Y43750
X134340Y43750
X136880Y43750
X139420Y43750
X80147Y31050
X144500Y43750
X126720Y31050
X129260Y31050
X131800Y31050
X134340Y31050
X136880Y31050
X139420Y31050
X141960Y31050
X144500Y31050
X100893Y43750
X82687Y31050
X77607Y31050
X111053Y31050
X95813Y36130
X95813Y33590
X95813Y43750
X98353Y43750
X103433Y43750
X105973Y43750
X108513Y43750
X111053Y43750
X113593Y43750
X95813Y31050
X98353Y31050
X100893Y31050
X103433Y31050
X105973Y31050
X108513Y31050
T4
X18076Y7485
X52309Y9415
X52309Y7415
X21700Y59490
X19700Y59490
X7384Y7485
X38967Y7485
X38967Y9485
X29068Y7485
X29068Y9485
X18076Y9485
X7384Y9485
T5
X107703Y51950
X105703Y51950
X103703Y51950
X39890Y51950
X101703Y51950
X76797Y51950
X74797Y51950
X72797Y51950
X70797Y51950
X45890Y51950
X43890Y51950
X41890Y51950
X9590Y59490
X138610Y51950
X136610Y51950
X134610Y51950
X132610Y51950
X145700Y19490
X145700Y17490
X145700Y15490
X145700Y13490
X5590Y59490
X7590Y59490
X11590Y59490
T6
X135800Y6700
X147100Y59200
X119500Y59400
X88900Y59300
X57400Y59600
X31000Y59500
X141400Y4600
X116200Y3250
X88900Y3250
M30